<svg width="38" height="40" viewBox="0 0 38 40" fill="none" xmlns="http://www.w3.org/2000/svg">
<path d="M37.75 5.37498V28.8125C37.7487 29.0349 37.7 29.2545 37.607 29.4566C37.5141 29.6587 37.379 29.8387 37.2109 29.9844C34.2266 32.5683 31.373 33.5 28.6523 33.5C24.959 33.5 21.5098 31.7929 18.3008 30.209C13.1152 27.6406 8.60742 25.416 3.375 29.5488V38.1875C3.375 38.6019 3.21038 38.9993 2.91735 39.2923C2.62433 39.5854 2.2269 39.75 1.8125 39.75C1.3981 39.75 1.00067 39.5854 0.707646 39.2923C0.41462 38.9993 0.25 38.6019 0.25 38.1875V5.37498C0.251498 5.15238 0.300542 4.93267 0.393848 4.73057C0.487153 4.52846 0.622565 4.34863 0.791016 4.2031C7.82227 -1.88674 14.1328 1.2324 19.6953 3.98436C25.0547 6.6367 29.7012 8.92967 35.1641 4.2031C35.3899 4.00737 35.667 3.88049 35.9627 3.83751C36.2585 3.79452 36.5603 3.83723 36.8325 3.96057C37.1046 4.08391 37.3357 4.28272 37.4984 4.53341C37.661 4.7841 37.7483 5.07617 37.75 5.37498Z" fill="#F05537"/>
</svg>
