<svg width="35" height="35" viewBox="0 0 35 35" fill="none" xmlns="http://www.w3.org/2000/svg">
<rect width="34.9091" height="34.9091" rx="10.9091" fill="#F05537"/>
<path d="M24.1111 9.9H23.1667V8H21.2778V9.9H13.7222V8H11.8333V9.9H10.8889C10.3879 9.9 9.90748 10.1002 9.55324 10.4565C9.19901 10.8128 9 11.2961 9 11.8V25.1C9 25.6039 9.19901 26.0872 9.55324 26.4435C9.90748 26.7998 10.3879 27 10.8889 27H24.1111C25.1594 27 26 26.1545 26 25.1V11.8C26 11.2961 25.801 10.8128 25.4468 10.4565C25.0925 10.1002 24.6121 9.9 24.1111 9.9ZM24.1111 25.1H10.8889V15.6H24.1111V25.1ZM24.1111 13.7H10.8889V11.8H24.1111V13.7Z" fill="white"/>
</svg>
