<svg width="35" height="35" viewBox="0 0 35 35" fill="none" xmlns="http://www.w3.org/2000/svg">
<rect width="34.9091" height="34.9091" rx="10.9091" fill="#F05537"/>
<path d="M16.1378 9.32208C16.3787 9.11412 16.6843 9 17 9C17.3157 9 17.6213 9.11412 17.8622 9.32208L24.5289 15.0864C24.6765 15.214 24.7951 15.3727 24.8765 15.5517C24.9578 15.7307 25 15.9256 25 16.1228V24.6411C25 25.0015 24.8595 25.3472 24.6095 25.602C24.3594 25.8568 24.0203 26 23.6667 26H18.5556C18.3787 26 18.2092 25.9284 18.0842 25.801C17.9591 25.6736 17.8889 25.5008 17.8889 25.3206V19.6586H16.1111V25.3206C16.1111 25.5008 16.0409 25.6736 15.9158 25.801C15.7908 25.9284 15.6213 26 15.4444 26H10.3333C9.97971 26 9.64057 25.8568 9.39052 25.602C9.14048 25.3472 9 25.0015 9 24.6411V16.1228C9 15.7242 9.17244 15.3446 9.47111 15.0864L16.1378 9.32208ZM17 10.3584L10.3333 16.1228V24.6411H14.7778V18.9791C14.7778 18.799 14.848 18.6261 14.973 18.4987C15.0981 18.3713 15.2676 18.2997 15.4444 18.2997H18.5556C18.7324 18.2997 18.9019 18.3713 19.027 18.4987C19.152 18.6261 19.2222 18.799 19.2222 18.9791V24.6411H23.6667V16.1228L17 10.3584Z" fill="white"/>
</svg>
