<svg width="16" height="17" viewBox="0 0 16 17" fill="none" xmlns="http://www.w3.org/2000/svg">
<path d="M7.13778 0.32208C7.37874 0.114124 7.68425 0 8 0C8.31575 0 8.62126 0.114124 8.86222 0.32208L15.5289 6.08643C15.6765 6.21398 15.7951 6.37275 15.8765 6.55171C15.9578 6.73068 16 6.92555 16 7.12279V15.6411C16 16.0015 15.8595 16.3472 15.6095 16.602C15.3594 16.8568 15.0203 17 14.6667 17H9.55556C9.37874 17 9.20918 16.9284 9.08415 16.801C8.95913 16.6736 8.88889 16.5008 8.88889 16.3206V10.6586H7.11111V16.3206C7.11111 16.5008 7.04087 16.6736 6.91585 16.801C6.79082 16.9284 6.62126 17 6.44444 17H1.33333C0.979711 17 0.640573 16.8568 0.390524 16.602C0.140476 16.3472 0 16.0015 0 15.6411V7.12279C0 6.72419 0.172444 6.34461 0.471111 6.08643L7.13778 0.32208ZM8 1.35845L1.33333 7.12279V15.6411H5.77778V9.97915C5.77778 9.79895 5.84802 9.62613 5.97304 9.49871C6.09806 9.3713 6.26763 9.29971 6.44444 9.29971H9.55556C9.73237 9.29971 9.90194 9.3713 10.027 9.49871C10.152 9.62613 10.2222 9.79895 10.2222 9.97915V15.6411H14.6667V7.12279L8 1.35845Z" fill="#9394A5"/>
</svg>
