<svg width="35" height="35" viewBox="0 0 35 35" fill="none" xmlns="http://www.w3.org/2000/svg">
<rect width="34.9091" height="34.9091" rx="10.9091" fill="#F05537"/>
<path d="M24.1617 9.83829C23.6249 9.30154 22.8968 9 22.1377 9C21.3786 9 20.6505 9.30154 20.1137 9.83829L10.5523 19.3992C10.2273 19.7241 9.99884 20.1329 9.89227 20.5799L9.01628 24.2612C8.99257 24.3609 8.99479 24.4651 9.02274 24.5637C9.0507 24.6623 9.10345 24.7521 9.17597 24.8245C9.24849 24.8969 9.33835 24.9496 9.437 24.9774C9.53565 25.0053 9.63978 25.0074 9.73947 24.9836L13.4202 24.1068C13.8676 24.0004 14.2766 23.7719 14.6018 23.4469L24.1617 13.8876C24.6984 13.3508 25 12.6228 25 11.8637C25 11.1047 24.6984 10.3767 24.1617 9.83989V9.83829ZM20.9617 10.6862C21.1161 10.5318 21.2995 10.4093 21.5013 10.3257C21.703 10.2422 21.9193 10.1992 22.1377 10.1992C22.3561 10.1992 22.5723 10.2422 22.7741 10.3257C22.9759 10.4093 23.1592 10.5318 23.3137 10.6862C23.4681 10.8407 23.5906 11.024 23.6742 11.2257C23.7578 11.4275 23.8008 11.6438 23.8008 11.8621C23.8008 12.0805 23.7578 12.2968 23.6742 12.4985C23.5906 12.7003 23.4681 12.8836 23.3137 13.0381L22.6001 13.7508L20.2481 11.3998L20.9617 10.687V10.6862ZM19.4001 12.2493L21.7521 14.5995L13.7522 22.5989C13.5842 22.7669 13.373 22.8845 13.1418 22.9397L10.4091 23.5909L11.0595 20.8583C11.1147 20.6263 11.2331 20.4151 11.401 20.2471L19.4001 12.2477V12.2493Z" fill="white"/>
</svg>
