<svg width="23" height="20" viewBox="0 0 23 20" fill="none" xmlns="http://www.w3.org/2000/svg">
<path d="M16.2109 0C14.249 0 12.5078 0.774414 11.3281 2.10547C10.1484 0.774414 8.40723 0 6.44531 0C4.73654 0.00206748 3.09835 0.681789 1.89007 1.89007C0.681789 3.09835 0.00206748 4.73654 0 6.44531C0 13.5098 10.333 19.1543 10.7725 19.3916C10.9432 19.4836 11.1342 19.5317 11.3281 19.5317C11.5221 19.5317 11.713 19.4836 11.8838 19.3916C12.3232 19.1543 22.6562 13.5098 22.6562 6.44531C22.6542 4.73654 21.9745 3.09835 20.7662 1.89007C19.5579 0.681789 17.9197 0.00206748 16.2109 0ZM15.6748 13.9023C14.3147 15.0565 12.8608 16.0952 11.3281 17.0078C9.79546 16.0952 8.34153 15.0565 6.98145 13.9023C4.86523 12.0869 2.34375 9.31836 2.34375 6.44531C2.34375 5.35751 2.77588 4.31426 3.54507 3.54507C4.31426 2.77588 5.35751 2.34375 6.44531 2.34375C8.18359 2.34375 9.63867 3.26172 10.2432 4.74023C10.3311 4.95577 10.4813 5.14021 10.6746 5.27005C10.8678 5.39988 11.0953 5.46922 11.3281 5.46922C11.5609 5.46922 11.7885 5.39988 11.9817 5.27005C12.1749 5.14021 12.3251 4.95577 12.4131 4.74023C13.0176 3.26172 14.4727 2.34375 16.2109 2.34375C17.2987 2.34375 18.342 2.77588 19.1112 3.54507C19.8804 4.31426 20.3125 5.35751 20.3125 6.44531C20.3125 9.31836 17.791 12.0869 15.6748 13.9023Z" fill="#9394A5"/>
</svg>
