<svg width="35" height="35" viewBox="0 0 35 35" fill="none" xmlns="http://www.w3.org/2000/svg">
<rect width="34.9091" height="34.9091" rx="10.9091" fill="#F05537"/>
<path d="M21.1638 10C19.6917 10 18.3852 10.5551 17.5 11.5092C16.6148 10.5551 15.3083 10 13.8362 10C12.554 10.0015 11.3248 10.4887 10.4182 11.3548C9.51158 12.2208 9.00155 13.3951 9 14.6199C9 19.6836 16.7533 23.7295 17.0831 23.8996C17.2112 23.9655 17.3545 24 17.5 24C17.6455 24 17.7888 23.9655 17.9169 23.8996C18.2467 23.7295 26 19.6836 26 14.6199C25.9984 13.3951 25.4884 12.2208 24.5818 11.3548C23.6752 10.4887 22.446 10.0015 21.1638 10ZM20.7615 19.965C19.741 20.7922 18.65 21.5368 17.5 22.1909C16.35 21.5368 15.259 20.7922 14.2385 19.965C12.6506 18.6637 10.7586 16.6792 10.7586 14.6199C10.7586 13.8402 11.0829 13.0924 11.66 12.541C12.2372 11.9897 13.02 11.68 13.8362 11.68C15.1405 11.68 16.2323 12.3379 16.6859 13.3977C16.7519 13.5522 16.8646 13.6844 17.0096 13.7775C17.1546 13.8705 17.3253 13.9202 17.5 13.9202C17.6747 13.9202 17.8454 13.8705 17.9904 13.7775C18.1354 13.6844 18.2481 13.5522 18.3141 13.3977C18.7677 12.3379 19.8595 11.68 21.1638 11.68C21.98 11.68 22.7628 11.9897 23.34 12.541C23.9171 13.0924 24.2414 13.8402 24.2414 14.6199C24.2414 16.6792 22.3494 18.6637 20.7615 19.965Z" fill="white"/>
</svg>
