<svg width="28" height="28" viewBox="0 0 28 28" fill="none" xmlns="http://www.w3.org/2000/svg">
<g clip-path="url(#clip0_2_12)">
<path fill-rule="evenodd" clip-rule="evenodd" d="M5.83333 7C5.52391 7 5.22716 7.12292 5.00837 7.34171C4.78958 7.5605 4.66666 7.85725 4.66666 8.16667V19.8333C4.66666 20.1428 4.78958 20.4395 5.00837 20.6583C5.22716 20.8771 5.52391 21 5.83333 21H14.1983C14.4394 20.3169 14.8864 19.7253 15.4777 19.3069C16.069 18.8885 16.7756 18.6638 17.5 18.6638C18.2244 18.6638 18.931 18.8885 19.5223 19.3069C20.1136 19.7253 20.5606 20.3169 20.8017 21H22.1667C22.4761 21 22.7728 20.8771 22.9916 20.6583C23.2104 20.4395 23.3333 20.1428 23.3333 19.8333V8.16667C23.3333 7.85725 23.2104 7.5605 22.9916 7.34171C22.7728 7.12292 22.4761 7 22.1667 7H20.8017C20.5606 7.68312 20.1136 8.27466 19.5223 8.69308C18.931 9.1115 18.2244 9.33619 17.5 9.33619C16.7756 9.33619 16.069 9.1115 15.4777 8.69308C14.8864 8.27466 14.4394 7.68312 14.1983 7H5.83333ZM2.33333 8.16667C2.33333 7.23841 2.70208 6.34817 3.35845 5.69179C4.01483 5.03542 4.90507 4.66667 5.83333 4.66667H15.1667C15.4761 4.66667 15.7728 4.78958 15.9916 5.00837C16.2104 5.22717 16.3333 5.52391 16.3333 5.83333C16.3333 6.14275 16.4562 6.4395 16.675 6.65829C16.8938 6.87708 17.1906 7 17.5 7C17.8094 7 18.1062 6.87708 18.325 6.65829C18.5437 6.4395 18.6667 6.14275 18.6667 5.83333C18.6667 5.52391 18.7896 5.22717 19.0084 5.00837C19.2272 4.78958 19.5239 4.66667 19.8333 4.66667H22.1667C23.0949 4.66667 23.9852 5.03542 24.6415 5.69179C25.2979 6.34817 25.6667 7.23841 25.6667 8.16667V19.8333C25.6667 20.7616 25.2979 21.6518 24.6415 22.3082C23.9852 22.9646 23.0949 23.3333 22.1667 23.3333H19.8333C19.5239 23.3333 19.2272 23.2104 19.0084 22.9916C18.7896 22.7728 18.6667 22.4761 18.6667 22.1667C18.6667 21.8572 18.5437 21.5605 18.325 21.3417C18.1062 21.1229 17.8094 21 17.5 21C17.1906 21 16.8938 21.1229 16.675 21.3417C16.4562 21.5605 16.3333 21.8572 16.3333 22.1667C16.3333 22.4761 16.2104 22.7728 15.9916 22.9916C15.7728 23.2104 15.4761 23.3333 15.1667 23.3333H5.83333C4.90507 23.3333 4.01483 22.9646 3.35845 22.3082C2.70208 21.6518 2.33333 20.7616 2.33333 19.8333V8.16667ZM17.5 10.5C17.8094 10.5 18.1062 10.6229 18.325 10.8417C18.5437 11.0605 18.6667 11.3572 18.6667 11.6667V12.25C18.6667 12.5594 18.5437 12.8562 18.325 13.075C18.1062 13.2937 17.8094 13.4167 17.5 13.4167C17.1906 13.4167 16.8938 13.2937 16.675 13.075C16.4562 12.8562 16.3333 12.5594 16.3333 12.25V11.6667C16.3333 11.3572 16.4562 11.0605 16.675 10.8417C16.8938 10.6229 17.1906 10.5 17.5 10.5ZM18.6667 15.75C18.6667 15.4406 18.5437 15.1438 18.325 14.925C18.1062 14.7062 17.8094 14.5833 17.5 14.5833C17.1906 14.5833 16.8938 14.7062 16.675 14.925C16.4562 15.1438 16.3333 15.4406 16.3333 15.75V16.3333C16.3333 16.6428 16.4562 16.9395 16.675 17.1583C16.8938 17.3771 17.1906 17.5 17.5 17.5C17.8094 17.5 18.1062 17.3771 18.325 17.1583C18.5437 16.9395 18.6667 16.6428 18.6667 16.3333V15.75Z" fill="#9394A5"/>
</g>
<defs>
<clipPath id="clip0_2_12">
<rect width="28" height="28" fill="white"/>
</clipPath>
</defs>
</svg>
