<svg width="30" height="20" viewBox="0 0 30 20" fill="none" xmlns="http://www.w3.org/2000/svg">
<path d="M7.25831 5.63872H23.2907V14.9982H7.25831V5.63872ZM27.2989 10.3185C27.2989 11.6108 28.3755 12.6583 29.7037 12.6583V17.3381C29.7037 18.6304 28.627 19.6779 27.2989 19.6779H3.2502C1.92202 19.6779 0.845337 18.6304 0.845337 17.3381V12.6583C2.17352 12.6583 3.2502 11.6108 3.2502 10.3185C3.2502 9.02617 2.17352 7.97859 0.845337 7.97859V3.29885C0.845337 2.00656 1.92202 0.958984 3.2502 0.958984H27.2989C28.627 0.958984 29.7037 2.00656 29.7037 3.29885V7.97859C28.3755 7.97859 27.2989 9.02617 27.2989 10.3185ZM24.894 5.24874C24.894 4.6026 24.3557 4.07881 23.6916 4.07881H6.8575C6.19341 4.07881 5.65507 4.6026 5.65507 5.24874V15.3882C5.65507 16.0343 6.19341 16.5581 6.8575 16.5581H23.6916C24.3557 16.5581 24.894 16.0343 24.894 15.3882V5.24874Z" fill="#F05537"/>
</svg>
