<svg width="25" height="25" viewBox="0 0 25 25" fill="none" xmlns="http://www.w3.org/2000/svg">
<path d="M23.9244 5.81343C23.8158 5.70383 23.6865 5.61691 23.544 5.55774C23.4015 5.49857 23.2486 5.46832 23.0943 5.46875H22.2656V3.51562C22.2653 3.20493 22.1417 2.90706 21.922 2.68737C21.7023 2.46768 21.4044 2.3441 21.0938 2.34375H4.22983C3.31522 2.34376 2.43806 2.7071 1.79133 3.35383C1.1446 4.00056 0.781263 4.87772 0.78125 5.79233V19.2077C0.781263 20.1223 1.1446 20.9994 1.79133 21.6462C2.43806 22.2929 3.31522 22.6562 4.22983 22.6562H23.0482C23.3582 22.6556 23.6553 22.5325 23.8748 22.3137C24.0944 22.0949 24.2185 21.7981 24.2201 21.4881L24.2662 6.64463C24.2671 6.49035 24.2374 6.33741 24.1787 6.19471C24.1201 6.05202 24.0336 5.92241 23.9244 5.81343ZM22.6588 21.0938H4.22983C3.72961 21.0937 3.24988 20.895 2.89617 20.5413C2.54246 20.1876 2.34375 19.7079 2.34375 19.2077V5.79233C2.34375 5.29211 2.54246 4.81238 2.89617 4.45867C3.24988 4.10496 3.72961 3.90625 4.22983 3.90625H20.7031V5.46875H4.29688V7.03125H22.7025L22.6588 21.0938Z" fill="#9394A5"/>
<path d="M19.1406 12.8906H20.7031V14.4531H19.1406V12.8906Z" fill="#9394A5"/>
</svg>
