<svg width="35" height="35" viewBox="0 0 35 35" fill="none" xmlns="http://www.w3.org/2000/svg">
<rect width="34.9091" height="34.9091" rx="10.9091" fill="#F05537"/>
<path d="M25.2686 12.9531C25.1947 12.8786 25.1068 12.8195 25.0099 12.7793C24.913 12.739 24.8091 12.7185 24.7041 12.7188H24.1406V11.3906C24.1404 11.1794 24.0564 10.9768 23.907 10.8274C23.7576 10.678 23.555 10.594 23.3438 10.5938H11.8763C11.2543 10.5938 10.6579 10.8408 10.2181 11.2806C9.77833 11.7204 9.53126 12.3168 9.53125 12.9388V22.0612C9.53126 22.6832 9.77833 23.2796 10.2181 23.7194C10.6579 24.1592 11.2543 24.4062 11.8763 24.4062H24.6728C24.8835 24.4058 25.0856 24.3221 25.2349 24.1733C25.3842 24.0245 25.4686 23.8227 25.4696 23.6119L25.501 13.5183C25.5017 13.4134 25.4814 13.3094 25.4415 13.2124C25.4017 13.1154 25.3429 13.0272 25.2686 12.9531ZM24.408 23.3438H11.8763C11.5361 23.3437 11.2099 23.2086 10.9694 22.9681C10.7289 22.7276 10.5938 22.4014 10.5938 22.0612V12.9388C10.5938 12.5986 10.7289 12.2724 10.9694 12.0319C11.2099 11.7914 11.5361 11.6562 11.8763 11.6562H23.0781V12.7188H11.9219V13.7812H24.4377L24.408 23.3438Z" fill="white"/>
<path d="M22.0156 17.7656H23.0781V18.8281H22.0156V17.7656Z" fill="white"/>
</svg>
