<svg width="35" height="35" viewBox="0 0 35 35" fill="none" xmlns="http://www.w3.org/2000/svg">
<rect width="34.9091" height="34.9091" rx="10.9091" fill="#F05537"/>
<g clip-path="url(#clip0_2_8)">
<path fill-rule="evenodd" clip-rule="evenodd" d="M11.1667 13C10.9457 13 10.7337 13.0878 10.5774 13.2441C10.4211 13.4004 10.3333 13.6123 10.3333 13.8333V22.1667C10.3333 22.3877 10.4211 22.5996 10.5774 22.7559C10.7337 22.9122 10.9457 23 11.1667 23H17.1417C17.3138 22.5121 17.6331 22.0895 18.0555 21.7907C18.4779 21.4918 18.9826 21.3313 19.5 21.3313C20.0174 21.3313 20.5221 21.4918 20.9445 21.7907C21.3669 22.0895 21.6862 22.5121 21.8583 23H22.8333C23.0544 23 23.2663 22.9122 23.4226 22.7559C23.5789 22.5996 23.6667 22.3877 23.6667 22.1667V13.8333C23.6667 13.6123 23.5789 13.4004 23.4226 13.2441C23.2663 13.0878 23.0544 13 22.8333 13H21.8583C21.6862 13.4879 21.3669 13.9105 20.9445 14.2093C20.5221 14.5082 20.0174 14.6687 19.5 14.6687C18.9826 14.6687 18.4779 14.5082 18.0555 14.2093C17.6331 13.9105 17.3138 13.4879 17.1417 13H11.1667ZM8.66667 13.8333C8.66667 13.1703 8.93006 12.5344 9.3989 12.0656C9.86775 11.5967 10.5036 11.3333 11.1667 11.3333H17.8333C18.0544 11.3333 18.2663 11.4211 18.4226 11.5774C18.5789 11.7337 18.6667 11.9457 18.6667 12.1667C18.6667 12.3877 18.7545 12.5996 18.9107 12.7559C19.067 12.9122 19.279 13 19.5 13C19.721 13 19.933 12.9122 20.0893 12.7559C20.2455 12.5996 20.3333 12.3877 20.3333 12.1667C20.3333 11.9457 20.4211 11.7337 20.5774 11.5774C20.7337 11.4211 20.9457 11.3333 21.1667 11.3333H22.8333C23.4964 11.3333 24.1323 11.5967 24.6011 12.0656C25.0699 12.5344 25.3333 13.1703 25.3333 13.8333V22.1667C25.3333 22.8297 25.0699 23.4656 24.6011 23.9344C24.1323 24.4033 23.4964 24.6667 22.8333 24.6667H21.1667C20.9457 24.6667 20.7337 24.5789 20.5774 24.4226C20.4211 24.2663 20.3333 24.0543 20.3333 23.8333C20.3333 23.6123 20.2455 23.4004 20.0893 23.2441C19.933 23.0878 19.721 23 19.5 23C19.279 23 19.067 23.0878 18.9107 23.2441C18.7545 23.4004 18.6667 23.6123 18.6667 23.8333C18.6667 24.0543 18.5789 24.2663 18.4226 24.4226C18.2663 24.5789 18.0544 24.6667 17.8333 24.6667H11.1667C10.5036 24.6667 9.86775 24.4033 9.3989 23.9344C8.93006 23.4656 8.66667 22.8297 8.66667 22.1667V13.8333ZM19.5 15.5C19.721 15.5 19.933 15.5878 20.0893 15.7441C20.2455 15.9004 20.3333 16.1123 20.3333 16.3333V16.75C20.3333 16.971 20.2455 17.183 20.0893 17.3393C19.933 17.4955 19.721 17.5833 19.5 17.5833C19.279 17.5833 19.067 17.4955 18.9107 17.3393C18.7545 17.183 18.6667 16.971 18.6667 16.75V16.3333C18.6667 16.1123 18.7545 15.9004 18.9107 15.7441C19.067 15.5878 19.279 15.5 19.5 15.5ZM20.3333 19.25C20.3333 19.029 20.2455 18.817 20.0893 18.6607C19.933 18.5045 19.721 18.4167 19.5 18.4167C19.279 18.4167 19.067 18.5045 18.9107 18.6607C18.7545 18.817 18.6667 19.029 18.6667 19.25V19.6667C18.6667 19.8877 18.7545 20.0996 18.9107 20.2559C19.067 20.4122 19.279 20.5 19.5 20.5C19.721 20.5 19.933 20.4122 20.0893 20.2559C20.2455 20.0996 20.3333 19.8877 20.3333 19.6667V19.25Z" fill="white"/>
</g>
<defs>
<clipPath id="clip0_2_8">
<rect width="20" height="20" fill="white" transform="translate(7 8)"/>
</clipPath>
</defs>
</svg>
