<svg width="61" height="61" viewBox="0 0 61 61" fill="none" xmlns="http://www.w3.org/2000/svg">
<g filter="url(#filter0_d_5_32)">
<rect x="4" y="3" width="53.001" height="53" rx="4" fill="white"/>
</g>
<path d="M39.9524 20.0479C39.2814 19.377 38.3713 19 37.4224 19C36.4734 19 35.5634 19.377 34.8924 20.0479L22.9404 31.9999C22.5341 32.4062 22.2486 32.9171 22.1154 33.4759L21.0204 38.0779C20.9907 38.2026 20.9935 38.3328 21.0284 38.456C21.0634 38.5793 21.1293 38.6916 21.22 38.7821C21.3106 38.8727 21.4229 38.9385 21.5463 38.9733C21.6696 39.0081 21.7997 39.0107 21.9244 38.9809L26.5254 37.8849C27.0845 37.7519 27.5958 37.4663 28.0024 37.0599L39.9524 25.1099C40.6233 24.4389 41.0003 23.5289 41.0003 22.5799C41.0003 21.631 40.6233 20.7209 39.9524 20.0499V20.0479ZM35.9524 21.1079C36.1454 20.9149 36.3746 20.7618 36.6268 20.6573C36.879 20.5528 37.1494 20.499 37.4224 20.499C37.6954 20.499 37.9657 20.5528 38.2179 20.6573C38.4701 20.7618 38.6993 20.9149 38.8924 21.1079C39.0854 21.301 39.2385 21.5302 39.343 21.7824C39.4475 22.0346 39.5012 22.3049 39.5012 22.5779C39.5012 22.8509 39.4475 23.1213 39.343 23.3735C39.2385 23.6257 39.0854 23.8549 38.8924 24.0479L38.0004 24.9389L35.0604 21.9999L35.9524 21.1089V21.1079ZM34.0004 23.0619L36.9404 25.9999L26.9404 35.9999C26.7304 36.2099 26.4664 36.3569 26.1774 36.4259L22.7614 37.2399L23.5744 33.8239C23.6434 33.5339 23.7914 33.2699 24.0014 33.0599L34.0004 23.0599V23.0619Z" fill="#F05537"/>
<defs>
<filter id="filter0_d_5_32" x="0.734535" y="0.739293" width="59.5319" height="59.5309" filterUnits="userSpaceOnUse" color-interpolation-filters="sRGB">
<feFlood flood-opacity="0" result="BackgroundImageFix"/>
<feColorMatrix in="SourceAlpha" type="matrix" values="0 0 0 0 0 0 0 0 0 0 0 0 0 0 0 0 0 0 127 0" result="hardAlpha"/>
<feMorphology radius="0.502379" operator="dilate" in="SourceAlpha" result="effect1_dropShadow_5_32"/>
<feOffset dy="1.00476"/>
<feGaussianBlur stdDeviation="1.38154"/>
<feComposite in2="hardAlpha" operator="out"/>
<feColorMatrix type="matrix" values="0 0 0 0 0 0 0 0 0 0 0 0 0 0 0 0 0 0 0.04 0"/>
<feBlend mode="normal" in2="BackgroundImageFix" result="effect1_dropShadow_5_32"/>
<feBlend mode="normal" in="SourceGraphic" in2="effect1_dropShadow_5_32" result="shape"/>
</filter>
</defs>
</svg>
