<svg width="61" height="61" viewBox="0 0 61 61" fill="none" xmlns="http://www.w3.org/2000/svg">
<g filter="url(#filter0_d_5_32)">
<rect x="4" y="3" width="53.001" height="53" rx="4" fill="white"/>
</g>
<path d="M23 26V36C23 36.5304 23.2107 37.0391 23.5858 37.4142C23.9609 37.7893 24.4696 38 25 38H37C37.5304 38 38.0391 37.7893 38.4142 37.4142C38.7893 37.0391 39 36.5304 39 36V26M23 26V24C23 23.4696 23.2107 22.9609 23.5858 22.5858C23.9609 22.2107 24.4696 22 25 22H27M23 26H39M39 26V24C39 23.4696 38.7893 22.9609 38.4142 22.5858C38.0391 22.2107 37.5304 22 37 22H35M27 22H35M27 22V20M35 22V20" stroke="#F05537" stroke-width="2" stroke-linecap="round" stroke-linejoin="round"/>
<defs>
<filter id="filter0_d_5_32" x="0.734535" y="0.739293" width="59.5319" height="59.5309" filterUnits="userSpaceOnUse" color-interpolation-filters="sRGB">
<feFlood flood-opacity="0" result="BackgroundImageFix"/>
<feColorMatrix in="SourceAlpha" type="matrix" values="0 0 0 0 0 0 0 0 0 0 0 0 0 0 0 0 0 0 127 0" result="hardAlpha"/>
<feMorphology radius="0.502379" operator="dilate" in="SourceAlpha" result="effect1_dropShadow_5_32"/>
<feOffset dy="1.00476"/>
<feGaussianBlur stdDeviation="1.38154"/>
<feComposite in2="hardAlpha" operator="out"/>
<feColorMatrix type="matrix" values="0 0 0 0 0 0 0 0 0 0 0 0 0 0 0 0 0 0 0.04 0"/>
<feBlend mode="normal" in2="BackgroundImageFix" result="effect1_dropShadow_5_32"/>
<feBlend mode="normal" in="SourceGraphic" in2="effect1_dropShadow_5_32" result="shape"/>
</filter>
</defs>
</svg>
