<svg width="61" height="61" viewBox="0 0 61 61" fill="none" xmlns="http://www.w3.org/2000/svg">
<g filter="url(#filter0_d_5_32)">
<rect x="4" y="3" width="53.001" height="53" rx="4" fill="white"/>
</g>
<path d="M35.2109 20C33.249 20 31.5078 20.7744 30.3281 22.1055C29.1484 20.7744 27.4072 20 25.4453 20C23.7365 20.0021 22.0984 20.6818 20.8901 21.8901C19.6818 23.0984 19.0021 24.7365 19 26.4453C19 33.5098 29.333 39.1543 29.7725 39.3916C29.9432 39.4836 30.1342 39.5317 30.3281 39.5317C30.5221 39.5317 30.713 39.4836 30.8838 39.3916C31.3232 39.1543 41.6562 33.5098 41.6562 26.4453C41.6542 24.7365 40.9745 23.0984 39.7662 21.8901C38.5579 20.6818 36.9197 20.0021 35.2109 20ZM34.6748 33.9023C33.3147 35.0565 31.8608 36.0952 30.3281 37.0078C28.7955 36.0952 27.3415 35.0565 25.9814 33.9023C23.8652 32.0869 21.3438 29.3184 21.3438 26.4453C21.3438 25.3575 21.7759 24.3143 22.5451 23.5451C23.3143 22.7759 24.3575 22.3438 25.4453 22.3438C27.1836 22.3438 28.6387 23.2617 29.2432 24.7402C29.3311 24.9558 29.4813 25.1402 29.6746 25.27C29.8678 25.3999 30.0953 25.4692 30.3281 25.4692C30.5609 25.4692 30.7885 25.3999 30.9817 25.27C31.1749 25.1402 31.3251 24.9558 31.4131 24.7402C32.0176 23.2617 33.4727 22.3438 35.2109 22.3438C36.2987 22.3438 37.342 22.7759 38.1112 23.5451C38.8804 24.3143 39.3125 25.3575 39.3125 26.4453C39.3125 29.3184 36.791 32.0869 34.6748 33.9023Z" fill="#F05537"/>
<defs>
<filter id="filter0_d_5_32" x="0.734535" y="0.739293" width="59.5319" height="59.5309" filterUnits="userSpaceOnUse" color-interpolation-filters="sRGB">
<feFlood flood-opacity="0" result="BackgroundImageFix"/>
<feColorMatrix in="SourceAlpha" type="matrix" values="0 0 0 0 0 0 0 0 0 0 0 0 0 0 0 0 0 0 127 0" result="hardAlpha"/>
<feMorphology radius="0.502379" operator="dilate" in="SourceAlpha" result="effect1_dropShadow_5_32"/>
<feOffset dy="1.00476"/>
<feGaussianBlur stdDeviation="1.38154"/>
<feComposite in2="hardAlpha" operator="out"/>
<feColorMatrix type="matrix" values="0 0 0 0 0 0 0 0 0 0 0 0 0 0 0 0 0 0 0.04 0"/>
<feBlend mode="normal" in2="BackgroundImageFix" result="effect1_dropShadow_5_32"/>
<feBlend mode="normal" in="SourceGraphic" in2="effect1_dropShadow_5_32" result="shape"/>
</filter>
</defs>
</svg>
