<svg width="61" height="61" viewBox="0 0 61 61" fill="none" xmlns="http://www.w3.org/2000/svg">
<g filter="url(#filter0_d_5_32)">
<rect x="4" y="3" width="53.001" height="53" rx="4" fill="white"/>
</g>
<path d="M44.9801 25.549L44.9803 25.5492C45.16 25.7045 45.3057 25.8989 45.406 26.1197C45.5064 26.3405 45.5588 26.5818 45.5588 26.8266C45.5588 26.8266 45.5588 26.8267 45.5588 26.8267V43.3622C45.5588 43.8102 45.384 44.2363 45.0785 44.5476C44.7737 44.8583 44.3642 45.0294 43.9412 45.0294H34.0196C33.9398 45.0294 33.8595 44.9973 33.7973 44.9339C33.7345 44.87 33.6961 44.7794 33.6961 44.6811V33.6902V32.7196H32.7255H29.2745H28.3039V33.6902V44.6811C28.3039 44.7794 28.2654 44.87 28.2027 44.9339C28.1405 44.9973 28.0602 45.0294 27.9804 45.0294H18.0588C17.6358 45.0294 17.2263 44.8583 16.9214 44.5476C16.616 44.2363 16.4412 43.8102 16.4412 43.3622V26.8266C16.4412 26.3313 16.6559 25.8637 17.0198 25.5491L17.0199 25.549L29.9604 14.36C30.2535 14.1071 30.6219 13.9706 31 13.9706C31.378 13.9706 31.7465 14.1071 32.0396 14.36L44.9801 25.549ZM31.6348 14.9028L31 14.3539L30.3652 14.9028L17.424 26.0924L17.0882 26.3827V26.8266V43.3622V44.3328H18.0588H26.6863H27.6569V43.3622V32.3713C27.6569 32.273 27.6953 32.1824 27.7581 32.1184C27.8203 32.0551 27.9006 32.023 27.9804 32.023H34.0196C34.0994 32.023 34.1797 32.0551 34.2419 32.1184C34.3047 32.1824 34.3431 32.273 34.3431 32.3713V43.3622V44.3328H35.3137H43.9412H44.9118V43.3622V26.8266V26.3827L44.576 26.0924L31.6348 14.9028Z" fill="white" stroke="#F05537" stroke-width="1.94118"/>
<defs>
<filter id="filter0_d_5_32" x="0.734535" y="0.739293" width="59.5319" height="59.5309" filterUnits="userSpaceOnUse" color-interpolation-filters="sRGB">
<feFlood flood-opacity="0" result="BackgroundImageFix"/>
<feColorMatrix in="SourceAlpha" type="matrix" values="0 0 0 0 0 0 0 0 0 0 0 0 0 0 0 0 0 0 127 0" result="hardAlpha"/>
<feMorphology radius="0.502379" operator="dilate" in="SourceAlpha" result="effect1_dropShadow_5_32"/>
<feOffset dy="1.00476"/>
<feGaussianBlur stdDeviation="1.38154"/>
<feComposite in2="hardAlpha" operator="out"/>
<feColorMatrix type="matrix" values="0 0 0 0 0 0 0 0 0 0 0 0 0 0 0 0 0 0 0.04 0"/>
<feBlend mode="normal" in2="BackgroundImageFix" result="effect1_dropShadow_5_32"/>
<feBlend mode="normal" in="SourceGraphic" in2="effect1_dropShadow_5_32" result="shape"/>
</filter>
</defs>
</svg>
