<svg width="61" height="61" viewBox="0 0 61 61" fill="none" xmlns="http://www.w3.org/2000/svg">
<g filter="url(#filter0_d_5_32)">
<rect x="4" y="3" width="53.001" height="53" rx="4" fill="white"/>
</g>
<path fill-rule="evenodd" clip-rule="evenodd" d="M18.8 20.125C18.3757 20.125 17.9687 20.2896 17.6686 20.5826C17.3686 20.8757 17.2 21.2731 17.2 21.6875V37.3125C17.2 37.7269 17.3686 38.1243 17.6686 38.4174C17.9687 38.7104 18.3757 38.875 18.8 38.875H30.272C30.6026 37.9601 31.2156 37.1679 32.0266 36.6075C32.8375 36.0471 33.8065 35.7462 34.8 35.7462C35.7935 35.7462 36.7625 36.0471 37.5734 36.6075C38.3844 37.1679 38.9974 37.9601 39.328 38.875H41.2C41.6243 38.875 42.0313 38.7104 42.3314 38.4174C42.6314 38.1243 42.8 37.7269 42.8 37.3125V21.6875C42.8 21.2731 42.6314 20.8757 42.3314 20.5826C42.0313 20.2896 41.6243 20.125 41.2 20.125H39.328C38.9974 21.0399 38.3844 21.8321 37.5734 22.3925C36.7625 22.9529 35.7935 23.2538 34.8 23.2538C33.8065 23.2538 32.8375 22.9529 32.0266 22.3925C31.2156 21.8321 30.6026 21.0399 30.272 20.125H18.8ZM14 21.6875C14 20.4443 14.5057 19.252 15.4059 18.3729C16.3061 17.4939 17.527 17 18.8 17H31.6C32.0243 17 32.4313 17.1646 32.7314 17.4576C33.0314 17.7507 33.2 18.1481 33.2 18.5625C33.2 18.9769 33.3686 19.3743 33.6686 19.6674C33.9687 19.9604 34.3757 20.125 34.8 20.125C35.2243 20.125 35.6313 19.9604 35.9314 19.6674C36.2314 19.3743 36.4 18.9769 36.4 18.5625C36.4 18.1481 36.5686 17.7507 36.8686 17.4576C37.1687 17.1646 37.5757 17 38 17H41.2C42.473 17 43.6939 17.4939 44.5941 18.3729C45.4943 19.252 46 20.4443 46 21.6875V37.3125C46 38.5557 45.4943 39.748 44.5941 40.6271C43.6939 41.5061 42.473 42 41.2 42H38C37.5757 42 37.1687 41.8354 36.8686 41.5424C36.5686 41.2493 36.4 40.8519 36.4 40.4375C36.4 40.0231 36.2314 39.6257 35.9314 39.3326C35.6313 39.0396 35.2243 38.875 34.8 38.875C34.3757 38.875 33.9687 39.0396 33.6686 39.3326C33.3686 39.6257 33.2 40.0231 33.2 40.4375C33.2 40.8519 33.0314 41.2493 32.7314 41.5424C32.4313 41.8354 32.0243 42 31.6 42H18.8C17.527 42 16.3061 41.5061 15.4059 40.6271C14.5057 39.748 14 38.5557 14 37.3125V21.6875ZM34.8 24.8125C35.2243 24.8125 35.6313 24.9771 35.9314 25.2701C36.2314 25.5632 36.4 25.9606 36.4 26.375V27.1562C36.4 27.5707 36.2314 27.9681 35.9314 28.2611C35.6313 28.5541 35.2243 28.7188 34.8 28.7188C34.3757 28.7188 33.9687 28.5541 33.6686 28.2611C33.3686 27.9681 33.2 27.5707 33.2 27.1562V26.375C33.2 25.9606 33.3686 25.5632 33.6686 25.2701C33.9687 24.9771 34.3757 24.8125 34.8 24.8125ZM36.4 31.8438C36.4 31.4293 36.2314 31.0319 35.9314 30.7389C35.6313 30.4459 35.2243 30.2812 34.8 30.2812C34.3757 30.2812 33.9687 30.4459 33.6686 30.7389C33.3686 31.0319 33.2 31.4293 33.2 31.8438V32.625C33.2 33.0394 33.3686 33.4368 33.6686 33.7299C33.9687 34.0229 34.3757 34.1875 34.8 34.1875C35.2243 34.1875 35.6313 34.0229 35.9314 33.7299C36.2314 33.4368 36.4 33.0394 36.4 32.625V31.8438Z" fill="#F05537"/>
<defs>
<filter id="filter0_d_5_32" x="0.734535" y="0.739293" width="59.5319" height="59.5309" filterUnits="userSpaceOnUse" color-interpolation-filters="sRGB">
<feFlood flood-opacity="0" result="BackgroundImageFix"/>
<feColorMatrix in="SourceAlpha" type="matrix" values="0 0 0 0 0 0 0 0 0 0 0 0 0 0 0 0 0 0 127 0" result="hardAlpha"/>
<feMorphology radius="0.502379" operator="dilate" in="SourceAlpha" result="effect1_dropShadow_5_32"/>
<feOffset dy="1.00476"/>
<feGaussianBlur stdDeviation="1.38154"/>
<feComposite in2="hardAlpha" operator="out"/>
<feColorMatrix type="matrix" values="0 0 0 0 0 0 0 0 0 0 0 0 0 0 0 0 0 0 0.04 0"/>
<feBlend mode="normal" in2="BackgroundImageFix" result="effect1_dropShadow_5_32"/>
<feBlend mode="normal" in="SourceGraphic" in2="effect1_dropShadow_5_32" result="shape"/>
</filter>
</defs>
</svg>
