<svg width="36" height="36" viewBox="0 0 36 36" fill="none" xmlns="http://www.w3.org/2000/svg">
<path d="M16.3125 18C16.3125 18.4476 16.4902 18.8768 16.8067 19.1932C17.1232 19.5097 17.5524 19.6875 18 19.6875C18.4475 19.6875 18.8767 19.5097 19.1932 19.1932C19.5097 18.8768 19.6875 18.4476 19.6875 18C19.6875 17.5524 19.5097 17.1232 19.1932 16.8068C18.8767 16.4903 18.4475 16.3125 18 16.3125C17.5524 16.3125 17.1232 16.4903 16.8067 16.8068C16.4902 17.1232 16.3125 17.5524 16.3125 18ZM23.3437 18C23.3437 18.4476 23.5215 18.8768 23.838 19.1932C24.1544 19.5097 24.5837 19.6875 25.0312 19.6875C25.4788 19.6875 25.908 19.5097 26.2244 19.1932C26.5409 18.8768 26.7187 18.4476 26.7187 18C26.7187 17.5524 26.5409 17.1232 26.2244 16.8068C25.908 16.4903 25.4788 16.3125 25.0312 16.3125C24.5837 16.3125 24.1544 16.4903 23.838 16.8068C23.5215 17.1232 23.3437 17.5524 23.3437 18ZM9.28121 18C9.28121 18.4476 9.45899 18.8768 9.77546 19.1932C10.0919 19.5097 10.5212 19.6875 10.9687 19.6875C11.4163 19.6875 11.8455 19.5097 12.1619 19.1932C12.4784 18.8768 12.6562 18.4476 12.6562 18C12.6562 17.5524 12.4784 17.1232 12.1619 16.8068C11.8455 16.4903 11.4163 16.3125 10.9687 16.3125C10.5212 16.3125 10.0919 16.4903 9.77546 16.8068C9.45899 17.1232 9.28121 17.5524 9.28121 18ZM32.5265 11.8969C31.732 10.009 30.5929 8.31445 29.141 6.85898C27.6992 5.41194 25.9876 4.26172 24.1031 3.47344C22.1695 2.66133 20.1164 2.25 18 2.25H17.9296C15.7992 2.26055 13.7355 2.68242 11.7949 3.51211C9.92652 4.30847 8.23096 5.46074 6.80269 6.90469C5.3648 8.35664 4.23628 10.0441 3.45581 11.925C2.64722 13.8727 2.23941 15.9434 2.24996 18.0738C2.26188 20.5153 2.8395 22.9208 3.93746 25.1016V30.4453C3.93746 30.8742 4.10784 31.2856 4.41112 31.5888C4.7144 31.8921 5.12574 32.0625 5.55464 32.0625H10.9019C13.0826 33.1605 15.4881 33.7381 17.9296 33.75H18.0035C20.1093 33.75 22.1519 33.3422 24.075 32.5441C25.9499 31.7653 27.6552 30.6284 29.0953 29.1973C30.5472 27.7594 31.6898 26.0789 32.4878 24.2051C33.3175 22.2645 33.7394 20.2008 33.75 18.0703C33.7605 15.9293 33.3457 13.8516 32.5265 11.8969ZM27.2144 27.2953C24.75 29.7352 21.4804 31.0781 18 31.0781H17.9402C15.8203 31.0676 13.7144 30.5402 11.8546 29.5488L11.5593 29.3906H6.60933V24.4406L6.45113 24.1453C5.45972 22.2855 4.93238 20.1797 4.92183 18.0598C4.90777 14.5547 6.24722 11.2641 8.70464 8.78555C11.1585 6.30703 14.4386 4.93594 17.9437 4.92188H18.0035C19.7613 4.92188 21.4664 5.26289 23.073 5.93789C24.641 6.59531 26.0472 7.54102 27.2566 8.75039C28.4625 9.95625 29.4117 11.366 30.0691 12.934C30.7511 14.5582 31.0921 16.2809 31.0851 18.0598C31.064 21.5613 29.6894 24.8414 27.2144 27.2953Z" fill="white"/>
</svg>
