<svg width="90" height="90" viewBox="0 0 90 90" fill="none" xmlns="http://www.w3.org/2000/svg">
<path d="M78.75 78.75H11.25V18.75C11.25 14.625 14.625 11.25 18.75 11.25H71.25C75.375 11.25 78.75 14.625 78.75 18.75V78.75Z" fill="#90CAF9"/>
<path d="M11.25 78.75H78.75V82.5H11.25V78.75Z" fill="#64B5F6"/>
<path d="M58.125 50.625H69.375V60H58.125V50.625ZM39.375 50.625H50.625V60H39.375V50.625ZM20.625 50.625H31.875V60H20.625V50.625ZM58.125 65.625H69.375V75H58.125V65.625ZM20.625 65.625H31.875V75H20.625V65.625ZM58.125 35.625H69.375V45H58.125V35.625ZM39.375 35.625H50.625V45H39.375V35.625ZM20.625 35.625H31.875V45H20.625V35.625ZM58.125 20.625H69.375V30H58.125V20.625ZM39.375 20.625H50.625V30H39.375V20.625ZM20.625 20.625H31.875V30H20.625V20.625ZM39.375 65.625H50.625V82.5H39.375V65.625Z" fill="#1565C0"/>
</svg>
