<svg width="81" height="81" viewBox="0 0 81 81" fill="none" xmlns="http://www.w3.org/2000/svg">
<g clip-path="url(#clip0_2406_10026)">
<path fill-rule="evenodd" clip-rule="evenodd" d="M40.5 6.75C21.8599 6.75 6.75 21.8599 6.75 40.5C6.75 59.1401 21.8599 74.25 40.5 74.25C59.1401 74.25 74.25 59.1401 74.25 40.5C74.25 21.8599 59.1401 6.75 40.5 6.75ZM28.6875 32.0625C28.6875 30.5113 28.993 28.9752 29.5867 27.5421C30.1803 26.1089 31.0504 24.8067 32.1473 23.7098C33.2442 22.6129 34.5464 21.7428 35.9796 21.1492C37.4127 20.5555 38.9488 20.25 40.5 20.25C42.0512 20.25 43.5873 20.5555 45.0204 21.1492C46.4536 21.7428 47.7558 22.6129 48.8527 23.7098C49.9496 24.8067 50.8197 26.1089 51.4133 27.5421C52.007 28.9752 52.3125 30.5113 52.3125 32.0625C52.3125 35.1954 51.068 38.1999 48.8527 40.4152C46.6374 42.6305 43.6329 43.875 40.5 43.875C37.3671 43.875 34.3626 42.6305 32.1473 40.4152C29.932 38.1999 28.6875 35.1954 28.6875 32.0625ZM61.6207 57.321C59.0943 60.499 55.8826 63.0651 52.2253 64.8277C48.5681 66.5903 44.5598 67.5038 40.5 67.5C36.4402 67.5038 32.4319 66.5903 28.7747 64.8277C25.1174 63.0651 21.9057 60.499 19.3793 57.321C24.8501 53.3959 32.3156 50.625 40.5 50.625C48.6844 50.625 56.1499 53.3959 61.6207 57.321Z" fill="#90CAF9"/>
</g>
<defs>
<clipPath id="clip0_2406_10026">
<rect width="81" height="81" fill="white"/>
</clipPath>
</defs>
</svg>
