<svg width="13" height="11" viewBox="0 0 13 11" fill="none" xmlns="http://www.w3.org/2000/svg">
<path d="M12.6746 6.25087C12.8735 6.05165 12.9853 5.7816 12.9853 5.50003C12.9853 5.21847 12.8735 4.94842 12.6746 4.7492L8.66823 0.740742C8.4689 0.541421 8.19857 0.429443 7.91668 0.429443C7.6348 0.429443 7.36446 0.541421 7.16514 0.740742C6.96582 0.940063 6.85384 1.2104 6.85384 1.49228C6.85384 1.77417 6.96582 2.0445 7.16514 2.24383L9.35814 4.43753L1.18752 4.43753C0.905724 4.43753 0.635473 4.54947 0.436216 4.74873C0.236958 4.94799 0.125016 5.21824 0.125016 5.50003C0.125016 5.78183 0.236958 6.05208 0.436216 6.25133C0.635473 6.45059 0.905724 6.56253 1.18752 6.56253L9.35814 6.56253L7.16514 8.75553C7.06645 8.85423 6.98816 8.97139 6.93475 9.10034C6.88133 9.22929 6.85384 9.3675 6.85384 9.50708C6.85384 9.64665 6.88133 9.78486 6.93475 9.91381C6.98816 10.0428 7.06645 10.1599 7.16514 10.2586C7.26383 10.3573 7.381 10.4356 7.50995 10.489C7.6389 10.5424 7.77711 10.5699 7.91668 10.5699C8.05626 10.5699 8.19446 10.5424 8.32341 10.489C8.45236 10.4356 8.56953 10.3573 8.66822 10.2586L12.6746 6.25087Z" fill="white"/>
</svg>
