<svg width="170" height="94" viewBox="0 0 170 94" fill="none" xmlns="http://www.w3.org/2000/svg">
<path d="M20.1332 73.0252H16.2816C16.1718 72.3936 15.9692 71.834 15.674 71.3466C15.3788 70.8523 15.0115 70.4335 14.5721 70.0902C14.1327 69.7469 13.6315 69.4895 13.0685 69.3178C12.5124 69.1393 11.9117 69.0501 11.2663 69.0501C10.1198 69.0501 9.10369 69.3384 8.21804 69.9151C7.33239 70.485 6.63897 71.3226 6.13778 72.4279C5.6366 73.5264 5.38601 74.8686 5.38601 76.4545C5.38601 78.0679 5.6366 79.4273 6.13778 80.5327C6.64583 81.6312 7.33925 82.4619 8.21804 83.0249C9.10369 83.581 10.1164 83.859 11.256 83.859C11.8877 83.859 12.4781 83.7766 13.0273 83.6119C13.5835 83.4402 14.0812 83.1896 14.5206 82.8601C14.9669 82.5305 15.341 82.1255 15.6431 81.6449C15.9521 81.1643 16.1649 80.6151 16.2816 79.9972L20.1332 80.0178C19.989 81.0201 19.6766 81.9607 19.196 82.8395C18.7223 83.7183 18.101 84.4941 17.332 85.1669C16.5631 85.8329 15.6637 86.3546 14.6339 86.7322C13.604 87.103 12.4609 87.2884 11.2045 87.2884C9.35085 87.2884 7.69626 86.8593 6.24077 86.0011C4.78527 85.1429 3.63873 83.9036 2.80114 82.2834C1.96354 80.6631 1.54474 78.7202 1.54474 76.4545C1.54474 74.1821 1.96697 72.2391 2.81143 70.6257C3.65589 69.0054 4.80587 67.7662 6.26136 66.908C7.71686 66.0498 9.36458 65.6207 11.2045 65.6207C12.3786 65.6207 13.4702 65.7855 14.4794 66.1151C15.4886 66.4446 16.388 66.9286 17.1776 67.5671C17.9671 68.1987 18.6159 68.9745 19.1239 69.8945C19.6389 70.8076 19.9753 71.8512 20.1332 73.0252ZM34.4193 80.3473V71.1818H38.1473V87H34.5326V84.1886H34.3678C34.0108 85.0742 33.4238 85.7985 32.6068 86.3615C31.7966 86.9245 30.7977 87.206 29.61 87.206C28.5733 87.206 27.6567 86.976 26.8603 86.516C26.0708 86.0491 25.4529 85.3729 25.0066 84.4872C24.5604 83.5947 24.3372 82.5168 24.3372 81.2536V71.1818H28.0652V80.6768C28.0652 81.6792 28.3398 82.4756 28.8891 83.0661C29.4383 83.6565 30.1592 83.9517 31.0517 83.9517C31.601 83.9517 32.1331 83.8178 32.648 83.5501C33.1629 83.2823 33.5851 82.8841 33.9147 82.3555C34.2511 81.82 34.4193 81.1506 34.4193 80.3473ZM46.5788 65.9091V87H42.8508V65.9091H46.5788ZM59.1811 71.1818V74.0653H50.0877V71.1818H59.1811ZM52.3327 67.392H56.0607V82.2422C56.0607 82.7434 56.1362 83.1278 56.2873 83.3956C56.4452 83.6565 56.6512 83.835 56.9052 83.9311C57.1592 84.0272 57.4407 84.0753 57.7496 84.0753C57.9831 84.0753 58.1959 84.0581 58.3881 84.0238C58.5872 83.9895 58.7383 83.9586 58.8413 83.9311L59.4695 86.8455C59.2704 86.9142 58.9854 86.9897 58.6147 87.0721C58.2508 87.1545 57.8046 87.2025 57.2759 87.2163C56.3422 87.2437 55.5012 87.103 54.7528 86.794C54.0045 86.4782 53.4106 85.9908 52.9712 85.3317C52.5387 84.6726 52.3259 83.8487 52.3327 82.8601V67.392ZM73.251 80.3473V71.1818H76.9789V87H73.3642V84.1886H73.1995C72.8425 85.0742 72.2554 85.7985 71.4385 86.3615C70.6283 86.9245 69.6294 87.206 68.4416 87.206C67.405 87.206 66.4884 86.976 65.692 86.516C64.9025 86.0491 64.2846 85.3729 63.8383 84.4872C63.392 83.5947 63.1689 82.5168 63.1689 81.2536V71.1818H66.8969V80.6768C66.8969 81.6792 67.1715 82.4756 67.7208 83.0661C68.27 83.6565 68.9909 83.9517 69.8834 83.9517C70.4327 83.9517 70.9647 83.8178 71.4796 83.5501C71.9946 83.2823 72.4168 82.8841 72.7463 82.3555C73.0827 81.82 73.251 81.1506 73.251 80.3473ZM81.6825 87V71.1818H85.2972V73.8182H85.4619C85.7503 72.9051 86.2446 72.2013 86.9449 71.707C87.6521 71.2058 88.4588 70.9553 89.365 70.9553C89.571 70.9553 89.801 70.9656 90.055 70.9861C90.3159 70.9999 90.5321 71.0239 90.7038 71.0582V74.4876C90.5459 74.4326 90.2953 74.3846 89.952 74.3434C89.6156 74.2953 89.2895 74.2713 88.9737 74.2713C88.294 74.2713 87.6829 74.4189 87.1406 74.7141C86.6051 75.0025 86.1828 75.4041 85.8739 75.919C85.5649 76.4339 85.4105 77.0278 85.4105 77.7006V87H81.6825ZM100.402 87.3089C98.8161 87.3089 97.4464 86.9794 96.293 86.3203C95.1464 85.6544 94.2642 84.7138 93.6463 83.4986C93.0284 82.2765 92.7195 80.8382 92.7195 79.1836C92.7195 77.5565 93.0284 76.1284 93.6463 74.8995C94.2711 73.6637 95.143 72.7025 96.2621 72.016C97.3812 71.3226 98.6959 70.9759 100.206 70.9759C101.181 70.9759 102.101 71.1338 102.966 71.4496C103.838 71.7585 104.607 72.2391 105.273 72.8913C105.946 73.5436 106.475 74.3743 106.859 75.3835C107.243 76.3859 107.436 77.5805 107.436 78.9673V80.1104H94.4702V77.5977H103.862C103.855 76.8836 103.701 76.2486 103.399 75.6925C103.097 75.1295 102.674 74.6867 102.132 74.364C101.597 74.0413 100.972 73.88 100.258 73.88C99.4957 73.88 98.8264 74.0653 98.2497 74.4361C97.6729 74.8 97.2233 75.2805 96.9006 75.8778C96.5848 76.4683 96.4234 77.1171 96.4166 77.8242V80.0178C96.4166 80.9377 96.5848 81.7273 96.9212 82.3864C97.2576 83.0386 97.7279 83.5398 98.332 83.8899C98.9362 84.2332 99.6434 84.4048 100.453 84.4048C100.996 84.4048 101.487 84.3293 101.926 84.1783C102.366 84.0204 102.747 83.7904 103.069 83.4883C103.392 83.1862 103.636 82.812 103.8 82.3658L107.281 82.7571C107.062 83.6771 106.643 84.4804 106.025 85.1669C105.414 85.8466 104.631 86.3752 103.677 86.7528C102.723 87.1236 101.631 87.3089 100.402 87.3089ZM134.336 73.5H131.959C131.818 72.8161 131.572 72.2152 131.22 71.6974C130.875 71.1797 130.453 70.745 129.955 70.3935C129.463 70.0355 128.916 69.767 128.315 69.5881C127.714 69.4091 127.088 69.3196 126.436 69.3196C125.247 69.3196 124.17 69.62 123.205 70.2209C122.246 70.8217 121.482 71.707 120.913 72.8768C120.351 74.0465 120.069 75.4815 120.069 77.1818C120.069 78.8821 120.351 80.3171 120.913 81.4869C121.482 82.6566 122.246 83.5419 123.205 84.1428C124.17 84.7436 125.247 85.044 126.436 85.044C127.088 85.044 127.714 84.9545 128.315 84.7756C128.916 84.5966 129.463 84.3313 129.955 83.9798C130.453 83.6218 130.875 83.1839 131.22 82.6662C131.572 82.142 131.818 81.5412 131.959 80.8636H134.336C134.157 81.8672 133.831 82.7653 133.358 83.5579C132.885 84.3505 132.297 85.0249 131.594 85.581C130.891 86.1307 130.102 86.5494 129.226 86.837C128.357 87.1246 127.427 87.2685 126.436 87.2685C124.761 87.2685 123.272 86.8594 121.968 86.0412C120.664 85.223 119.638 84.0597 118.89 82.5511C118.142 81.0426 117.768 79.2528 117.768 77.1818C117.768 75.1108 118.142 73.321 118.89 71.8125C119.638 70.304 120.664 69.1406 121.968 68.3224C123.272 67.5043 124.761 67.0952 126.436 67.0952C127.427 67.0952 128.357 67.239 129.226 67.5266C130.102 67.8143 130.891 68.2362 131.594 68.7923C132.297 69.342 132.885 70.0131 133.358 70.8058C133.831 71.592 134.157 72.4901 134.336 73.5ZM138.682 87V72.2727H140.945V87H138.682ZM139.833 69.8182C139.392 69.8182 139.011 69.668 138.692 69.3675C138.378 69.0671 138.222 68.706 138.222 68.2841C138.222 67.8622 138.378 67.5011 138.692 67.2006C139.011 66.9002 139.392 66.75 139.833 66.75C140.274 66.75 140.651 66.9002 140.964 67.2006C141.284 67.5011 141.443 67.8622 141.443 68.2841C141.443 68.706 141.284 69.0671 140.964 69.3675C140.651 69.668 140.274 69.8182 139.833 69.8182ZM152.304 72.2727V74.1903H144.672V72.2727H152.304ZM146.896 68.7443H149.159V82.7812C149.159 83.4205 149.252 83.8999 149.437 84.2195C149.629 84.5327 149.872 84.7436 150.166 84.8523C150.466 84.9545 150.783 85.0057 151.115 85.0057C151.364 85.0057 151.569 84.9929 151.729 84.9673C151.889 84.9354 152.016 84.9098 152.112 84.8906L152.573 86.9233C152.419 86.9808 152.205 87.0384 151.93 87.0959C151.655 87.1598 151.307 87.1918 150.885 87.1918C150.246 87.1918 149.619 87.0543 149.006 86.7795C148.399 86.5046 147.894 86.0859 147.491 85.5234C147.095 84.9609 146.896 84.2514 146.896 83.3949V68.7443ZM157.975 92.5227C157.592 92.5227 157.25 92.4908 156.949 92.4268C156.649 92.3693 156.441 92.3118 156.326 92.2543L156.901 90.2599C157.451 90.4006 157.937 90.4517 158.359 90.4134C158.781 90.375 159.155 90.1864 159.481 89.8477C159.813 89.5153 160.117 88.9751 160.391 88.2273L160.813 87.0767L155.367 72.2727H157.822L161.887 84.0085H162.041L166.106 72.2727H168.56L162.309 89.1477C162.028 89.9084 161.679 90.538 161.264 91.0366C160.848 91.5415 160.366 91.9155 159.816 92.1584C159.273 92.4013 158.659 92.5227 157.975 92.5227Z" fill="#151515"/>
<path d="M90.6039 52.1221L90.6039 28.6274L93.8286 30.9769C93.8286 38.0253 94.689 52.8005 93.8286 54.4716C93.0225 56.0373 89.7978 56.0379 88.1854 56.0379C87.5405 54.7848 87.9167 53.9495 88.1854 53.6884C90.1202 53.6884 90.6039 52.6442 90.6039 52.1221Z" fill="#38A4DA"/>
<path d="M97.8595 52.9053V32.5432C99.1493 32.5432 100.547 34.1095 101.084 34.8927V50.5558C101.084 51.8088 98.9344 52.6442 97.8595 52.9053Z" fill="#38A4DA"/>
<path d="M104.309 48.2063V36.459C106.244 37.0855 107.265 38.2863 107.534 38.8084V46.64C106.889 47.8931 105.115 48.2063 104.309 48.2063Z" fill="#38A4DA"/>
<path d="M108.363 36.2171L88.3806 24.9775L91.9597 23.2908C97.9544 26.6627 110.706 33.1758 111.942 34.5304C113.177 35.883 111.298 38.793 110.508 40.1983C109.126 40.1609 108.6 39.4334 108.509 39.0743C109.458 37.388 108.807 36.4668 108.363 36.2171Z" fill="#B37CE2"/>
<path d="M112.586 30.2679L95.268 20.5269C95.9004 19.4027 97.9176 18.934 98.8471 18.8403L112.169 26.3333C113.234 26.9328 112.891 29.2061 112.586 30.2679Z" fill="#B37CE2"/>
<path d="M111.751 22.3988L101.76 16.779C103.242 15.3923 104.764 15.0768 105.339 15.0923L112 18.8389C112.75 20.0004 112.147 21.6961 111.751 22.3988Z" fill="#B37CE2"/>
<path d="M81.6482 5.76902L81.8048 29.9537L78.4359 27.557C78.3889 20.3015 78.072 5.29596 78.2792 3.37227C78.5113 1.21753 82.4604 1.7328 84.137 1.72194C84.816 3.00745 84.4304 3.86988 84.1527 4.14041C82.1407 4.15345 81.6447 5.23158 81.6482 5.76902Z" fill="#FF9300"/>
<path d="M74.0981 5.01173L74.2338 25.9718C72.8925 25.9805 71.429 24.3776 70.8649 23.575L70.7604 7.45192C70.7521 6.16207 72.982 5.28769 74.0981 5.01173Z" fill="#FF9300"/>
<path d="M67.4228 9.89211L67.5011 21.9845C65.485 21.3526 64.4151 20.1233 64.1322 19.5877L64.08 11.5261C64.7423 10.232 66.5845 9.89754 67.4228 9.89211Z" fill="#FF9300"/>
<path d="M63.4672 22.1323L84.4323 33.1227L80.8385 34.8797C74.549 31.5826 61.4996 24.8599 59.8735 23.8893C58.357 22.9842 60.3473 19.5866 61.0959 18.1586C62.5135 18.1735 63.0843 18.8975 63.1924 19.2576C62.2941 20.9712 63.0013 21.8881 63.4672 22.1323Z" fill="#9FCC04"/>
<path d="M59.3996 28.1921L77.5694 37.7171C76.9705 38.8595 74.924 39.3644 73.9756 39.4741L59.9989 32.1472C58.8808 31.561 59.1335 29.2662 59.3996 28.1921Z" fill="#9FCC04"/>
<path d="M60.5982 36.1023L71.0808 41.5975C69.6234 43.018 68.0777 43.3607 67.4871 43.3545L60.4987 39.691C59.68 38.5336 60.2239 36.8163 60.5982 36.1023Z" fill="#9FCC04"/>
<path d="M68.6847 45.1433L88.3818 32.3219L88.1713 36.3067C82.2622 40.1531 70.2386 48.4785 68.4741 49.128C67.2249 49.5879 64.962 46.6046 64.0824 45.2533C64.7811 44.0289 65.6867 43.8884 66.0522 43.9711C67.1077 45.5927 68.247 45.4282 68.6847 45.1433Z" fill="#00B3A1"/>
<path d="M71.9862 51.6515L89.0571 40.5396C89.7608 41.6207 89.21 43.6465 88.8466 44.5244L75.7151 53.0719C74.6646 53.7557 72.7915 52.4099 71.9862 51.6515Z" fill="#00B3A1"/>
<path d="M79.444 54.4924L89.2926 48.0817C89.8229 50.0451 89.3732 51.5563 89.0821 52.0664L82.5163 56.3402C81.114 56.4835 79.8838 55.168 79.444 54.4924Z" fill="#00B3A1"/>
<path d="M103.663 12.8656L84.8135 25.5225L84.9008 21.5796C90.5557 17.7826 102.025 9.49126 103.75 8.9228C105.115 8.47311 107.254 11.4255 108.153 12.764C107.507 13.9745 106.627 14.1122 106.268 14.0297C105.189 12.4234 104.082 12.5844 103.663 12.8656Z" fill="#FF4A3A"/>
<path d="M100.247 6.42014L83.9104 17.3894C83.1914 16.3185 83.669 14.3146 83.9977 13.4466L96.5641 5.00866C97.5694 4.33363 99.438 5.66839 100.247 6.42014Z" fill="#FF4A3A"/>
<path d="M92.8815 3.59719L83.4567 9.92561C82.8808 7.9818 83.275 6.48713 83.5441 5.98277L89.8272 1.76382C91.1921 1.62422 92.4321 2.9279 92.8815 3.59719Z" fill="#FF4A3A"/>
</svg>
