<svg width="170" height="98" viewBox="0 0 170 98" fill="none" xmlns="http://www.w3.org/2000/svg">
<path d="M20.1332 76.3241H16.2816C16.1718 75.6925 15.9692 75.133 15.674 74.6455C15.3788 74.1512 15.0115 73.7324 14.5721 73.3891C14.1327 73.0458 13.6315 72.7884 13.0685 72.6167C12.5124 72.4382 11.9117 72.349 11.2663 72.349C10.1198 72.349 9.10369 72.6373 8.21804 73.214C7.33239 73.7839 6.63897 74.6215 6.13778 75.7268C5.6366 76.8253 5.38601 78.1675 5.38601 79.7535C5.38601 81.3669 5.6366 82.7262 6.13778 83.8316C6.64583 84.9301 7.33925 85.7608 8.21804 86.3238C9.10369 86.8799 10.1164 87.1579 11.256 87.1579C11.8877 87.1579 12.4781 87.0756 13.0273 86.9108C13.5835 86.7391 14.0812 86.4886 14.5206 86.159C14.9669 85.8295 15.341 85.4244 15.6431 84.9438C15.9521 84.4632 16.1649 83.914 16.2816 83.2961L20.1332 83.3167C19.989 84.319 19.6766 85.2596 19.196 86.1384C18.7223 87.0172 18.101 87.793 17.332 88.4658C16.5631 89.1318 15.6637 89.6536 14.6339 90.0312C13.604 90.4019 12.4609 90.5873 11.2045 90.5873C9.35085 90.5873 7.69626 90.1582 6.24077 89.3C4.78527 88.4418 3.63873 87.2026 2.80114 85.5823C1.96354 83.962 1.54474 82.0191 1.54474 79.7535C1.54474 77.481 1.96697 75.538 2.81143 73.9246C3.65589 72.3044 4.80587 71.0651 6.26136 70.2069C7.71686 69.3488 9.36458 68.9197 11.2045 68.9197C12.3786 68.9197 13.4702 69.0844 14.4794 69.414C15.4886 69.7435 16.388 70.2275 17.1776 70.866C17.9671 71.4977 18.6159 72.2735 19.1239 73.1935C19.6389 74.1066 19.9753 75.1501 20.1332 76.3241ZM34.4193 83.6462V74.4807H38.1473V90.2989H34.5326V87.4875H34.3678C34.0108 88.3731 33.4238 89.0975 32.6068 89.6604C31.7966 90.2234 30.7977 90.5049 29.61 90.5049C28.5733 90.5049 27.6567 90.2749 26.8603 89.8149C26.0708 89.348 25.4529 88.6718 25.0066 87.7861C24.5604 86.8936 24.3372 85.8157 24.3372 84.5525V74.4807H28.0652V83.9758C28.0652 84.9781 28.3398 85.7745 28.8891 86.365C29.4383 86.9554 30.1592 87.2506 31.0517 87.2506C31.601 87.2506 32.1331 87.1167 32.648 86.849C33.1629 86.5812 33.5851 86.183 33.9147 85.6544C34.2511 85.1189 34.4193 84.4495 34.4193 83.6462ZM46.5788 69.208V90.2989H42.8508V69.208H46.5788ZM59.1811 74.4807V77.3643H50.0877V74.4807H59.1811ZM52.3327 70.691H56.0607V85.5411C56.0607 86.0423 56.1362 86.4268 56.2873 86.6945C56.4452 86.9554 56.6512 87.1339 56.9052 87.23C57.1592 87.3261 57.4407 87.3742 57.7496 87.3742C57.9831 87.3742 58.1959 87.357 58.3881 87.3227C58.5872 87.2884 58.7383 87.2575 58.8413 87.23L59.4695 90.1444C59.2704 90.2131 58.9854 90.2886 58.6147 90.371C58.2508 90.4534 57.8046 90.5015 57.2759 90.5152C56.3422 90.5426 55.5012 90.4019 54.7528 90.093C54.0045 89.7771 53.4106 89.2897 52.9712 88.6306C52.5387 87.9715 52.3259 87.1476 52.3327 86.159V70.691ZM73.251 83.6462V74.4807H76.9789V90.2989H73.3642V87.4875H73.1995C72.8425 88.3731 72.2554 89.0975 71.4385 89.6604C70.6283 90.2234 69.6294 90.5049 68.4416 90.5049C67.405 90.5049 66.4884 90.2749 65.692 89.8149C64.9025 89.348 64.2846 88.6718 63.8383 87.7861C63.392 86.8936 63.1689 85.8157 63.1689 84.5525V74.4807H66.8969V83.9758C66.8969 84.9781 67.1715 85.7745 67.7208 86.365C68.27 86.9554 68.9909 87.2506 69.8834 87.2506C70.4327 87.2506 70.9647 87.1167 71.4796 86.849C71.9946 86.5812 72.4168 86.183 72.7463 85.6544C73.0827 85.1189 73.251 84.4495 73.251 83.6462ZM81.6825 90.2989V74.4807H85.2972V77.1171H85.4619C85.7503 76.204 86.2446 75.5003 86.9449 75.006C87.6521 74.5048 88.4588 74.2542 89.365 74.2542C89.571 74.2542 89.801 74.2645 90.055 74.2851C90.3159 74.2988 90.5321 74.3228 90.7038 74.3572V77.7865C90.5459 77.7316 90.2953 77.6835 89.952 77.6423C89.6156 77.5943 89.2895 77.5702 88.9737 77.5702C88.294 77.5702 87.6829 77.7178 87.1406 78.0131C86.6051 78.3014 86.1828 78.703 85.8739 79.218C85.5649 79.7329 85.4105 80.3267 85.4105 80.9996V90.2989H81.6825ZM100.402 90.6079C98.8161 90.6079 97.4464 90.2783 96.293 89.6192C95.1464 88.9533 94.2642 88.0127 93.6463 86.7975C93.0284 85.5754 92.7195 84.1371 92.7195 82.4825C92.7195 80.8554 93.0284 79.4274 93.6463 78.1984C94.2711 76.9626 95.143 76.0015 96.2621 75.3149C97.3812 74.6215 98.6959 74.2748 100.206 74.2748C101.181 74.2748 102.101 74.4327 102.966 74.7485C103.838 75.0574 104.607 75.538 105.273 76.1903C105.946 76.8425 106.475 77.6732 106.859 78.6824C107.243 79.6848 107.436 80.8794 107.436 82.2662V83.4094H94.4702V80.8966H103.862C103.855 80.1826 103.701 79.5475 103.399 78.9914C103.097 78.4284 102.674 77.9856 102.132 77.6629C101.597 77.3402 100.972 77.1789 100.258 77.1789C99.4957 77.1789 98.8264 77.3643 98.2497 77.735C97.6729 78.0989 97.2233 78.5795 96.9006 79.1768C96.5848 79.7672 96.4234 80.416 96.4166 81.1231V83.3167C96.4166 84.2367 96.5848 85.0262 96.9212 85.6853C97.2576 86.3375 97.7279 86.8387 98.332 87.1888C98.9362 87.5321 99.6434 87.7037 100.453 87.7037C100.996 87.7037 101.487 87.6282 101.926 87.4772C102.366 87.3193 102.747 87.0893 103.069 86.7872C103.392 86.4851 103.636 86.1109 103.8 85.6647L107.281 86.056C107.062 86.976 106.643 87.7793 106.025 88.4658C105.414 89.1455 104.631 89.6742 103.677 90.0518C102.723 90.4225 101.631 90.6079 100.402 90.6079ZM134.336 76.7989H131.959C131.818 76.115 131.572 75.5141 131.22 74.9964C130.875 74.4786 130.453 74.0439 129.955 73.6924C129.463 73.3344 128.916 73.066 128.315 72.887C127.714 72.708 127.088 72.6185 126.436 72.6185C125.247 72.6185 124.17 72.9189 123.205 73.5198C122.246 74.1207 121.482 75.006 120.913 76.1757C120.351 77.3454 120.069 78.7805 120.069 80.4807C120.069 82.181 120.351 83.616 120.913 84.7858C121.482 85.9555 122.246 86.8408 123.205 87.4417C124.17 88.0425 125.247 88.343 126.436 88.343C127.088 88.343 127.714 88.2535 128.315 88.0745C128.916 87.8955 129.463 87.6302 129.955 87.2787C130.453 86.9207 130.875 86.4829 131.22 85.9651C131.572 85.441 131.818 84.8401 131.959 84.1626H134.336C134.157 85.1661 133.831 86.0642 133.358 86.8568C132.885 87.6494 132.297 88.3238 131.594 88.8799C130.891 89.4296 130.102 89.8483 129.226 90.1359C128.357 90.4236 127.427 90.5674 126.436 90.5674C124.761 90.5674 123.272 90.1583 121.968 89.3401C120.664 88.5219 119.638 87.3586 118.89 85.8501C118.142 84.3415 117.768 82.5518 117.768 80.4807C117.768 78.4097 118.142 76.6199 118.89 75.1114C119.638 73.6029 120.664 72.4395 121.968 71.6214C123.272 70.8032 124.761 70.3941 126.436 70.3941C127.427 70.3941 128.357 70.5379 129.226 70.8256C130.102 71.1132 130.891 71.5351 131.594 72.0912C132.297 72.6409 132.885 73.3121 133.358 74.1047C133.831 74.8909 134.157 75.789 134.336 76.7989ZM138.682 90.2989V75.5716H140.945V90.2989H138.682ZM139.833 73.1171C139.392 73.1171 139.011 72.9669 138.692 72.6665C138.378 72.366 138.222 72.0049 138.222 71.583C138.222 71.1611 138.378 70.8 138.692 70.4996C139.011 70.1991 139.392 70.0489 139.833 70.0489C140.274 70.0489 140.651 70.1991 140.964 70.4996C141.284 70.8 141.443 71.1611 141.443 71.583C141.443 72.0049 141.284 72.366 140.964 72.6665C140.651 72.9669 140.274 73.1171 139.833 73.1171ZM152.304 75.5716V77.4893H144.672V75.5716H152.304ZM146.896 72.0432H149.159V86.0802C149.159 86.7194 149.252 87.1988 149.437 87.5184C149.629 87.8316 149.872 88.0425 150.166 88.1512C150.466 88.2535 150.783 88.3046 151.115 88.3046C151.364 88.3046 151.569 88.2918 151.729 88.2662C151.889 88.2343 152.016 88.2087 152.112 88.1895L152.573 90.2222C152.419 90.2797 152.205 90.3373 151.93 90.3948C151.655 90.4587 151.307 90.4907 150.885 90.4907C150.246 90.4907 149.619 90.3533 149.006 90.0784C148.399 89.8035 147.894 89.3849 147.491 88.8224C147.095 88.2599 146.896 87.5503 146.896 86.6938V72.0432ZM157.975 95.8216C157.592 95.8216 157.25 95.7897 156.949 95.7258C156.649 95.6682 156.441 95.6107 156.326 95.5532L156.901 93.5589C157.451 93.6995 157.937 93.7506 158.359 93.7123C158.781 93.6739 159.155 93.4854 159.481 93.1466C159.813 92.8142 160.117 92.2741 160.391 91.5262L160.813 90.3756L155.367 75.5716H157.822L161.887 87.3074H162.041L166.106 75.5716H168.56L162.309 92.4466C162.028 93.2073 161.679 93.8369 161.264 94.3355C160.848 94.8405 160.366 95.2144 159.816 95.4573C159.273 95.7002 158.659 95.8216 157.975 95.8216Z" fill="white"/>
<path d="M90.6039 55.421L90.6039 31.9263L93.8286 34.2758C93.8286 41.3242 94.689 56.0994 93.8286 57.7705C93.0225 59.3362 89.7978 59.3368 88.1854 59.3368C87.5405 58.0837 87.9167 57.2484 88.1854 56.9873C90.1202 56.9873 90.6039 55.9431 90.6039 55.421Z" fill="white"/>
<path d="M97.8595 56.2042V35.8421C99.1493 35.8421 100.547 37.4084 101.084 38.1916V53.8547C101.084 55.1077 98.9344 55.9431 97.8595 56.2042Z" fill="white"/>
<path d="M104.309 51.5052V39.7579C106.244 40.3844 107.265 41.5852 107.534 42.1073V49.9389C106.889 51.192 105.115 51.5052 104.309 51.5052Z" fill="white"/>
<path d="M108.363 39.516L88.3806 28.2764L91.9597 26.5897C97.9544 29.9616 110.706 36.4747 111.942 37.8293C113.177 39.1819 111.298 42.0919 110.508 43.4972C109.126 43.4599 108.6 42.7323 108.509 42.3732C109.458 40.6869 108.807 39.7657 108.363 39.516Z" fill="white"/>
<path d="M112.586 33.5668L95.268 23.8258C95.9004 22.7016 97.9176 22.233 98.8471 22.1392L112.169 29.6322C113.234 30.2317 112.891 32.505 112.586 33.5668Z" fill="white"/>
<path d="M111.751 25.6977L101.76 20.0779C103.242 18.6913 104.764 18.3757 105.339 18.3913L112 22.1378C112.75 23.2993 112.147 24.995 111.751 25.6977Z" fill="white"/>
<path d="M81.6482 9.06794L81.8048 33.2526L78.4359 30.8559C78.3889 23.6005 78.072 8.59488 78.2792 6.67119C78.5113 4.51645 82.4604 5.03172 84.137 5.02086C84.816 6.30637 84.4304 7.1688 84.1527 7.43933C82.1407 7.45237 81.6447 8.5305 81.6482 9.06794Z" fill="white"/>
<path d="M74.098 8.31064L74.2338 29.2707C72.8925 29.2794 71.429 27.6765 70.8649 26.874L70.7604 10.7508C70.7521 9.46099 72.982 8.5866 74.098 8.31064Z" fill="white"/>
<path d="M67.4228 13.191L67.5011 25.2834C65.485 24.6515 64.4151 23.4222 64.1322 22.8866L64.08 14.8251C64.7423 13.5309 66.5845 13.1965 67.4228 13.191Z" fill="white"/>
<path d="M63.4672 25.4312L84.4323 36.4216L80.8385 38.1786C74.549 34.8815 61.4996 28.1588 59.8735 27.1883C58.357 26.2831 60.3473 22.8855 61.0959 21.4575C62.5135 21.4724 63.0843 22.1964 63.1924 22.5565C62.2941 24.2701 63.0013 25.187 63.4672 25.4312Z" fill="white"/>
<path d="M59.3996 31.491L77.5694 41.016C76.9705 42.1584 74.924 42.6633 73.9756 42.773L59.9989 35.4461C58.8808 34.8599 59.1335 32.5651 59.3996 31.491Z" fill="white"/>
<path d="M60.5982 39.4012L71.0808 44.8964C69.6234 46.3169 68.0777 46.6596 67.4871 46.6534L60.4987 42.9899C59.68 41.8326 60.2239 40.1152 60.5982 39.4012Z" fill="white"/>
<path d="M68.6847 48.4422L88.3818 35.6209L88.1713 39.6056C82.2622 43.452 70.2386 51.7774 68.4741 52.4269C67.2249 52.8868 64.962 49.9035 64.0824 48.5522C64.7811 47.3279 65.6867 47.1873 66.0522 47.27C67.1077 48.8916 68.247 48.7271 68.6847 48.4422Z" fill="white"/>
<path d="M71.9862 54.9504L89.0571 43.8385C89.7608 44.9196 89.21 46.9455 88.8466 47.8233L75.7151 56.3708C74.6646 57.0547 72.7915 55.7088 71.9862 54.9504Z" fill="white"/>
<path d="M79.444 57.7913L89.2926 51.3806C89.8229 53.3441 89.3732 54.8552 89.0821 55.3653L82.5164 59.6391C81.114 59.7824 79.8838 58.4669 79.444 57.7913Z" fill="white"/>
<path d="M103.663 16.1646L84.8135 28.8214L84.9008 24.8786C90.5557 21.0815 102.025 12.7902 103.75 12.2217C105.115 11.772 107.254 14.7244 108.153 16.063C107.507 17.2734 106.627 17.4111 106.268 17.3286C105.189 15.7223 104.082 15.8833 103.663 16.1646Z" fill="white"/>
<path d="M100.247 9.71905L83.9104 20.6883C83.1914 19.6174 83.669 17.6136 83.9977 16.7455L96.5641 8.30757C97.5694 7.63254 99.438 8.96729 100.247 9.71905Z" fill="white"/>
<path d="M92.8815 6.89609L83.4567 13.2245C82.8808 11.2807 83.275 9.78603 83.5441 9.28167L89.8272 5.06272C91.1921 4.92312 92.4321 6.2268 92.8815 6.89609Z" fill="white"/>
</svg>
