<svg width="213" height="36" viewBox="0 0 213 36" fill="none" xmlns="http://www.w3.org/2000/svg">
<g clip-path="url(#clip0_1_2)">
<path d="M58.1332 13.0252H54.2816C54.1718 12.3936 53.9692 11.834 53.674 11.3466C53.3788 10.8523 53.0115 10.4335 52.5721 10.0902C52.1327 9.74692 51.6315 9.48946 51.0685 9.31783C50.5124 9.13932 49.9117 9.05007 49.2663 9.05007C48.1198 9.05007 47.1037 9.33842 46.218 9.91513C45.3324 10.485 44.639 11.3226 44.1378 12.4279C43.6366 13.5264 43.386 14.8686 43.386 16.4545C43.386 18.0679 43.6366 19.4273 44.1378 20.5327C44.6458 21.6312 45.3393 22.4619 46.218 23.0249C47.1037 23.581 48.1164 23.859 49.256 23.859C49.8877 23.859 50.4781 23.7766 51.0273 23.6119C51.5835 23.4402 52.0812 23.1896 52.5206 22.8601C52.9669 22.5305 53.341 22.1255 53.6431 21.6449C53.9521 21.1643 54.1649 20.6151 54.2816 19.9972L58.1332 20.0178C57.989 21.0201 57.6766 21.9607 57.196 22.8395C56.7223 23.7183 56.101 24.4941 55.332 25.1669C54.5631 25.8329 53.6637 26.3546 52.6339 26.7322C51.604 27.103 50.4609 27.2884 49.2045 27.2884C47.3509 27.2884 45.6963 26.8593 44.2408 26.0011C42.7853 25.1429 41.6387 23.9036 40.8011 22.2834C39.9635 20.6631 39.5447 18.7202 39.5447 16.4545C39.5447 14.1821 39.967 12.2391 40.8114 10.6257C41.6559 9.00545 42.8059 7.76622 44.2614 6.90802C45.7169 6.04983 47.3646 5.62074 49.2045 5.62074C50.3786 5.62074 51.4702 5.78551 52.4794 6.11506C53.4886 6.4446 54.388 6.92862 55.1776 7.56712C55.9671 8.19874 56.6159 8.97455 57.1239 9.89453C57.6389 10.8076 57.9753 11.8512 58.1332 13.0252ZM72.4193 20.3473V11.1818H76.1473V27H72.5326V24.1886H72.3678C72.0108 25.0742 71.4238 25.7985 70.6068 26.3615C69.7966 26.9245 68.7977 27.206 67.61 27.206C66.5733 27.206 65.6567 26.976 64.8603 26.516C64.0708 26.0491 63.4529 25.3729 63.0066 24.4872C62.5604 23.5947 62.3372 22.5168 62.3372 21.2536V11.1818H66.0652V20.6768C66.0652 21.6792 66.3398 22.4756 66.8891 23.0661C67.4383 23.6565 68.1592 23.9517 69.0517 23.9517C69.601 23.9517 70.1331 23.8178 70.648 23.5501C71.1629 23.2823 71.5851 22.8841 71.9147 22.3555C72.2511 21.82 72.4193 21.1506 72.4193 20.3473ZM84.5788 5.90909V27H80.8508V5.90909H84.5788ZM97.1811 11.1818V14.0653H88.0877V11.1818H97.1811ZM90.3327 7.39205H94.0607V22.2422C94.0607 22.7434 94.1362 23.1278 94.2873 23.3956C94.4452 23.6565 94.6512 23.835 94.9052 23.9311C95.1592 24.0272 95.4407 24.0753 95.7496 24.0753C95.9831 24.0753 96.1959 24.0581 96.3881 24.0238C96.5872 23.9895 96.7383 23.9586 96.8413 23.9311L97.4695 26.8455C97.2704 26.9142 96.9854 26.9897 96.6147 27.0721C96.2508 27.1545 95.8046 27.2025 95.2759 27.2163C94.3422 27.2437 93.5012 27.103 92.7528 26.794C92.0045 26.4782 91.4106 25.9908 90.9712 25.3317C90.5387 24.6726 90.3259 23.8487 90.3327 22.8601V7.39205ZM111.251 20.3473V11.1818H114.979V27H111.364V24.1886H111.199C110.842 25.0742 110.255 25.7985 109.438 26.3615C108.628 26.9245 107.629 27.206 106.442 27.206C105.405 27.206 104.488 26.976 103.692 26.516C102.902 26.0491 102.285 25.3729 101.838 24.4872C101.392 23.5947 101.169 22.5168 101.169 21.2536V11.1818H104.897V20.6768C104.897 21.6792 105.172 22.4756 105.721 23.0661C106.27 23.6565 106.991 23.9517 107.883 23.9517C108.433 23.9517 108.965 23.8178 109.48 23.5501C109.995 23.2823 110.417 22.8841 110.746 22.3555C111.083 21.82 111.251 21.1506 111.251 20.3473ZM119.682 27V11.1818H123.297V13.8182H123.462C123.75 12.9051 124.245 12.2013 124.945 11.707C125.652 11.2058 126.459 10.9553 127.365 10.9553C127.571 10.9553 127.801 10.9656 128.055 10.9861C128.316 10.9999 128.532 11.0239 128.704 11.0582V14.4876C128.546 14.4326 128.295 14.3846 127.952 14.3434C127.616 14.2953 127.289 14.2713 126.974 14.2713C126.294 14.2713 125.683 14.4189 125.141 14.7141C124.605 15.0025 124.183 15.4041 123.874 15.919C123.565 16.4339 123.41 17.0278 123.41 17.7006V27H119.682ZM138.402 27.3089C136.816 27.3089 135.446 26.9794 134.293 26.3203C133.146 25.6544 132.264 24.7138 131.646 23.4986C131.028 22.2765 130.719 20.8382 130.719 19.1836C130.719 17.5565 131.028 16.1284 131.646 14.8995C132.271 13.6637 133.143 12.7025 134.262 12.016C135.381 11.3226 136.696 10.9759 138.206 10.9759C139.181 10.9759 140.101 11.1338 140.966 11.4496C141.838 11.7585 142.607 12.2391 143.273 12.8913C143.946 13.5436 144.475 14.3743 144.859 15.3835C145.243 16.3859 145.436 17.5805 145.436 18.9673V20.1104H132.47V17.5977H141.862C141.855 16.8836 141.701 16.2486 141.399 15.6925C141.097 15.1295 140.674 14.6867 140.132 14.364C139.597 14.0413 138.972 13.88 138.258 13.88C137.496 13.88 136.826 14.0653 136.25 14.4361C135.673 14.8 135.223 15.2805 134.901 15.8778C134.585 16.4683 134.423 17.1171 134.417 17.8242V20.0178C134.417 20.9377 134.585 21.7273 134.921 22.3864C135.258 23.0386 135.728 23.5398 136.332 23.8899C136.936 24.2332 137.643 24.4048 138.453 24.4048C138.996 24.4048 139.487 24.3293 139.926 24.1783C140.366 24.0204 140.747 23.7904 141.069 23.4883C141.392 23.1862 141.636 22.812 141.8 22.3658L145.281 22.7571C145.062 23.6771 144.643 24.4804 144.025 25.1669C143.414 25.8466 142.631 26.3752 141.677 26.7528C140.723 27.1236 139.631 27.3089 138.402 27.3089ZM172.336 13.5H169.959C169.818 12.8161 169.572 12.2152 169.22 11.6974C168.875 11.1797 168.453 10.745 167.955 10.3935C167.463 10.0355 166.916 9.76705 166.315 9.58807C165.714 9.40909 165.088 9.3196 164.436 9.3196C163.247 9.3196 162.17 9.62003 161.205 10.2209C160.246 10.8217 159.482 11.707 158.913 12.8768C158.351 14.0465 158.069 15.4815 158.069 17.1818C158.069 18.8821 158.351 20.3171 158.913 21.4869C159.482 22.6566 160.246 23.5419 161.205 24.1428C162.17 24.7436 163.247 25.044 164.436 25.044C165.088 25.044 165.714 24.9545 166.315 24.7756C166.916 24.5966 167.463 24.3313 167.955 23.9798C168.453 23.6218 168.875 23.1839 169.22 22.6662C169.572 22.142 169.818 21.5412 169.959 20.8636H172.336C172.157 21.8672 171.831 22.7653 171.358 23.5579C170.885 24.3505 170.297 25.0249 169.594 25.581C168.891 26.1307 168.102 26.5494 167.226 26.837C166.357 27.1246 165.427 27.2685 164.436 27.2685C162.761 27.2685 161.272 26.8594 159.968 26.0412C158.664 25.223 157.638 24.0597 156.89 22.5511C156.142 21.0426 155.768 19.2528 155.768 17.1818C155.768 15.1108 156.142 13.321 156.89 11.8125C157.638 10.304 158.664 9.14062 159.968 8.32244C161.272 7.50426 162.761 7.09517 164.436 7.09517C165.427 7.09517 166.357 7.23899 167.226 7.52663C168.102 7.81428 168.891 8.23615 169.594 8.79226C170.297 9.34197 170.885 10.0131 171.358 10.8058C171.831 11.592 172.157 12.4901 172.336 13.5ZM176.682 27V12.2727H178.945V27H176.682ZM177.833 9.81818C177.392 9.81818 177.011 9.66797 176.692 9.36754C176.378 9.06712 176.222 8.70597 176.222 8.28409C176.222 7.86222 176.378 7.50107 176.692 7.20064C177.011 6.90021 177.392 6.75 177.833 6.75C178.274 6.75 178.651 6.90021 178.964 7.20064C179.284 7.50107 179.443 7.86222 179.443 8.28409C179.443 8.70597 179.284 9.06712 178.964 9.36754C178.651 9.66797 178.274 9.81818 177.833 9.81818ZM190.304 12.2727V14.1903H182.672V12.2727H190.304ZM184.896 8.74432H187.159V22.7812C187.159 23.4205 187.252 23.8999 187.437 24.2195C187.629 24.5327 187.872 24.7436 188.166 24.8523C188.466 24.9545 188.783 25.0057 189.115 25.0057C189.364 25.0057 189.569 24.9929 189.729 24.9673C189.889 24.9354 190.016 24.9098 190.112 24.8906L190.573 26.9233C190.419 26.9808 190.205 27.0384 189.93 27.0959C189.655 27.1598 189.307 27.1918 188.885 27.1918C188.246 27.1918 187.619 27.0543 187.006 26.7795C186.399 26.5046 185.894 26.0859 185.491 25.5234C185.095 24.9609 184.896 24.2514 184.896 23.3949V8.74432ZM195.975 32.5227C195.592 32.5227 195.25 32.4908 194.949 32.4268C194.649 32.3693 194.441 32.3118 194.326 32.2543L194.901 30.2599C195.451 30.4006 195.937 30.4517 196.359 30.4134C196.781 30.375 197.155 30.1864 197.481 29.8477C197.813 29.5153 198.117 28.9751 198.391 28.2273L198.813 27.0767L193.367 12.2727H195.822L199.887 24.0085H200.041L204.106 12.2727H206.56L200.309 29.1477C200.028 29.9084 199.679 30.538 199.264 31.0366C198.848 31.5415 198.366 31.9155 197.816 32.1584C197.273 32.4013 196.659 32.5227 195.975 32.5227Z" fill="#151515"/>
<path d="M19.5 32.5717L19.5 18L21.5 19.4572C21.5 23.8287 22.0336 32.9925 21.5 34.0289C21 35 19 35.0004 18 35.0004C17.6 34.2232 17.8333 33.7051 18 33.5432C19.2 33.5432 19.5 32.8956 19.5 32.5717Z" fill="#38A4DA"/>
<path d="M24 33.0575V20.4286C24.8 20.4286 25.6667 21.4001 26 21.8858V31.6003C26 32.3774 24.6667 32.8956 24 33.0575Z" fill="#38A4DA"/>
<path d="M28 30.1431V22.8572C29.2 23.2458 29.8333 23.9906 30 24.3144V29.1717C29.6 29.9488 28.5 30.1431 28 30.1431Z" fill="#38A4DA"/>
<path d="M30.5144 22.7072L18.121 15.7363L20.3409 14.6902C24.0589 16.7815 31.9673 20.821 32.7342 21.6611C33.5 22.5 32.3348 24.3048 31.8446 25.1764C30.9875 25.1533 30.6612 24.702 30.6052 24.4793C31.1935 23.4334 30.7898 22.8621 30.5144 22.7072Z" fill="#B37CE2"/>
<path d="M33.1336 19.0174L22.3927 12.9759C22.7849 12.2787 24.036 11.988 24.6125 11.9299L32.8748 16.5772C33.5357 16.949 33.3227 18.3589 33.1336 19.0174Z" fill="#B37CE2"/>
<path d="M32.6159 14.1369L26.4192 10.6514C27.338 9.79142 28.282 9.59571 28.6391 9.60536L32.7702 11.929C33.2351 12.6494 32.861 13.7011 32.6159 14.1369Z" fill="#B37CE2"/>
<path d="M13.9455 3.8229L14.0427 18.8226L11.9532 17.3361C11.9241 12.8362 11.7275 3.5295 11.856 2.3364C12 1 14.4493 1.31958 15.4891 1.31284C15.9103 2.11013 15.6711 2.64503 15.4989 2.81281C14.251 2.8209 13.9434 3.48957 13.9455 3.8229Z" fill="#FF9300"/>
<path d="M9.26283 3.35321L9.34704 16.3529C8.51514 16.3583 7.60743 15.3642 7.25756 14.8664L7.19279 4.86666C7.18761 4.06667 8.57066 3.52437 9.26283 3.35321Z" fill="#FF9300"/>
<path d="M5.12275 6.3801L5.17133 13.8799C3.92088 13.488 3.25733 12.7256 3.08185 12.3934L3.04947 7.39355C3.46024 6.59087 4.60281 6.38346 5.12275 6.3801Z" fill="#FF9300"/>
<path d="M2.66942 13.9717L15.6723 20.788L13.4434 21.8778C9.54253 19.8328 1.44906 15.6633 0.440552 15.0614C-0.500001 14.5 0.734432 12.3928 1.19873 11.5071C2.07793 11.5163 2.43192 11.9654 2.49901 12.1887C1.94186 13.2515 2.38047 13.8202 2.66942 13.9717Z" fill="#9FCC04"/>
<path d="M0.146678 17.73L11.4158 23.6375C11.0444 24.3461 9.77512 24.6593 9.18692 24.7273L0.518373 20.183C-0.175112 19.8195 -0.0183753 18.3962 0.146678 17.73Z" fill="#9FCC04"/>
<path d="M0.890066 22.636L7.39148 26.0442C6.48758 26.9253 5.52894 27.1378 5.16261 27.1339L0.828333 24.8618C0.320566 24.144 0.657919 23.0789 0.890066 22.636Z" fill="#9FCC04"/>
<path d="M5.90537 28.2434L18.1218 20.2914L17.9913 22.7628C14.3263 25.1484 6.86912 30.3119 5.77479 30.7148C5 31 3.59653 29.1497 3.051 28.3116C3.48433 27.5522 4.04598 27.4651 4.27264 27.5164C4.92728 28.5221 5.6339 28.4201 5.90537 28.2434Z" fill="#00B3A1"/>
<path d="M7.95305 32.2799L18.5406 25.3881C18.9771 26.0586 18.6354 27.3151 18.4101 27.8595L10.2658 33.1608C9.61422 33.5849 8.45248 32.7502 7.95305 32.2799Z" fill="#00B3A1"/>
<path d="M12.5785 34.0418L18.6867 30.0658C19.0156 31.2836 18.7367 32.2208 18.5561 32.5372L14.484 35.1879C13.6142 35.2767 12.8512 34.4609 12.5785 34.0418Z" fill="#00B3A1"/>
<path d="M27.5994 8.22431L15.9087 16.0743L15.9628 13.6289C19.4701 11.2739 26.5836 6.13147 27.6536 5.77891C28.5 5.5 29.8266 7.33109 30.3841 8.1613C29.9835 8.91205 29.4378 8.99744 29.215 8.9463C28.546 7.95005 27.8592 8.04987 27.5994 8.22431Z" fill="#FF4A3A"/>
<path d="M25.4806 4.22672L15.3486 11.03C14.9026 10.3659 15.1989 9.12301 15.4027 8.58461L23.1966 3.35131C23.8201 2.93264 24.979 3.76048 25.4806 4.22672Z" fill="#FF4A3A"/>
<path d="M20.9126 2.47589L15.0672 6.40087C14.71 5.19529 14.9545 4.26827 15.1214 3.95546L19.0183 1.33881C19.8648 1.25223 20.6339 2.06079 20.9126 2.47589Z" fill="#FF4A3A"/>
</g>
<defs>
<clipPath id="clip0_1_2">
<rect width="213" height="36" fill="white"/>
</clipPath>
</defs>
</svg>
