<svg width="23" height="23" viewBox="0 0 23 23" fill="none" xmlns="http://www.w3.org/2000/svg">
<path d="M14.354 4.39606C13.7023 3.73231 12.9256 3.20425 12.0688 2.84237C11.2119 2.4805 10.2918 2.29198 9.3616 2.28771C8.43144 2.28343 7.50965 2.46349 6.64947 2.81747C5.78929 3.17146 5.00777 3.69236 4.35004 4.35009C3.69231 5.00782 3.17141 5.78934 2.81742 6.64952C2.46344 7.5097 2.28338 8.43149 2.28766 9.36165C2.29193 10.2918 2.48045 11.2119 2.84232 12.0688C3.2042 12.9257 3.73226 13.7024 4.39601 14.3541C5.72065 15.6546 7.50527 16.3794 9.3616 16.3709C11.2179 16.3624 12.9958 15.6212 14.3085 14.3085C15.6211 12.9959 16.3623 11.218 16.3708 9.36165C16.3794 7.50532 15.6545 5.72071 14.354 4.39606ZM2.86417 2.86422C4.52473 1.20408 6.75675 0.241012 9.10383 0.171956C11.4509 0.1029 13.7357 0.933074 15.491 2.49271C17.2463 4.05235 18.3394 6.22363 18.5469 8.56253C18.7545 10.9014 18.0606 13.2312 16.6073 15.0756L22.3978 20.866L20.8659 22.3978L15.0755 16.6074C13.2306 18.0553 10.9028 18.7448 8.5669 18.5353C6.23103 18.3257 4.0631 17.2329 2.50535 15.4798C0.947592 13.7266 0.117376 11.4452 0.184055 9.10086C0.250734 6.75656 1.20928 4.52601 2.86417 2.86422Z" fill="#14163C"/>
</svg>
