<svg width="20" height="16" viewBox="0 0 20 16" fill="none" xmlns="http://www.w3.org/2000/svg">
<path fill-rule="evenodd" clip-rule="evenodd" d="M9 0C8.75507 3.23106e-05 8.51866 0.089956 8.33563 0.252715C8.15259 0.415474 8.03566 0.639749 8.007 0.883L8 1C7.99972 1.25488 7.90212 1.50003 7.72715 1.68537C7.55218 1.8707 7.31305 1.98223 7.05861 1.99717C6.80416 2.01211 6.55362 1.92933 6.35817 1.76574C6.16271 1.60214 6.0371 1.3701 6.007 1.117L6 1C6 0.734784 5.89464 0.48043 5.70711 0.292893C5.51957 0.105357 5.26522 0 5 0H3C2.20435 0 1.44129 0.316071 0.878679 0.87868C0.316071 1.44129 0 2.20435 0 3V13C0 13.7956 0.316071 14.5587 0.878679 15.1213C1.44129 15.6839 2.20435 16 3 16H5C5.24493 16 5.48134 15.91 5.66437 15.7473C5.84741 15.5845 5.96434 15.3603 5.993 15.117L6 15C6.00028 14.7451 6.09788 14.5 6.27285 14.3146C6.44782 14.1293 6.68695 14.0178 6.94139 14.0028C7.19584 13.9879 7.44638 14.0707 7.64183 14.2343C7.83729 14.3979 7.9629 14.6299 7.993 14.883L8 15C8 15.2652 8.10536 15.5196 8.29289 15.7071C8.48043 15.8946 8.73478 16 9 16H17C17.7956 16 18.5587 15.6839 19.1213 15.1213C19.6839 14.5587 20 13.7956 20 13V3C20 2.20435 19.6839 1.44129 19.1213 0.87868C18.5587 0.316071 17.7956 0 17 0H9ZM7 9C7.26522 9 7.51957 9.10536 7.70711 9.29289C7.89464 9.48043 8 9.73478 8 10V11C8 11.2652 7.89464 11.5196 7.70711 11.7071C7.51957 11.8946 7.26522 12 7 12C6.73478 12 6.48043 11.8946 6.29289 11.7071C6.10536 11.5196 6 11.2652 6 11V10C6 9.73478 6.10536 9.48043 6.29289 9.29289C6.48043 9.10536 6.73478 9 7 9ZM7 4C7.24493 4.00003 7.48134 4.08996 7.66437 4.25272C7.84741 4.41547 7.96434 4.63975 7.993 4.883L8 5V6C7.99972 6.25488 7.90212 6.50003 7.72715 6.68537C7.55218 6.8707 7.31305 6.98224 7.05861 6.99717C6.80416 7.01211 6.55362 6.92933 6.35817 6.76574C6.16271 6.60215 6.0371 6.3701 6.007 6.117L6 6V5C6 4.73478 6.10536 4.48043 6.29289 4.29289C6.48043 4.10536 6.73478 4 7 4Z" fill="#A1A2B1"/>
</svg>
