<svg width="30" height="30" viewBox="0 0 30 30" fill="none" xmlns="http://www.w3.org/2000/svg">
<path d="M19.386 6.364C18.5338 5.49602 17.5181 4.80548 16.3976 4.33226C15.277 3.85904 14.0738 3.61251 12.8575 3.60693C11.6411 3.60134 10.4357 3.83679 9.31084 4.2997C8.18599 4.7626 7.164 5.44378 6.30389 6.30389C5.44378 7.16399 4.7626 8.18599 4.2997 9.31084C3.8368 10.4357 3.60134 11.6411 3.60693 12.8575C3.61252 14.0738 3.85904 15.277 4.33226 16.3976C4.80549 17.5181 5.49603 18.5338 6.364 19.386C8.09623 21.0867 10.43 22.0346 12.8575 22.0234C15.285 22.0122 17.6099 21.043 19.3264 19.3264C21.043 17.6099 22.0122 15.285 22.0234 12.8575C22.0346 10.43 21.0867 8.09623 19.386 6.364ZM4.36083 4.36083C6.53233 2.18988 9.45114 0.930479 12.5204 0.840175C15.5896 0.749871 18.5774 1.83548 20.8728 3.87501C23.1682 5.91454 24.5977 8.7539 24.8691 11.8125C25.1404 14.871 24.2331 17.9177 22.3327 20.3295L29.9048 27.9016L27.9016 29.9047L20.3295 22.3327C17.9169 24.2261 14.8728 25.1278 11.8183 24.8538C8.76365 24.5797 5.92867 23.1507 3.8916 20.8581C1.85454 18.5655 0.76887 15.5821 0.856066 12.5164C0.943262 9.45081 2.19675 6.53394 4.36083 4.36083Z" fill="white"/>
</svg>
