<svg width="29" height="23" viewBox="0 0 29 23" fill="none" xmlns="http://www.w3.org/2000/svg">
<path d="M28.5469 17.1176H24.2941L23.3798 22.4118L20.4263 17.1176H9.23242V14.0902H20.7363V4.58435H28.5469V17.1176ZM19.7676 0.588257V13.1215H8.57428L5.62019 18.4175L4.70533 13.1215H0.453125V0.588257H19.7676ZM7.27821 9.03721C7.27821 8.42333 6.53609 8.11605 6.10209 8.55005C5.66809 8.98405 5.97536 9.72623 6.58925 9.72623C6.96979 9.72623 7.27827 9.41775 7.27827 9.03721H7.27821ZM10.9682 9.03721C10.9641 8.42448 10.2223 8.12162 9.79048 8.55629C9.35872 8.99101 9.66654 9.73083 10.2793 9.73083C10.6616 9.73083 10.9708 9.41956 10.9682 9.03721ZM14.6583 9.03721C14.6583 8.42333 13.9161 8.11605 13.4821 8.55005C13.0481 8.98405 13.3554 9.72623 13.9693 9.72623C14.3498 9.72623 14.6583 9.41775 14.6583 9.03721Z" fill="#F05537"/>
</svg>
