<svg width="446" height="446" viewBox="0 0 446 446" fill="none" xmlns="http://www.w3.org/2000/svg">
<path d="M324.991 99.1977L325.422 102.509L320.46 103.536L319.799 110.59H325.743L333.649 109.828L337.731 104.976L333.392 103.289L331.017 100.555L327.449 94.7767L325.743 86.6043L319.038 87.9709L317.158 90.851V94.098L320.386 96.3085L324.991 99.1977Z" fill="#F05537"/>
<path d="M319.276 101.913L319.634 97.4917L315.699 95.7948L310.196 97.0698L306.114 103.619V107.866H310.875L319.276 101.913Z" fill="#F05537"/>
<path d="M205.999 120.688L204.789 123.807H198.927V126.834H200.322C200.322 126.834 200.404 127.476 200.523 128.32L204.119 128.017L206.366 126.623L206.953 123.807L209.861 123.559L211.007 121.193L208.338 120.642L205.999 120.688Z" fill="#F05537"/>
<path d="M190.893 126.182L190.663 129.145L194.91 128.787L195.35 125.816L192.8 123.807L190.893 126.182Z" fill="#F05537"/>
<path d="M445.945 220.693C445.881 214.172 445.551 207.696 444.936 201.321C442.872 180.069 437.791 159.698 430.178 140.601C429.609 139.18 429.086 137.739 428.481 136.336C418.337 112.369 404.092 90.5483 386.656 71.7177C385.509 70.4886 384.344 69.2779 383.179 68.0855C379.887 64.6643 376.502 61.3256 372.998 58.1245C333.356 22.0317 280.707 0 222.995 0C164.798 0 111.773 22.4261 72.0204 59.0692C62.7564 67.6086 54.2446 76.9276 46.5216 86.9069C17.3906 124.586 0 171.787 0 222.995C0 345.968 100.042 446 223.005 446C309.499 446 384.592 396.47 421.556 324.303C429.462 308.875 435.617 292.429 439.763 275.195C440.818 270.819 441.726 266.426 442.515 261.977C444.762 249.311 445.991 236.286 445.991 222.995C446 222.225 445.954 221.464 445.945 220.693ZM403.973 131.567L405.266 130.117C406.963 133.41 408.55 136.758 410.063 140.152L407.954 140.069L403.973 140.62V131.567ZM371.751 92.6579L371.787 82.6969C375.291 86.4116 378.667 90.2365 381.895 94.1989L377.878 100.179L363.835 100.051L362.955 97.1248L371.751 92.6579ZM102.747 67.9021V67.526H107.214L107.6 65.9942H114.91V69.1862L112.809 71.9929H102.738L102.747 67.9021ZM109.883 77.8539C109.883 77.8539 114.35 77.0926 114.736 77.0926C115.121 77.0926 114.736 81.5504 114.736 81.5504L104.664 82.1832L102.747 79.8902L109.883 77.8539ZM418.181 166.375H401.863L391.92 158.973L381.455 159.991V166.375H378.144L374.567 163.825L356.442 159.23V147.49L333.475 149.278L326.357 153.103H317.24L312.773 152.654L301.702 158.799V170.365L279.074 186.692L280.955 193.663H285.541L284.339 200.303L281.111 201.487L280.936 218.84L300.492 241.111H309.003L309.517 239.753H324.816L329.228 235.671H337.905L342.666 240.441L355.598 241.78L353.883 258.978L368.238 284.321L360.68 298.767L361.194 305.573L367.146 311.508V327.871L374.961 338.382V351.975H381.712C344.142 398.103 286.963 427.646 222.986 427.646C110.149 427.656 18.3445 335.841 18.3445 222.995C18.3445 194.589 24.178 167.513 34.6802 142.903V136.52L41.9997 127.632C44.5404 122.835 47.2645 118.157 50.1721 113.598L50.5023 117.313L41.9997 127.632C39.3672 132.603 36.9183 137.684 34.6894 142.903V154.552L43.1921 158.643V174.832L51.3462 188.746L57.9777 189.764L58.8307 184.995L51.0068 172.924L49.475 161.193H54.0612L55.9965 173.264L67.3059 189.764L64.3891 195.093L71.5801 206.091L89.4385 210.512V207.623L96.5836 208.641L95.9049 213.741L101.518 214.768L110.186 217.134L122.431 231.085L138.07 232.269L139.601 245.027L128.897 252.512L128.393 263.904L126.861 270.874L142.344 290.255L143.527 296.896C143.527 296.896 149.141 298.419 149.828 298.419C150.507 298.419 162.413 307.435 162.413 307.435V342.464L166.66 343.656L163.77 359.818L170.915 369.348L169.595 385.362L179.033 401.955L191.149 412.54L203.33 412.76L204.523 408.843L195.57 401.304L196.084 397.561L197.689 392.975L198.029 388.297L191.975 388.114L188.921 384.28L193.947 379.446L194.626 375.796L189.012 374.191L189.342 370.797L197.341 369.586L209.503 363.743L213.585 356.259L226.343 339.932L223.445 327.164L227.361 320.368L239.093 320.726L246.99 314.47L249.54 289.834L258.299 278.708L259.831 271.562L251.842 269.003L246.568 260.354L228.545 260.17L214.254 254.722L213.576 244.532L208.806 236.194L195.882 236.002L188.416 224.28L181.785 221.042L181.445 224.619L169.375 225.334L164.953 219.18L152.36 216.621L141.986 228.609L125.66 225.839L124.476 207.439L112.562 205.403L117.34 196.378L115.974 191.195L100.317 201.661L90.4658 200.459L86.9528 192.764L89.0991 184.83L94.5291 174.823L107.031 168.494L131.172 168.485L131.108 175.85L139.785 179.886L139.097 167.302L145.352 161.009L157.973 152.718L158.836 146.884L171.42 133.786L184.802 126.375L183.619 125.403L192.681 116.873L196.002 117.753L197.524 119.661L200.964 115.845L201.808 115.469L198.038 114.937L194.213 113.662V109.993L196.24 108.333H200.707L202.752 109.232L204.523 112.809L206.687 112.479V112.167L207.311 112.378L213.585 111.415L214.474 108.352L218.052 109.251V112.571L214.731 114.855H214.74L215.227 118.496L226.591 122C226.591 122 226.6 122.046 226.618 122.138L229.233 121.917L229.407 116.992L220.4 112.892L219.886 110.525L227.361 107.976L227.692 100.821L219.877 96.0608L219.363 83.9993L208.65 89.2642H204.743L205.77 80.0828L191.186 76.6432L185.151 81.2018V95.1069L174.3 98.5465L169.952 107.609L165.238 108.37V96.7763L155.038 95.3637L149.939 92.0434L147.884 84.5313L166.128 73.8548L175.052 71.1399L175.951 77.1385L180.922 76.8817L181.308 73.864L186.508 73.1211L186.6 72.0663L184.362 71.1399L183.848 67.9479L190.241 67.4068L194.103 63.3893L194.314 63.0958L194.36 63.1142L195.534 61.9034L208.971 60.2066L214.915 65.2513L199.331 73.5522L219.161 78.23L221.73 71.5985H230.397L233.461 65.82L227.334 64.2882V56.9779L208.118 48.4661L194.855 49.9979L187.37 53.9144L187.884 63.4352L180.06 62.2428L178.859 56.9779L186.352 50.1721L172.75 49.4934L168.843 50.6766L167.146 55.2627L172.245 56.1249L171.227 61.2247L162.56 61.7383L161.202 65.132L148.627 65.4806C148.627 65.4806 148.278 58.3446 147.774 58.3446C147.269 58.3446 157.634 58.1703 157.634 58.1703L165.128 50.8509L161.037 48.8055L155.598 54.0887L146.572 53.575L141.133 46.0905H129.567L117.496 55.1068H128.558L129.567 58.3446L126.696 61.0137L138.941 61.3531L140.812 65.7741L127.026 65.2605L126.357 61.8576L117.689 59.9864L113.094 57.4365L102.775 57.5191C136.556 32.91 178.097 18.3445 222.995 18.3445C274.745 18.3445 322.028 37.6887 358.102 69.4705L355.672 73.8182L346.234 77.5146L342.253 81.8347L343.17 86.8702L348.041 87.549L350.976 94.8868L359.377 91.5022L360.762 101.317H358.231L351.333 100.298L343.684 101.583L336.282 112.039L325.697 113.699L324.165 122.761L328.632 123.816L327.339 129.64L316.827 127.531L307.187 129.64L305.142 135.006L306.811 146.27L312.471 148.92L321.964 148.865L328.375 148.288L330.329 143.188L340.345 130.172L346.94 131.521L353.434 125.65L354.645 130.237L370.623 141.014L368.669 143.637L361.469 143.252L364.239 147.178L368.669 148.15L373.86 145.985L373.75 139.73L376.053 138.574L374.2 136.611L363.542 130.668L360.735 122.77H369.595L372.429 125.577L380.061 132.154L380.382 140.106L388.288 148.526L391.233 136.987L396.708 133.997L397.736 143.435L403.083 149.306L413.75 149.122C415.814 154.433 417.667 159.835 419.29 165.348L418.181 166.375ZM121.633 101.317L126.99 98.7666L131.833 99.9223L130.163 106.425L124.935 108.086L121.633 101.317ZM150.058 116.625V120.835H137.822L133.236 119.56L134.382 116.625L140.262 114.194H148.297V116.625H150.058ZM155.69 122.495V126.577L152.626 128.549L148.81 129.255C148.81 129.255 148.81 123.137 148.81 122.495H155.69ZM152.241 120.835V115.983L156.451 119.817L152.241 120.835ZM154.158 130.649V134.621L151.232 137.556H144.729L145.747 133.098L148.82 132.832L149.452 131.301L154.158 130.649ZM137.96 122.495H144.72L136.052 134.612L132.475 132.695L133.245 127.595L137.96 122.495ZM165.641 129.255V133.218H159.138L157.359 130.649V126.962H157.873L165.641 129.255ZM159.634 123.807L161.486 121.862L164.614 123.807L162.11 125.871L159.634 123.807ZM421.501 176.703L422.143 175.951C422.409 177.107 422.693 178.262 422.95 179.436L421.501 176.703Z" fill="#F05537"/>
<path d="M34.6894 136.52V142.903C36.9182 137.694 39.3764 132.612 42.0088 127.632L34.6894 136.52Z" fill="#F05537"/>
</svg>
