<svg width="26" height="26" viewBox="0 0 26 26" fill="none" xmlns="http://www.w3.org/2000/svg">
<g clip-path="url(#clip0_122_7925)">
<path d="M9.05735 0.855259C6.45954 1.75646 4.2192 3.46697 2.66539 5.73554C1.11158 8.00412 0.326205 10.7112 0.424621 13.4591C0.523037 16.207 1.50006 18.851 3.21218 21.0026C4.92429 23.1542 7.28126 24.7 9.93688 25.4131C12.0898 25.9686 14.3455 25.993 16.51 25.4842C18.4708 25.0437 20.2836 24.1016 21.7709 22.7501C23.3189 21.3005 24.4425 19.4564 25.0209 17.416C25.6494 15.1972 25.7613 12.8639 25.348 10.5951H13.258V15.6103H20.2597C20.1198 16.4101 19.8199 17.1736 19.378 17.8549C18.9362 18.5361 18.3614 19.1213 17.6881 19.5753C16.8333 20.141 15.8694 20.5216 14.8586 20.6924C13.8449 20.881 12.8051 20.881 11.7914 20.6924C10.7639 20.4803 9.79193 20.0562 8.9375 19.4473C7.56468 18.4755 6.53388 17.0949 5.99219 15.5026C5.4415 13.8804 5.4415 12.1218 5.99219 10.4996C6.37778 9.36257 7.0152 8.32728 7.85688 7.47104C8.82008 6.47318 10.0395 5.75991 11.3814 5.40948C12.7233 5.05904 14.1358 5.08499 15.4639 5.48448C16.5015 5.80282 17.4503 6.35929 18.2345 7.10948C19.024 6.32406 19.8121 5.53661 20.5989 4.74713C21.0052 4.3226 21.448 3.91838 21.8481 3.4837C20.6508 2.36959 19.2454 1.50263 17.7125 0.932447C14.921 -0.0811677 11.8665 -0.108408 9.05735 0.855259Z" fill="white"/>
<path d="M9.05736 0.85527C11.8663 -0.109052 14.9207 -0.0825291 17.7125 0.930426C19.2457 1.50448 20.6504 2.37562 21.8461 3.49386C21.4399 3.92855 21.0113 4.3348 20.5969 4.7573C19.8088 5.54407 19.0213 6.32813 18.2345 7.10949C17.4503 6.3593 16.5015 5.80283 15.4639 5.48449C14.1362 5.0836 12.7238 5.05615 11.3816 5.40515C10.0393 5.75415 8.81912 6.46611 7.85486 7.46293C7.01318 8.31917 6.37575 9.35446 5.99017 10.4915L1.77939 7.23136C3.28659 4.2425 5.89622 1.95626 9.05736 0.85527Z" fill="#E33629"/>
<path d="M0.662178 10.4611C0.888337 9.33942 1.26409 8.25315 1.77937 7.23145L5.99015 10.4997C5.43945 12.1219 5.43945 13.8805 5.99015 15.5027C4.58723 16.586 3.18364 17.6748 1.77937 18.7689C0.489828 16.2021 0.0965413 13.2775 0.662178 10.4611Z" fill="#F8BD00"/>
<path d="M13.258 10.5928H25.348C25.7613 12.8616 25.6494 15.1949 25.0209 17.4137C24.4425 19.4541 23.3189 21.2982 21.7709 22.7478C20.412 21.6875 19.047 20.6353 17.6881 19.575C18.3618 19.1205 18.9369 18.5347 19.3788 17.8527C19.8206 17.1707 20.1203 16.4065 20.2597 15.6059H13.258C13.2559 13.9362 13.258 12.2645 13.258 10.5928Z" fill="#587DBD"/>
<path d="M1.77734 18.7687C3.18161 17.6854 4.58521 16.5966 5.98812 15.5024C6.53089 17.0953 7.56317 18.476 8.9375 19.4471C9.79459 20.0532 10.7687 20.4738 11.7975 20.6821C12.8112 20.8707 13.851 20.8707 14.8647 20.6821C15.8755 20.5113 16.8393 20.1307 17.6942 19.5649C19.0531 20.6253 20.4181 21.6774 21.777 22.7378C20.2899 24.09 18.4771 25.0328 16.5161 25.4738C14.3516 25.9827 12.0959 25.9583 9.94297 25.4028C8.24018 24.9481 6.64965 24.1466 5.27109 23.0485C3.8121 21.89 2.62038 20.4301 1.77734 18.7687Z" fill="#319F43"/>
</g>
<defs>
<clipPath id="clip0_122_7925">
<rect width="26" height="26" fill="white"/>
</clipPath>
</defs>
</svg>
