<svg width="499" height="499" viewBox="0 0 499 499" fill="none" xmlns="http://www.w3.org/2000/svg">
<g clip-path="url(#clip0_909_11131)">
<path d="M498.527 249.263C498.56 277.648 493.733 305.829 484.258 332.586C484.216 332.71 484.175 332.823 484.127 332.947V332.953C477.031 352.859 467.421 371.777 455.53 389.247C453.47 392.291 451.336 395.284 449.13 398.229C446.702 401.485 444.198 404.677 441.616 407.803C439.236 410.686 436.793 413.514 434.287 416.287C431.308 419.591 428.242 422.81 425.086 425.944C417.659 433.341 409.772 440.262 401.474 446.667C400.017 447.797 398.545 448.909 397.057 450C393.593 452.558 390.061 455.025 386.459 457.401C378.536 462.638 370.319 467.414 361.846 471.705C360.384 472.451 358.91 473.186 357.429 473.896C351.706 476.661 345.864 479.205 339.904 481.528C338.205 482.197 336.5 482.842 334.777 483.464C334.487 483.576 334.196 483.683 333.9 483.784C313.47 491.158 292.158 495.812 270.513 497.626C269.009 497.763 267.503 497.877 265.995 497.97C264.397 498.082 262.796 498.173 261.194 498.242C259.927 498.307 258.666 498.355 257.393 498.39C257.132 498.402 256.866 498.414 256.605 498.414C254.894 498.467 253.177 498.501 251.454 498.515C250.726 498.52 249.998 498.526 249.263 498.526C248.92 498.526 248.577 498.526 248.233 498.52C243.266 498.503 238.336 498.341 233.443 498.035C233.343 498.029 233.242 498.017 233.141 498.017C231.389 497.899 229.642 497.774 227.901 497.62C221.702 497.099 215.57 496.35 209.506 495.371C208.108 495.152 206.715 494.915 205.326 494.66C199.292 493.594 193.338 492.31 187.463 490.806C185.716 490.362 183.979 489.898 182.253 489.414C158.244 482.726 135.381 472.454 114.436 458.946C110.837 456.631 107.304 454.223 103.838 451.723C103.412 451.427 102.992 451.119 102.571 450.811C94.1528 444.673 86.1264 438.015 78.5389 430.876C74.945 427.501 71.4557 424.02 68.071 420.432C24.2737 374.214 -0.0950236 312.937 0.000278481 249.263C0.000278481 111.6 111.6 0 249.263 0C386.927 0 498.527 111.6 498.527 249.263Z" fill="#F2F2F2"/>
<path d="M279.673 63.5461C284.663 55.292 290.577 46.4784 299.839 43.7833C310.565 40.6619 321.583 46.8621 330.928 52.9812C358.877 71.2803 385.793 91.1114 411.551 112.383L411.523 112.704L351.36 108.555C336.871 107.556 321.885 106.419 309.08 99.5644C304.221 96.9634 299.485 93.4891 293.979 93.247C287.139 92.9462 281.174 97.7236 276.487 102.715C248.761 132.24 240.738 177.391 209.631 203.331C229.246 154.958 252.667 108.216 279.673 63.5461H279.673Z" fill="white"/>
<path d="M109.241 313.972C112.308 310.101 113.561 309.193 116.583 305.286C141.211 273.436 164.359 240.51 186.025 206.508C200.742 183.415 214.729 159.879 227.987 135.899C234.299 124.499 240.436 113.009 246.401 101.429C251.033 92.4512 255.56 83.4193 259.98 74.3337C261.245 71.7386 262.474 69.1317 263.697 66.5183C266.579 60.3738 269.406 54.1996 272.442 48.138C275.902 41.2296 280.114 33.9874 286.467 29.3461C289.359 27.1471 292.817 25.8166 296.436 25.5101C301.609 25.1761 306.383 27.3118 310.867 29.6445C343.69 46.7596 374.418 68.2182 402.212 92.6353C430.077 117.108 454.984 144.757 476.425 175.017C477.081 175.954 478.632 175.059 477.97 174.116C475.365 170.429 472.706 166.782 469.994 163.175C447.501 133.24 421.561 106.058 392.709 82.1905C378.425 70.3717 363.468 59.3905 347.913 49.302C339.997 44.1707 331.931 39.2809 323.717 34.6328C319.576 32.2881 315.418 29.9737 311.189 27.802C307.044 25.6705 302.64 23.7575 297.903 23.6859C281.784 23.4355 273.438 41.6903 267.708 53.9734C265.906 57.8393 264.083 61.6931 262.237 65.5349C255.264 80.1208 248.021 94.5735 240.508 108.893C235.873 117.735 231.137 126.524 226.299 135.261C211.241 162.47 195.238 189.128 178.287 215.236C155.835 249.818 133.557 280.368 107.977 312.707C107.273 313.603 108.531 314.879 109.241 313.972Z" fill="white"/>
<path d="M198.454 168.81L174.439 160.026L162.515 155.664C158.631 154.243 154.759 152.627 150.743 151.61C147.193 150.711 143.587 150.564 140.085 151.746C136.998 152.888 134.171 154.64 131.774 156.897C129.326 159.152 127.047 161.587 124.958 164.179C122.362 167.299 119.807 170.452 117.235 173.593C106.632 186.561 96.0973 199.585 85.6322 212.665C75.1671 225.745 64.7725 238.88 54.4483 252.071C44.0984 265.294 33.8198 278.573 23.6125 291.907C22.362 293.541 21.1127 295.175 19.8646 296.81C19.1749 297.714 17.6201 296.823 18.3193 295.907C28.6052 282.438 38.9608 269.025 49.386 255.667C59.8377 242.277 70.3616 228.944 80.9578 215.668C91.554 202.392 102.222 189.174 112.961 176.013C115.636 172.735 118.316 169.459 121 166.188C123.264 163.428 125.504 160.639 127.987 158.071C132.546 153.356 138.241 149.19 145.059 149.076C149.067 149.01 152.946 150.282 156.67 151.629C160.685 153.082 164.691 154.561 168.7 156.028L192.883 164.873L198.929 167.084C200.002 167.477 199.538 169.207 198.456 168.81L198.454 168.81Z" fill="white"/>
<path d="M132.683 168.897C135.048 166.02 137.604 163.007 141.139 161.838L144.441 161.968C119.31 206.375 85.3689 245.177 44.7012 275.992L132.683 168.897Z" fill="white"/>
<path d="M293.221 122.922C293.223 127.459 292.111 131.928 289.982 135.936C287.854 139.943 284.774 143.367 281.014 145.906C277.253 148.445 272.927 150.023 268.414 150.5C263.902 150.977 259.341 150.339 255.133 148.642C250.925 146.945 247.197 144.241 244.278 140.767C241.359 137.293 239.337 133.156 238.39 128.718C237.443 124.28 237.6 119.678 238.847 115.315C240.093 110.952 242.392 106.962 245.541 103.695L245.675 103.562C245.897 103.329 246.118 103.096 246.351 102.874C246.353 102.874 246.354 102.874 246.356 102.873C246.357 102.873 246.358 102.872 246.359 102.871C246.361 102.87 246.361 102.869 246.362 102.867C246.362 102.866 246.363 102.864 246.363 102.863C246.651 102.597 246.939 102.33 247.239 102.075C251.244 98.5636 256.177 96.2807 261.447 95.5C266.716 94.7192 272.099 95.4738 276.951 97.6733C281.803 99.8727 285.918 103.424 288.803 107.902C291.689 112.38 293.223 117.594 293.222 122.921L293.221 122.922Z" fill="#2F2E41"/>
<path d="M275.108 145.772C284.185 136.694 284.185 121.976 275.108 112.898C266.03 103.821 251.312 103.821 242.234 112.898C233.157 121.976 233.157 136.694 242.234 145.772C251.312 154.849 266.03 154.849 275.108 145.772Z" fill="#9E616A"/>
<path d="M275.279 106.982C271.678 103.612 267.199 101.327 262.357 100.388C257.515 99.4499 252.507 99.8965 247.907 101.677C247.771 101.73 247.635 101.789 247.499 101.854C247.493 101.854 247.493 101.86 247.487 101.86C247.043 102.044 246.593 102.233 246.161 102.441L245.894 102.571V102.606C245.847 102.642 245.794 102.683 245.74 102.719C245.632 102.82 245.499 102.894 245.356 102.932C240.885 102.991 237.244 104.507 234.544 107.438C230.939 111.345 229.245 117.663 229.766 125.23L229.778 125.46L229.979 125.591C231.886 126.781 233.692 127.829 235.432 128.746C236.463 129.297 237.463 129.8 238.458 130.262C238.576 130.315 238.695 130.375 238.813 130.428C248.878 135.076 258.085 135.916 266.931 132.974L267.097 132.921L270.856 126.621C271.244 128.773 272.279 130.756 273.824 132.304C275.368 133.852 277.349 134.891 279.5 135.283L281.064 135.561L283.355 135.964L283.45 135.532C285.723 125.289 282.437 113.82 275.279 106.982Z" fill="#2F2E41"/>
<path d="M332.383 155.769C324.473 151.684 334.646 136.868 332.602 128.205C330.558 119.541 315.836 116.754 314.899 107.902C313.962 99.0491 311.755 89.9193 305.914 83.2022C302.184 78.9103 296.681 75.7421 291.018 76.2791C289.102 76.4612 287.248 77.054 285.582 78.0171C283.916 78.9803 282.477 80.2913 281.363 81.8607C280.25 83.4301 279.487 85.2212 279.128 87.1118C278.769 89.0025 278.821 90.9484 279.282 92.8169C277.669 90.5321 273.497 91.0277 272.464 93.6263C271.546 95.9354 273.574 98.7347 275.961 98.939C279.085 102.796 282.662 106.891 287.555 107.669C289.132 107.919 290.903 107.735 292.055 106.63C293.207 105.525 293.298 103.314 291.93 102.486C298.08 104.928 301.686 111.577 302.598 118.132C303.51 124.686 302.248 131.317 301.414 137.881C300.58 144.446 300.224 151.352 302.798 157.448C305.839 164.651 312.84 169.813 320.482 171.469C328.123 173.124 336.26 171.506 343.177 167.861C350.094 164.215 355.862 158.65 360.573 152.407C352.457 158.176 341.229 160.334 332.383 155.769Z" fill="#2F2E41"/>
<path d="M242.51 253.408L226.454 363.048L314.096 356.443L287.867 248.584L242.51 253.408Z" fill="#FFB8B8"/>
<path d="M334.197 482.665C334.119 483.043 334.02 483.416 333.901 483.784C323.786 487.441 313.442 490.429 302.935 492.73C300.721 485.447 296.476 471.658 292.757 460.379C289.72 451.172 287.038 443.641 286.102 442.7C283.503 440.112 286.102 436.66 286.102 436.66L275.001 402.148L269.957 386.47L268.228 419.407L265.717 467.117L265.646 468.455C265.646 468.455 262.189 478.81 263.917 480.539C265.646 482.268 262.189 489.177 262.189 489.177L261.194 498.242C259.927 498.307 258.666 498.355 257.393 498.39L256.961 498.526L256.605 498.414C254.894 498.467 253.177 498.501 251.454 498.514C250.726 498.52 249.998 498.526 249.264 498.526C248.92 498.526 248.577 498.526 248.233 498.52C243.266 498.503 238.336 498.341 233.443 498.035L230.406 473.316L227.268 447.774C227.268 447.774 230.72 440.876 227.268 437.424C225.19 435.346 226.232 432.326 227.398 430.254C226.676 427.051 225.687 422.125 224.355 414.831C224.308 414.588 224.266 414.339 224.219 414.091C223.799 411.776 223.422 409.506 223.088 407.282C222.496 403.368 222.034 399.608 221.679 396.009C220.474 384.349 220.308 372.605 221.182 360.916C221.513 356.76 221.928 353.717 222.2 351.958C222.224 351.793 222.478 350.863 222.893 349.395C223.544 347.044 224.616 343.314 225.818 339.14C226.457 336.926 227.132 334.587 227.801 332.26C228.967 328.228 230.128 324.232 231.063 320.999V320.981C231.886 318.145 232.543 315.907 232.887 314.735C233.053 314.16 233.141 313.847 233.141 313.847C233.141 313.847 233.325 313.805 233.674 313.728C234.758 313.479 237.434 312.881 241.14 312.082C245.007 311.265 249.986 310.229 255.457 309.175C260.14 308.275 265.184 307.357 270.199 306.534C271.999 306.244 273.799 305.96 275.575 305.694C286.547 304.06 296.618 303.13 301.39 304.19C301.72 304.26 302.046 304.349 302.367 304.456C302.69 304.563 303.002 304.704 303.296 304.877C303.444 304.965 304.877 310.555 306.707 317.837C306.724 317.908 306.742 317.985 306.76 318.056C307.311 320.259 307.897 322.603 308.495 325.001C309.105 327.447 309.72 329.939 310.324 332.367C312.118 339.578 313.776 346.251 314.629 349.519C314.954 350.786 315.167 351.538 315.215 351.621C317.216 354.954 318.85 363.125 320.176 373.374C321.36 382.521 322.302 393.327 323.03 403.824C323.391 409.017 323.699 414.138 323.96 418.946C324.842 435.121 325.197 447.75 325.197 447.75C325.197 447.75 326.517 458.277 329.14 463.245C329.463 463.886 329.876 464.478 330.366 465.003C332.113 466.75 332.314 468.265 332.083 469.343C331.982 469.852 331.772 470.332 331.467 470.752C331.398 470.855 331.321 470.952 331.236 471.042C331.011 472.114 331.05 473.224 331.352 474.276C331.653 475.329 332.207 476.292 332.965 477.081C334.641 478.769 334.505 481.184 334.197 482.665Z" fill="#2F2E41"/>
<path d="M305.486 218.244C305.386 217.498 305.279 216.747 305.167 215.989C305.102 215.503 305.025 215.018 304.954 214.538C304.202 209.695 307.334 205.55 303.278 202.199C302.33 201.428 301.557 200.463 301.01 199.369L300.081 197.498L298.37 194.029L294.628 186.486L293.982 185.189C293.8 184.821 293.59 184.466 293.355 184.129C292.655 183.114 291.744 182.261 290.685 181.631L281.389 176.089C279.952 175.237 278.796 173.983 278.062 172.483L277.831 172.009C276.806 169.908 274.971 164.881 272.798 162.696L272.792 162.69C272.319 162.149 271.676 161.784 270.968 161.654L261.714 160.736C260.234 160.586 258.741 160.823 257.38 161.424C256.019 162.025 254.838 162.969 253.952 164.164L253.698 165.319L252.212 172.086L252.129 172.104C251.691 172.205 251.252 172.305 250.82 172.43C241.223 175.053 237.22 208.606 237.22 208.606C237.22 208.606 230.5 219.695 233.141 226.557L237.854 237.623C237.89 237.707 237.918 237.794 237.937 237.884C238.363 239.088 238.513 240.373 238.375 241.643L238.381 242.075L238.393 243.029L238.428 245.474L238.541 253.585L238.683 263.739L238.807 272.39L238.848 274.693L231.086 308.471C230.959 309.581 231.052 310.705 231.36 311.778C231.668 312.852 232.185 313.855 232.88 314.729L232.886 314.735C233.057 314.953 233.239 315.163 233.431 315.362L233.437 315.368C233.62 315.558 233.81 315.73 234.005 315.901C234.94 316.719 236.042 317.322 237.235 317.669C238.427 318.016 239.681 318.097 240.909 317.908L241.945 317.748H241.951L256.99 315.493H257.001L258.742 315.232H258.754L275.587 312.704H275.598L278.482 312.266C278.713 312.236 278.938 312.207 279.169 312.189L294.58 311.129C294.934 311.105 295.286 311.06 295.634 310.993H295.64C296.995 310.725 298.266 310.135 299.345 309.272C300.424 308.41 301.279 307.3 301.839 306.037C302.072 305.531 302.249 305.001 302.366 304.456C302.5 303.867 302.573 303.266 302.585 302.662L302.757 288.145L303.343 241.229C303.355 239.663 303.802 238.132 304.634 236.806C306.771 233.396 306.528 226.089 305.486 218.244Z" fill="#F05537"/>
<path d="M279.647 343.547C279.43 342.351 279.478 341.121 279.788 339.946C280.098 338.77 280.662 337.676 281.44 336.742C282.218 335.808 283.191 335.056 284.291 334.538C285.391 334.021 286.592 333.75 287.807 333.747L297.423 305.796L306.798 317.963L296.23 342.641C296.099 344.684 295.224 346.608 293.77 348.049C292.316 349.491 290.384 350.348 288.34 350.46C286.296 350.572 284.282 349.93 282.679 348.656C281.077 347.382 279.997 345.564 279.645 343.547L279.647 343.547Z" fill="#9E616A"/>
<path d="M316.334 284.74L314.173 290.187L311.153 323.882C310.215 324.118 309.319 324.495 308.495 325.001C306.704 326.109 305.341 327.789 304.626 329.769C303.911 331.748 303.887 333.912 304.557 335.907L305.445 338.572L298.844 336.541L287.991 333.207L275.196 329.276L277.363 322.248C277.865 320.633 277.966 318.921 277.659 317.258C277.352 315.596 276.645 314.033 275.599 312.704C275.34 312.373 275.061 312.059 274.764 311.763L275.575 305.694L276.055 302.088L270.199 306.535L258.749 315.232H258.743L257.227 316.387C257.227 316.387 257.144 316.079 256.99 315.493C256.7 314.362 256.155 312.195 255.457 309.175C251.997 294.128 249.448 278.886 247.825 263.532C247.47 260.075 247.162 256.534 246.913 252.94C246.658 249.24 246.469 245.486 246.368 241.708C245.516 210.962 250.24 178.729 269.986 162.246C270.941 162.253 271.889 162.404 272.799 162.696C280.792 165.153 289.56 177.16 295.623 185.751C297.056 187.782 298.335 189.618 299.418 191.092L302.041 194.662C305.622 199.54 308.101 205.138 309.306 211.069C309.56 212.324 309.76 213.595 309.904 214.881L312.769 241.241V248.032L316.334 284.74Z" fill="#F05537"/>
<path d="M14.4414 331.992C19.5849 338.086 25.1482 343.814 31.0905 349.132L467.793 349.725C473.735 344.406 479.298 338.679 484.442 332.584L14.4414 331.992Z" fill="#CCCCCC"/>
<path d="M251.454 498.514C250.726 498.52 249.998 498.526 249.263 498.526C248.92 498.526 248.577 498.526 248.233 498.52C243.266 498.503 238.336 498.341 233.443 498.035L233.562 499L233.141 498.017L223.757 476.17L230.406 473.316L242.603 468.076L246.303 480.8L249.844 492.984L250.898 496.596L251.454 498.514Z" fill="#FFB6B6"/>
<path d="M207.978 473.15L205.326 494.66C199.293 493.594 193.338 492.31 187.463 490.806V473.156L207.978 473.15Z" fill="#FFB6B6"/>
<path d="M114.437 433.505V458.946C110.837 456.631 107.304 454.224 103.839 451.723V433.505H114.437Z" fill="#CACACA"/>
<path d="M155.497 429.266V441.977C155.496 444.319 154.566 446.565 152.911 448.221C151.256 449.877 149.011 450.809 146.669 450.811H102.571C94.153 444.674 86.1266 438.016 78.5392 430.876C74.9453 427.501 71.456 424.02 68.0713 420.432H146.669C149.01 420.435 151.255 421.367 152.91 423.023C154.565 424.679 155.495 426.924 155.497 429.266Z" fill="#3F3D56"/>
<path d="M258.843 497.929L257.392 498.39L256.96 498.526L256.605 498.414C254.894 498.467 253.177 498.501 251.454 498.515C250.726 498.521 249.997 498.526 249.263 498.526C248.92 498.526 248.576 498.527 248.233 498.521C243.265 498.503 238.335 498.341 233.443 498.035L233.561 499L233.141 498.017C231.388 497.899 229.642 497.775 227.901 497.621L214.124 474.547L185.769 427.069L182.483 421.569C182.483 421.569 171.275 424.884 155.414 428.064C143.46 430.468 128.865 432.783 114.436 433.54C110.878 433.73 107.331 433.825 103.838 433.795C94.8088 433.736 86.1349 432.889 78.5386 430.876C74.9447 427.501 71.4554 424.02 68.0707 420.432C62.3009 414.331 56.8429 407.942 51.7177 401.29C51.6486 398.849 51.7734 396.406 52.0907 393.984C52.144 393.581 52.1972 393.173 52.2624 392.758L53.8787 365.31L65.886 363.723L84.1574 361.307L103.95 358.69L106.129 375.754C106.129 375.754 121.541 374.972 141.068 375.233C172.43 375.659 214.396 378.785 220.08 392.202C220.613 393.463 221.146 394.736 221.678 396.009C232.715 422.445 242.851 450.61 249.737 470.622C251.051 474.435 252.241 477.946 253.301 481.096C256.8 491.499 258.843 497.929 258.843 497.929Z" fill="#2F2E41"/>
<path d="M225.272 407.329C224.982 409.84 224.676 412.34 224.354 414.831C221.512 436.862 217.599 457.904 214.123 474.547C212.424 482.671 210.825 489.74 209.505 495.371C208.108 495.152 206.714 494.915 205.325 494.66C199.292 493.594 193.338 492.31 187.462 490.806C185.716 490.362 183.979 489.898 182.252 489.414L185.769 427.069L186.929 406.447L223.087 407.282L225.272 407.329Z" fill="#2F2E41"/>
<path d="M283.412 310.898C284.919 310.056 286.593 309.555 288.316 309.43C290.038 309.304 291.767 309.558 293.381 310.174C294.994 310.789 296.454 311.751 297.655 312.991C298.857 314.231 299.772 315.72 300.337 317.352L342.315 317.401L330.284 335.599L292.264 332.762C289.459 333.526 286.472 333.236 283.867 331.946C281.262 330.656 279.221 328.455 278.13 325.76C277.039 323.066 276.974 320.065 277.947 317.326C278.921 314.587 280.865 312.3 283.412 310.898Z" fill="#FFB6B6"/>
<path d="M306.298 335.507L381.906 343.018L382.105 342.763C382.487 342.276 420.333 293.83 426.691 282.298C430.604 275.369 432.028 267.311 430.729 259.461L430.686 259.269L430.536 259.142C427.452 256.558 423.58 255.102 419.558 255.014C415.536 254.925 411.604 256.21 408.41 258.657C393.054 270.55 380.672 285.85 372.242 303.348L367.458 313.308L311.975 315.688L306.298 335.507Z" fill="#F05537"/>
<path d="M277.138 472.025L265.996 497.97C264.397 498.082 262.796 498.173 261.194 498.242C259.927 498.307 258.666 498.355 257.393 498.39L256.961 498.526L256.605 498.414C254.894 498.467 253.177 498.501 251.454 498.514C250.726 498.52 249.998 498.526 249.264 498.526C248.92 498.526 248.577 498.526 248.233 498.52L248.973 495.986L249.844 492.984L253.302 481.096L258.293 463.931L265.717 467.117L277.138 472.025Z" fill="#FFB6B6"/>
<path d="M357.43 473.896C351.706 476.661 345.864 479.205 339.904 481.528L334.078 471.729L352.859 463.481L357.43 473.896Z" fill="#FFB6B6"/>
<path d="M397.057 429.36V450C393.593 452.558 390.061 455.025 386.459 457.401V429.36H397.057Z" fill="#CACACA"/>
<path d="M434.287 416.287C431.308 419.591 428.241 422.81 425.086 425.944C417.658 433.341 409.772 440.262 401.474 446.667H354.226C352.972 446.667 351.732 446.399 350.589 445.881C349.446 445.363 348.427 444.608 347.6 443.664L347.595 443.647C346.61 442.535 345.925 441.19 345.606 439.739L345.6 439.728C345.466 439.105 345.399 438.47 345.398 437.833V425.121C345.4 422.78 346.33 420.535 347.985 418.879C349.64 417.222 351.885 416.29 354.226 416.287H434.287Z" fill="#3F3D56"/>
<path d="M453.754 366.672L448.632 388.614C449.133 391.793 449.3 395.015 449.13 398.229C446.702 401.485 444.198 404.677 441.616 407.803C439.236 410.686 436.793 413.514 434.286 416.287C431.308 419.591 428.241 422.81 425.086 425.944C416.868 428.526 407.181 429.579 397.057 429.65C393.563 429.68 390.017 429.585 386.459 429.396C372.03 428.638 357.435 426.323 345.481 423.919C342.319 423.292 339.347 422.652 336.612 422.03C331.431 420.864 327.097 419.775 323.959 418.946C320.425 418.022 318.412 417.424 318.412 417.424L304.966 439.941L292.757 460.379L270.513 497.626C269.009 497.763 267.503 497.877 265.995 497.97C264.397 498.082 262.796 498.173 261.194 498.242C259.926 498.307 258.665 498.355 257.392 498.39L256.96 498.526L256.605 498.414L250.897 496.596L248.973 495.986L242.052 493.784C242.052 493.784 243.597 488.917 246.303 480.8C247.298 477.822 248.446 474.399 249.737 470.622C254.396 456.969 260.856 438.632 268.227 419.408C270.412 413.7 272.674 407.909 275.001 402.149C276.907 397.418 278.849 392.705 280.815 388.057C284.231 379.999 300.738 375.653 320.176 373.374C321.165 373.261 322.159 373.149 323.16 373.042C333.065 372 343.575 371.461 353.403 371.213C358.323 371.088 363.072 371.041 367.489 371.035C368.915 371.035 370.303 371.039 371.651 371.047H371.657C375.298 371.065 378.649 371.118 381.598 371.177C382.172 371.189 382.729 371.207 383.273 371.219H383.279C383.646 371.225 384.007 371.236 384.363 371.242C390.81 371.408 394.765 371.609 394.765 371.609L396.299 359.578L396.613 357.151L396.909 354.842V354.836L396.944 354.546L397.187 354.54L401.45 354.457L437.282 353.758L456.856 353.374L453.754 366.672Z" fill="#2F2E41"/>
<path d="M361.846 471.705C360.384 472.451 358.91 473.186 357.429 473.896C351.706 476.661 345.864 479.205 339.904 481.528C338.205 482.197 336.5 482.842 334.777 483.464C334.587 483.197 334.392 482.931 334.196 482.665C325.978 471.386 315.534 456.501 304.966 439.941C300.543 433.013 296.096 425.79 291.78 418.413L323.03 403.824L326.535 402.19L336.612 422.03L345.6 439.727L347.601 443.665L361.846 471.705Z" fill="#2F2E41"/>
<path d="M407.207 225.018C423.107 225.018 435.996 212.128 435.996 196.228C435.996 180.328 423.107 167.438 407.207 167.438C391.307 167.438 378.417 180.328 378.417 196.228C378.417 212.128 391.307 225.018 407.207 225.018Z" fill="#FFB6B6"/>
<path d="M406.253 223.769C412.985 226.998 421.27 225.904 427.696 222.104C434.122 218.304 438.852 212.108 442.157 205.413C444.577 200.51 446.336 194.895 444.934 189.611C443.533 184.326 437.941 179.897 432.702 181.462C436.291 178.573 435.872 172.613 432.972 169.029C430.072 165.445 425.496 163.726 421.075 162.428C414.658 160.545 407.915 159.216 401.299 160.179C394.684 161.141 388.166 164.725 385.052 170.644C382.891 171.201 380.606 171.026 378.555 170.146C376.504 169.266 374.802 167.731 373.717 165.781C372.996 167.656 372.913 169.717 373.481 171.645C374.049 173.572 375.236 175.259 376.859 176.443L367.896 171.581C365.612 174.748 367.688 179.579 371.156 181.372C374.625 183.166 378.818 182.688 382.603 181.728C386.389 180.767 381.923 188.764 385.827 188.841C389.732 188.918 393.955 190.961 395.073 194.702C395.659 196.662 395.318 198.767 395.488 200.805C395.658 202.843 396.637 205.104 398.612 205.635C399.86 205.971 401.225 205.526 402.46 205.899C403.995 206.36 404.93 208.002 405.066 209.598C405.201 211.194 404.7 212.768 404.206 214.292C402.252 220.315 408.522 216.939 406.568 222.962L406.253 223.769Z" fill="#2F2E41"/>
<path d="M462.742 308.808C462.505 285.03 461.427 268.825 459.544 260.637C454.488 238.624 431.131 234.609 427.472 234.112C427.082 233.074 426.483 232.128 425.712 231.332C424.941 230.536 424.014 229.907 422.989 229.484C421.965 229.062 420.864 228.854 419.756 228.875C418.648 228.896 417.556 229.145 416.548 229.606L399.952 237.209C396.585 238.756 393.573 240.978 391.101 243.738C388.629 246.499 386.75 249.737 385.583 253.254L383.12 260.773L381.882 311.236L385.967 332.461L385.973 332.473L388.726 346.772L386.832 349.614L376.015 365.837L375.831 366.121L375.825 366.127L375.352 366.831C376.009 367.192 376.66 367.548 377.299 367.903C378.957 368.815 380.574 369.709 382.149 370.585C382.527 370.798 382.901 371.005 383.274 371.219H383.279C383.516 371.349 383.753 371.479 383.984 371.609C389.893 374.913 395.271 377.974 400.118 380.792C400.793 381.183 401.462 381.574 402.119 381.959C424.5 395.05 435.844 403.066 441.616 407.803C444.198 404.677 446.702 401.485 449.13 398.229C451.332 395.286 453.466 392.292 455.53 389.247C455.891 386.867 456.134 384.487 456.371 382.154C456.655 379.348 456.951 376.441 457.449 373.581C457.668 372.314 456.827 371.112 456.016 369.952C455.264 368.868 454.553 367.85 454.701 366.891C454.855 365.902 455.945 364.824 457.004 363.776C458.159 362.628 459.355 361.443 459.527 360.194C460 356.713 460.421 353.22 460.788 349.714C461.392 344.013 461.856 338.293 462.179 332.556C462.635 324.634 462.823 316.718 462.742 308.808Z" fill="#F05537"/>
<path d="M353.15 392.74C353.638 391.084 354.483 389.554 355.626 388.26C356.769 386.965 358.182 385.937 359.766 385.247C361.349 384.558 363.064 384.224 364.791 384.269C366.517 384.314 368.212 384.738 369.758 385.509L399.785 356.172L403.921 377.59L374.774 402.166C373.306 404.677 370.968 406.561 368.204 407.463C365.439 408.365 362.44 408.221 359.775 407.059C357.109 405.897 354.962 403.798 353.741 401.159C352.52 398.52 352.31 395.524 353.15 392.74Z" fill="#FFB6B6"/>
<path d="M386.721 394.308L445.993 346.773L445.957 346.452C445.889 345.836 439.03 284.744 435.505 272.056C433.452 264.369 428.831 257.615 422.41 252.915L422.245 252.809L422.049 252.823C418.038 253.134 414.253 254.803 411.318 257.554C408.382 260.305 406.472 263.974 405.902 267.957C403.253 287.199 405.112 306.793 411.332 325.193L414.885 335.656L376.91 376.178L386.721 394.308Z" fill="#F05537"/>
<path d="M83.1948 224.502C97.3824 224.502 108.884 213 108.884 198.813C108.884 184.625 97.3824 173.124 83.1948 173.124C69.0072 173.124 57.5059 184.625 57.5059 198.813C57.5059 213 69.0072 224.502 83.1948 224.502Z" fill="#A0616A"/>
<path d="M48.6813 394.478L48.541 394.281C41.0578 383.801 52.3125 358.629 54.01 354.979C51.9943 354.325 50.2678 352.992 49.1243 351.208C47.9808 349.424 47.4912 347.299 47.7387 345.194L48.4705 338.974L49.2332 332.875L43.7689 327.411L43.7535 327.275L40.609 299.759L36.0364 281.483C34.3131 274.573 34.4597 267.329 36.4612 260.495C38.4627 253.661 42.247 247.483 47.4255 242.595L57.9941 240.915L70.8385 228.541H91.5516L98.6565 235.326C112.619 246.772 115.934 241.799 131.679 263.346L120.406 293.047L126.704 336.853L126.708 344.781L129.99 348.428C131.172 349.742 132.032 351.313 132.5 353.018C132.967 354.723 133.031 356.513 132.684 358.246L132.253 360.404C133.92 361.119 135.393 362.223 136.546 363.624C137.699 365.025 138.499 366.682 138.88 368.456L140.031 373.835C141.017 375.138 147.526 383.816 147.526 386.189C147.526 386.544 147.263 386.89 146.697 387.271C142.262 390.275 117.745 396.399 106.89 392.057C95.3314 387.435 49.3812 394.366 48.9182 394.439L48.6813 394.478Z" fill="#3F3D56"/>
<path d="M35.6299 290.27L56.9895 286.088C64.889 297.885 69.1271 330.143 69.1271 330.143L92.7425 379.119C94.194 380 95.3859 381.251 96.1967 382.743C97.0075 384.236 97.4084 385.916 97.3584 387.614C97.3085 389.311 96.8095 390.965 95.9123 392.407C95.0152 393.85 93.7519 395.028 92.2511 395.823C90.7502 396.618 89.0656 397.001 87.3686 396.933C85.6716 396.865 84.023 396.348 82.5906 395.436C81.1582 394.523 79.9932 393.248 79.2142 391.739C78.4353 390.229 78.0702 388.541 78.1562 386.845L47.3553 328.817L35.6299 290.27Z" fill="#A0616A"/>
<path d="M35.5108 295.338L34.9033 263.591L44.955 250.143C46.9379 247.51 49.6178 245.484 52.6916 244.295C55.7654 243.105 59.1107 242.799 62.3495 243.411C66.7343 244.269 70.6294 246.761 73.2473 250.382C75.8651 254.003 77.0104 258.483 76.4515 262.916C74.7452 276.356 70.8718 293.181 62.1085 296.988L62.0197 297.026L71.1021 328.791L37.4196 333.495L35.5108 295.338Z" fill="#3F3D56"/>
<path d="M162.37 292.532C162.37 292.532 136.736 272.496 122.834 269.619L110.529 287.57L143.808 307.964L208.599 326.698C209.734 327.958 211.182 328.896 212.796 329.415C214.41 329.935 216.133 330.018 217.789 329.657C219.446 329.295 220.978 328.502 222.228 327.357C223.479 326.212 224.405 324.757 224.912 323.139C225.418 321.521 225.488 319.797 225.113 318.144C224.738 316.49 223.933 314.965 222.778 313.723C221.623 312.481 220.16 311.567 218.538 311.074C216.916 310.58 215.192 310.525 213.541 310.913L162.37 292.532Z" fill="#A0616A"/>
<path d="M117.272 296.559L90.5581 279.394L84.9802 263.559C83.8961 260.446 83.7042 257.092 84.4262 253.877C85.1481 250.661 86.755 247.711 89.0655 245.36C92.2194 242.195 96.4574 240.346 100.923 240.186C105.388 240.027 109.747 241.568 113.119 244.5C123.338 253.399 136.506 256.382 134.793 265.781L139.713 266.5L164.872 285.607L150.037 316.209L117.272 296.559Z" fill="#3F3D56"/>
<path d="M54.0572 181.933C56.9418 177.471 62.3551 174.496 67.6027 175.332C68.0912 171.983 69.4891 168.833 71.6442 166.223C73.7994 163.614 76.6291 161.645 79.8254 160.533C83.0217 159.42 86.4619 159.206 89.7716 159.913C93.0813 160.62 96.1335 162.222 98.596 164.543C100.141 163.314 102.385 163.249 104.221 163.98C106.027 164.802 107.598 166.065 108.79 167.651C111.802 171.406 113.738 175.908 114.394 180.676C115.05 185.445 114.401 190.302 112.515 194.73C113.156 192.399 110.82 190.206 108.459 189.682C106.098 189.159 103.622 189.654 101.228 189.313C98.1596 188.877 95.4011 187.097 92.3283 186.696C89.7456 186.36 87.1482 187.022 84.6313 187.686C82.1144 188.35 79.5223 189.026 76.9343 188.719C74.3464 188.412 71.0136 198.214 71.061 205.119C71.0693 206.428 70.7999 208.108 69.5216 208.385C67.9472 208.727 67.0349 206.554 65.5357 205.962C64.2006 205.434 62.5996 206.412 62.1348 207.771C61.946 208.465 61.9258 209.195 62.076 209.899C62.2261 210.603 62.5423 211.262 62.9981 211.819C63.9193 212.924 65.013 213.872 66.2367 214.628L65.6192 215.141C64.5926 216.498 62.4629 216.557 60.9827 215.718C59.5025 214.879 58.5303 213.385 57.654 211.928C54.9163 207.375 52.5142 202.522 51.548 197.297C50.5817 192.072 51.1726 186.396 54.0572 181.933Z" fill="#2F2E41"/>
<path opacity="0.2" d="M279.658 225.106C282.264 235.963 283.466 247.109 283.235 258.271C283.013 269.434 281.381 280.525 278.376 291.279C276.681 297.352 274.542 303.292 271.978 309.052C271.516 310.087 273.043 310.992 273.511 309.948C278.141 299.569 281.415 288.637 283.252 277.422C285.097 266.204 285.51 254.798 284.483 243.476C283.902 237.128 282.862 230.83 281.371 224.633C281.103 223.522 279.39 223.992 279.658 225.106Z" fill="black"/>
<path opacity="0.2" d="M445.493 301.07L430.645 337.316C428.256 343.15 425.937 349.019 423.45 354.812C421.211 360.027 418.657 365.266 414.888 369.566C411.084 373.905 405.967 377.428 400.122 378.117C399 378.249 398.987 380.027 400.122 379.893C405.461 379.264 410.246 376.609 414.113 372.938C418.293 368.968 421.238 363.911 423.645 358.721C426.326 352.937 428.604 346.956 431.021 341.058L438.612 322.526L447.206 301.543C447.639 300.486 445.921 300.026 445.493 301.07Z" fill="black"/>
<path d="M269.489 333.97C269.75 334.73 270.245 335.387 270.903 335.848C271.56 336.309 272.347 336.549 273.15 336.535L288.835 336.131C289.644 336.115 290.426 335.838 291.065 335.341C291.703 334.844 292.163 334.154 292.377 333.374L294.596 309.639C295.384 309.996 296.241 310.172 297.105 310.155C297.856 310.136 298.596 309.97 299.283 309.665C299.97 309.36 300.589 308.923 301.107 308.379C301.625 307.834 302.03 307.193 302.3 306.492C302.57 305.791 302.699 305.044 302.68 304.293C302.662 303.542 302.495 302.802 302.19 302.115C301.885 301.429 301.448 300.809 300.904 300.291C300.36 299.774 299.719 299.368 299.018 299.098C298.317 298.828 297.569 298.699 296.818 298.718C296.473 298.717 296.128 298.753 295.79 298.825C295.423 298.428 294.976 298.112 294.479 297.898C293.982 297.684 293.446 297.576 292.905 297.582L268.777 298.205C268.577 298.212 268.378 298.237 268.182 298.279C267.653 298.377 267.151 298.588 266.71 298.897C266.27 299.206 265.9 299.606 265.627 300.069C265.353 300.533 265.182 301.05 265.126 301.585C265.069 302.12 265.127 302.661 265.297 303.172L269.489 333.97ZM295.051 308.027L296.63 302.372C296.81 301.719 296.814 301.03 296.642 300.374C296.718 300.374 296.786 300.337 296.863 300.337C297.4 300.325 297.934 300.418 298.435 300.612C298.936 300.806 299.394 301.097 299.783 301.468C300.172 301.839 300.484 302.283 300.701 302.774C300.918 303.265 301.036 303.795 301.049 304.332C301.061 304.869 300.968 305.404 300.774 305.905C300.58 306.406 300.289 306.864 299.918 307.252C299.547 307.641 299.103 307.953 298.612 308.17C298.121 308.387 297.591 308.505 297.054 308.518C296.354 308.539 295.662 308.37 295.051 308.027Z" fill="#2F2E41"/>
<path d="M268.182 298.276C268.696 301.215 274.475 303.282 281.424 302.922C287.814 302.626 293.039 300.384 293.996 297.724C293.642 297.62 293.274 297.57 292.904 297.579L268.777 298.202C268.577 298.209 268.378 298.234 268.182 298.276L268.182 298.276Z" fill="#3F3D56"/>
<path d="M217.245 301.985C217.415 301.474 217.473 300.933 217.416 300.398C217.359 299.863 217.188 299.346 216.915 298.882C216.642 298.419 216.272 298.019 215.831 297.71C215.39 297.401 214.889 297.19 214.36 297.092C214.164 297.05 213.965 297.025 213.765 297.018L189.637 296.392C189.096 296.387 188.559 296.494 188.062 296.708C187.565 296.923 187.119 297.238 186.751 297.636C186.413 297.563 186.069 297.527 185.723 297.528C184.972 297.51 184.225 297.639 183.524 297.909C182.823 298.179 182.182 298.584 181.638 299.102C181.093 299.62 180.656 300.239 180.351 300.926C180.047 301.613 179.88 302.352 179.861 303.103C179.842 303.854 179.972 304.602 180.242 305.303C180.511 306.004 180.917 306.645 181.435 307.189C181.952 307.733 182.572 308.171 183.259 308.475C183.945 308.78 184.685 308.947 185.436 308.966C186.301 308.983 187.158 308.807 187.945 308.45L190.165 332.184C190.379 332.965 190.839 333.655 191.477 334.152C192.115 334.649 192.897 334.926 193.706 334.942L209.391 335.345C210.194 335.36 210.981 335.119 211.639 334.659C212.297 334.198 212.791 333.541 213.052 332.781L217.245 301.985ZM185.486 307.333C184.949 307.32 184.419 307.202 183.928 306.985C183.436 306.767 182.993 306.456 182.622 306.067C182.251 305.678 181.96 305.22 181.766 304.719C181.572 304.218 181.479 303.684 181.491 303.146C181.504 302.609 181.622 302.08 181.84 301.588C182.057 301.097 182.369 300.653 182.757 300.282C183.146 299.911 183.604 299.621 184.105 299.427C184.606 299.233 185.141 299.139 185.678 299.152C185.754 299.152 185.822 299.189 185.899 299.189C185.727 299.845 185.731 300.534 185.911 301.188L187.491 306.844C186.879 307.187 186.186 307.356 185.486 307.333V307.333Z" fill="#2F2E41"/>
<path d="M214.359 297.092C213.845 300.031 208.066 302.098 201.117 301.738C194.727 301.442 189.502 299.2 188.545 296.54C188.899 296.436 189.267 296.386 189.637 296.395L213.764 297.018C213.964 297.025 214.164 297.05 214.359 297.092V297.092Z" fill="#3F3D56"/>
<path d="M191.494 245.533C192.703 244.65 194.091 244.043 195.56 243.754C197.029 243.465 198.543 243.502 199.996 243.862C201.449 244.221 202.806 244.896 203.97 245.836C205.135 246.777 206.079 247.962 206.736 249.307L242.86 244.937L234.422 261.858L201.411 263.414C199.078 264.367 196.476 264.432 194.099 263.596C191.722 262.76 189.734 261.081 188.512 258.877C187.289 256.673 186.918 254.098 187.468 251.639C188.017 249.179 189.45 247.007 191.494 245.533Z" fill="#9E616A"/>
<path d="M309.306 211.069C308.24 213.159 306.943 215.592 305.487 218.244C300.371 227.593 293.343 239.66 287.932 248.843C283.308 256.676 279.856 262.419 279.761 262.579L279.613 262.816L247.825 263.532L241.004 263.686L238.683 263.739L213.774 264.302L214.011 262.822L216.338 248.15L216.575 246.652L238.393 243.029L246.368 241.708L264.059 238.772L267.132 229.701C272.544 213.759 281.588 199.292 293.55 187.445C293.9 187.107 294.255 186.788 294.628 186.486C294.954 186.225 295.285 185.976 295.623 185.751C297.056 187.782 298.334 189.618 299.418 191.092L302.041 194.662C305.622 199.54 308.101 205.138 309.306 211.069Z" fill="#F05537"/>
<path d="M177.125 265.289C177.386 266.049 177.881 266.706 178.539 267.167C179.196 267.628 179.983 267.869 180.786 267.854L196.471 267.45C197.28 267.435 198.062 267.158 198.7 266.661C199.339 266.164 199.799 265.473 200.013 264.693L202.232 240.959C203.02 241.315 203.877 241.492 204.741 241.474C206.258 241.436 207.698 240.797 208.743 239.698C209.789 238.599 210.354 237.129 210.316 235.612C210.278 234.096 209.639 232.656 208.54 231.611C207.441 230.565 205.971 229.999 204.454 230.037C204.109 230.036 203.764 230.072 203.426 230.144C203.059 229.747 202.612 229.431 202.115 229.217C201.618 229.003 201.082 228.895 200.541 228.901L176.413 229.524C176.213 229.531 176.014 229.556 175.818 229.598C175.289 229.697 174.787 229.907 174.346 230.216C173.905 230.525 173.536 230.925 173.262 231.388C172.989 231.852 172.818 232.369 172.761 232.904C172.704 233.439 172.763 233.981 172.933 234.491L177.125 265.289ZM202.687 239.346L204.266 233.692C204.446 233.038 204.45 232.349 204.278 231.693C204.355 231.693 204.422 231.657 204.499 231.657C205.036 231.644 205.57 231.737 206.071 231.931C206.572 232.125 207.03 232.416 207.419 232.787C207.808 233.158 208.12 233.602 208.337 234.093C208.554 234.584 208.672 235.114 208.685 235.651C208.698 236.188 208.604 236.723 208.41 237.224C208.216 237.725 207.926 238.183 207.555 238.571C207.184 238.96 206.74 239.272 206.249 239.489C205.757 239.706 205.228 239.825 204.69 239.837C203.99 239.859 203.297 239.69 202.686 239.347L202.687 239.346Z" fill="#CCCCCC"/>
<path d="M175.817 229.596C176.331 232.535 182.111 234.601 189.06 234.242C195.45 233.946 200.674 231.703 201.632 229.044C201.278 228.939 200.909 228.89 200.54 228.898L176.412 229.521C176.212 229.529 176.013 229.554 175.817 229.596Z" fill="#3F3D56"/>
</g>
<defs>
<clipPath id="clip0_909_11131">
<rect width="498.527" height="499" fill="white"/>
</clipPath>
</defs>
</svg>
