<svg width="29" height="29" viewBox="0 0 29 29" fill="none" xmlns="http://www.w3.org/2000/svg">
<g clip-path="url(#clip0_909_11093)">
<path d="M15.3483 2.65229L23.8066 5.82417C24.2673 5.99688 24.6644 6.30612 24.9446 6.71055C25.2249 7.11498 25.3751 7.59533 25.375 8.08738V14.5677C25.375 16.5873 24.8127 18.5671 23.7509 20.2851C22.6892 22.0031 21.17 23.3915 19.3635 24.2948L15.3108 26.3211C15.0591 26.447 14.7815 26.5126 14.5 26.5126C14.2185 26.5126 13.9409 26.447 13.6892 26.3211L9.63646 24.2948C7.83005 23.3915 6.31084 22.0031 5.24908 20.2851C4.18732 18.5671 3.62496 16.5873 3.625 14.5677V8.08738C3.62494 7.59533 3.77508 7.11498 4.05535 6.71055C4.33562 6.30612 4.73267 5.99688 5.19342 5.82417L13.6518 2.65229C14.1987 2.44728 14.8013 2.44728 15.3483 2.65229ZM14.5 4.9155L6.04167 8.08738V14.5677C6.04194 16.1383 6.47956 17.6779 7.30548 19.0139C8.1314 20.3499 9.31301 21.4295 10.7179 22.1318L14.5 24.0253L18.2821 22.1343C19.6874 21.4318 20.8692 20.3517 21.6952 19.0153C22.5211 17.6788 22.9585 16.1388 22.9583 14.5677V8.08738L14.5 4.9155ZM14.5 9.66667C15.0158 9.66646 15.5181 9.83128 15.9335 10.137C16.3489 10.4428 16.6556 10.8734 16.8087 11.366C16.9618 11.8585 16.9533 12.3871 16.7845 12.8745C16.6156 13.3619 16.2953 13.7824 15.8702 14.0747L15.7083 14.1774V18.125C15.708 18.433 15.5901 18.7292 15.3786 18.9532C15.1672 19.1771 14.8783 19.3119 14.5708 19.3299C14.2634 19.348 13.9606 19.2479 13.7245 19.0503C13.4883 18.8526 13.3365 18.5722 13.3001 18.2664L13.2917 18.125V14.1774C12.8304 13.9116 12.4697 13.501 12.2658 13.0093C12.0618 12.5176 12.0259 11.9722 12.1636 11.458C12.3014 10.9438 12.6051 10.4894 13.0276 10.1655C13.45 9.84159 13.9676 9.66623 14.5 9.66667Z" fill="#F05537"/>
</g>
<defs>
<clipPath id="clip0_909_11093">
<rect width="29" height="29" fill="white"/>
</clipPath>
</defs>
</svg>
