<svg width="33" height="33" viewBox="0 0 33 33" fill="none" xmlns="http://www.w3.org/2000/svg">
<path d="M4.125 11.6875C4.125 9.76525 4.125 8.80413 4.4385 8.0465C4.6458 7.54588 4.94971 7.091 5.33285 6.70785C5.716 6.32471 6.17088 6.0208 6.6715 5.8135C7.42913 5.5 8.39025 5.5 10.3125 5.5H22.6875C24.6098 5.5 25.5709 5.5 26.3285 5.8135C26.8291 6.0208 27.284 6.32471 27.6671 6.70785C28.0503 7.091 28.3542 7.54588 28.5615 8.0465C28.875 8.80413 28.875 9.76525 28.875 11.6875V12.7188C28.875 12.9923 28.7664 13.2546 28.573 13.448C28.3796 13.6414 28.1173 13.75 27.8438 13.75H27.5C26.7707 13.75 26.0712 14.0397 25.5555 14.5555C25.0397 15.0712 24.75 15.7707 24.75 16.5C24.75 17.2293 25.0397 17.9288 25.5555 18.4445C26.0712 18.9603 26.7707 19.25 27.5 19.25H27.8438C28.1173 19.25 28.3796 19.3586 28.573 19.552C28.7664 19.7454 28.875 20.0077 28.875 20.2812V21.3125C28.875 23.2348 28.875 24.1959 28.5615 24.9535C28.3542 25.4541 28.0503 25.909 27.6671 26.2921C27.284 26.6753 26.8291 26.9792 26.3285 27.1865C25.5709 27.5 24.6098 27.5 22.6875 27.5H10.3125C8.39025 27.5 7.42913 27.5 6.6715 27.1865C6.17088 26.9792 5.716 26.6753 5.33285 26.2921C4.94971 25.909 4.6458 25.4541 4.4385 24.9535C4.125 24.1959 4.125 23.2348 4.125 21.3125V20.2812C4.125 20.0077 4.23365 19.7454 4.42705 19.552C4.62044 19.3586 4.88275 19.25 5.15625 19.25H5.5C6.22935 19.25 6.92882 18.9603 7.44454 18.4445C7.96027 17.9288 8.25 17.2293 8.25 16.5C8.25 15.7707 7.96027 15.0712 7.44454 14.5555C6.92882 14.0397 6.22935 13.75 5.5 13.75H5.15625C4.88275 13.75 4.62044 13.6414 4.42705 13.448C4.23365 13.2546 4.125 12.9923 4.125 12.7188V11.6875Z" stroke="#F05537" stroke-width="1.375"/>
<path d="M15.8909 14.696C16.1219 14.0993 16.2374 13.7995 16.4244 13.7583C16.4742 13.7472 16.5258 13.7472 16.5756 13.7583C16.7626 13.7995 16.8781 14.0993 17.1091 14.696C17.2411 15.037 17.3071 15.2075 17.4295 15.323C17.4637 15.3554 17.501 15.3845 17.5409 15.4097C17.6839 15.4977 17.8612 15.5142 18.216 15.5472C18.8169 15.6022 19.1166 15.631 19.2087 15.8084C19.2279 15.8455 19.2409 15.8854 19.2472 15.9267C19.2775 16.126 19.0575 16.335 18.6147 16.7517L18.4924 16.8672C18.2861 17.0624 18.183 17.16 18.1225 17.281C18.0868 17.3547 18.0632 17.4336 18.0524 17.5148C18.0331 17.6495 18.0634 17.7898 18.1239 18.073L18.1459 18.1748C18.2545 18.6822 18.3081 18.9352 18.2407 19.0603C18.2118 19.1149 18.1693 19.161 18.1172 19.1943C18.0652 19.2276 18.0054 19.2468 17.9437 19.25C17.8062 19.2569 17.6124 19.0933 17.2232 18.7647C16.9689 18.5474 16.841 18.4402 16.698 18.3975C16.5688 18.3591 16.4312 18.3591 16.302 18.3975C16.159 18.4388 16.0311 18.5488 15.7754 18.7647C15.3876 19.0933 15.1937 19.2569 15.0562 19.25C14.9946 19.2468 14.9348 19.2276 14.8827 19.1943C14.8307 19.161 14.7881 19.1149 14.7592 19.0603C14.6919 18.9365 14.7455 18.6822 14.8555 18.1748L14.8761 18.073C14.9366 17.7912 14.9669 17.6495 14.9476 17.5148C14.9368 17.4336 14.9131 17.3547 14.8775 17.281C14.817 17.16 14.7139 17.061 14.5076 16.8685L14.3839 16.7517C13.9439 16.335 13.7225 16.126 13.7527 15.9267C13.7591 15.8854 13.7721 15.8455 13.7912 15.8084C13.8834 15.631 14.1831 15.6022 14.784 15.5472C15.1387 15.5142 15.3161 15.4977 15.4577 15.4097C15.4981 15.3845 15.5358 15.3555 15.5705 15.323C15.6942 15.2075 15.7589 15.037 15.8909 14.696Z" fill="#F05537" stroke="#F05537" stroke-width="1.375"/>
</svg>
