<svg width="32" height="32" viewBox="0 0 32 32" fill="none" xmlns="http://www.w3.org/2000/svg">
<path d="M5.58667 5.96004C4.62667 6.38671 4 7.34671 4 8.40004V14.6667C4 22.0667 9.12 28.9867 16 30.6667C22.88 28.9867 28 22.0667 28 14.6667V8.40004C28 7.34671 27.3733 6.38671 26.4133 5.96004L17.08 1.81337C16.3867 1.50671 15.6 1.50671 14.92 1.81337L5.58667 5.96004ZM16 9.33337C16.7333 9.33337 17.3333 9.93337 17.3333 10.6667C17.3333 11.4 16.7333 12 16 12C15.2667 12 14.6667 11.4 14.6667 10.6667C14.6667 9.93337 15.2667 9.33337 16 9.33337ZM16 14.6667C16.7333 14.6667 17.3333 15.2667 17.3333 16V21.3334C17.3333 22.0667 16.7333 22.6667 16 22.6667C15.2667 22.6667 14.6667 22.0667 14.6667 21.3334V16C14.6667 15.2667 15.2667 14.6667 16 14.6667Z" fill="#F05537"/>
</svg>
