<svg width="33" height="33" viewBox="0 0 33 33" fill="none" xmlns="http://www.w3.org/2000/svg">
<path d="M21.4225 23.1L16.5 19.9375L11.5775 23.1L13.0625 17.435L8.53875 13.75L14.3825 13.3925L16.5 7.975L18.6175 13.3925L24.4613 13.75L19.9375 17.435M27.5 16.5C27.5 15.7707 27.7897 15.0712 28.3055 14.5555C28.8212 14.0397 29.5207 13.75 30.25 13.75V8.25C30.25 7.52065 29.9603 6.82118 29.4445 6.30546C28.9288 5.78973 28.2293 5.5 27.5 5.5H5.5C4.77065 5.5 4.07118 5.78973 3.55546 6.30546C3.03973 6.82118 2.75 7.52065 2.75 8.25V13.75C3.47935 13.75 4.17882 14.0397 4.69454 14.5555C5.21027 15.0712 5.5 15.7707 5.5 16.5C5.5 17.2293 5.21027 17.9288 4.69454 18.4445C4.17882 18.9603 3.47935 19.25 2.75 19.25V24.75C2.75 25.4793 3.03973 26.1788 3.55546 26.6945C4.07118 27.2103 4.77065 27.5 5.5 27.5H27.5C28.2293 27.5 28.9288 27.2103 29.4445 26.6945C29.9603 26.1788 30.25 25.4793 30.25 24.75V19.25C29.5207 19.25 28.8212 18.9603 28.3055 18.4445C27.7897 17.9288 27.5 17.2293 27.5 16.5Z" fill="#F05537"/>
</svg>
