<svg width="28" height="25" viewBox="0 0 28 25" fill="none" xmlns="http://www.w3.org/2000/svg">
<path d="M1.7832 4.09374H24.3125V1.01874C24.3125 0.880022 24.2817 0.743027 24.2224 0.617639C24.163 0.49225 24.0766 0.381594 23.9693 0.293649C23.8621 0.205705 23.7366 0.142664 23.602 0.109075C23.4674 0.0754851 23.327 0.0721835 23.191 0.0994076L1.62852 3.64316C1.46795 3.67512 1.31856 3.74857 1.1952 3.8562C1.07185 3.96383 0.978823 4.10189 0.925391 4.25663C1.19848 4.14866 1.48955 4.09339 1.7832 4.09374ZM26.1582 5.49999H1.7832C1.53456 5.49999 1.29611 5.59877 1.12029 5.77458C0.944475 5.9504 0.845703 6.18885 0.845703 6.43749V23.3125C0.845703 23.5611 0.944475 23.7996 1.12029 23.9754C1.29611 24.1512 1.53456 24.25 1.7832 24.25H26.1582C26.4068 24.25 26.6453 24.1512 26.8211 23.9754C26.9969 23.7996 27.0957 23.5611 27.0957 23.3125V6.43749C27.0957 6.18885 26.9969 5.9504 26.8211 5.77458C26.6453 5.59877 26.4068 5.49999 26.1582 5.49999ZM20.5625 16.75C20.1917 16.75 19.8291 16.64 19.5208 16.434C19.2125 16.228 18.9721 15.9351 18.8302 15.5925C18.6883 15.2499 18.6512 14.8729 18.7235 14.5092C18.7959 14.1455 18.9745 13.8114 19.2367 13.5492C19.4989 13.2869 19.833 13.1084 20.1967 13.036C20.5604 12.9637 20.9374 13.0008 21.28 13.1427C21.6226 13.2846 21.9155 13.525 22.1215 13.8333C22.3275 14.1416 22.4375 14.5042 22.4375 14.875C22.4375 15.3723 22.24 15.8492 21.8883 16.2008C21.5367 16.5524 21.0598 16.75 20.5625 16.75Z" fill="#F05537"/>
</svg>
