<svg width="46" height="46" viewBox="0 0 46 46" fill="none" xmlns="http://www.w3.org/2000/svg">
<circle cx="23" cy="23" r="23" fill="#F6F9FC"/>
<circle cx="23" cy="23" r="18" fill="#3279B0"/>
<path d="M17.515 17.4187C18.565 17.4187 19.405 16.5655 19.405 15.5287C19.405 14.4918 18.5519 13.6387 17.515 13.6387C16.4781 13.6387 15.625 14.4918 15.625 15.5287C15.625 16.5655 16.4781 17.4187 17.515 17.4187ZM21.2031 18.8493V29.3755H24.4581V24.178C24.4581 22.7999 24.7206 21.4743 26.4138 21.4743C28.1069 21.4743 28.1069 23.0493 28.1069 24.2568V29.3755H31.375V23.6005C31.375 20.7655 30.7713 18.5868 27.4638 18.5868C25.8756 18.5868 24.8125 19.453 24.3794 20.2799H24.34V18.8362H21.2163L21.2031 18.8493ZM15.8875 18.8493H19.1556V29.3755H15.8875V18.8493Z" fill="#F6F9FC"/>
</svg>
