<svg width="46" height="46" viewBox="0 0 46 46" fill="none" xmlns="http://www.w3.org/2000/svg">
<circle cx="23" cy="23" r="23" fill="#F6F9FC"/>
<circle cx="23" cy="23" r="18" fill="#69E182"/>
<path d="M30.3 18.6999C27.9 14.9999 23 13.8999 19.2 16.1999C15.5 18.4999 14.3 23.4999 16.7 27.1999L16.9 27.4999L16.1 30.4999L19.1 29.6999L19.4 29.8999C20.7 30.5999 22.1 30.9999 23.5 30.9999C25 30.9999 26.5 30.5999 27.8 29.7999C31.5 27.3999 32.6 22.4999 30.3 18.6999ZM28.2 26.3999C27.8 26.9999 27.3 27.3999 26.6 27.4999C26.2 27.4999 25.7 27.6999 23.7 26.8999C22 26.0999 20.6 24.7999 19.6 23.2999C19 22.5999 18.7 21.6999 18.6 20.7999C18.6 19.9999 18.9 19.2999 19.4 18.7999C19.6 18.5999 19.8 18.4999 20 18.4999H20.5C20.7 18.4999 20.9 18.4999 21 18.8999C21.2 19.3999 21.7 20.5999 21.7 20.6999C21.8 20.7999 21.8 20.9999 21.7 21.0999C21.8 21.2999 21.7 21.4999 21.6 21.5999C21.5 21.6999 21.4 21.8999 21.3 21.9999C21.1 22.0999 21 22.2999 21.1 22.4999C21.5 23.0999 22 23.6999 22.5 24.1999C23.1 24.6999 23.7 25.0999 24.4 25.3999C24.6 25.4999 24.8 25.4999 24.9 25.2999C25 25.0999 25.5 24.5999 25.7 24.3999C25.9 24.1999 26 24.1999 26.2 24.2999L27.8 25.0999C28 25.1999 28.2 25.2999 28.3 25.3999C28.4 25.6999 28.4 26.0999 28.2 26.3999Z" fill="#F6F9FC"/>
</svg>
