<svg width="71" height="71" viewBox="0 0 71 71" fill="none" xmlns="http://www.w3.org/2000/svg">
<circle cx="35.5" cy="35.5" r="35.5" fill="#F05537"/>
<path d="M50.4895 37.9013C50.4904 38.3123 50.3946 38.7165 50.2116 39.0747C50.0285 39.4329 49.7643 39.7329 49.4448 39.9454L29.6399 53.2811C29.3059 53.5062 28.9235 53.6291 28.532 53.637C28.1406 53.645 27.7543 53.5378 27.413 53.3265C27.075 53.1185 26.7935 52.8152 26.5973 52.4477C26.4011 52.0802 26.2974 51.6618 26.2969 51.2355V24.5671C26.2974 24.1408 26.4011 23.7225 26.5973 23.355C26.7935 22.9875 27.075 22.6841 27.413 22.4761C27.7543 22.2648 28.1406 22.1576 28.532 22.1656C28.9235 22.1736 29.3059 22.2964 29.6399 22.5215L49.4448 35.8572C49.7643 36.0698 50.0285 36.3697 50.2116 36.7279C50.3946 37.0861 50.4904 37.4903 50.4895 37.9013Z" fill="white"/>
</svg>
