<svg width="12" height="12" viewBox="0 0 12 12" fill="none" xmlns="http://www.w3.org/2000/svg">
<path d="M2.40039 0.400024C1.86996 0.400024 1.36125 0.610738 0.986177 0.985811C0.611104 1.36088 0.400391 1.86959 0.400391 2.40002V2.80002H11.6004V2.40002C11.6004 1.86959 11.3897 1.36088 11.0146 0.985811C10.6395 0.610738 10.1308 0.400024 9.60039 0.400024H2.40039ZM11.6004 3.60002H0.400391V9.60003C0.400391 10.1305 0.611104 10.6392 0.986177 11.0142C1.36125 11.3893 1.86996 11.6 2.40039 11.6H9.60039C10.1308 11.6 10.6395 11.3893 11.0146 11.0142C11.3897 10.6392 11.6004 10.1305 11.6004 9.60003V3.60002ZM4.40039 6.00002C4.40039 6.2122 4.31611 6.41568 4.16608 6.56571C4.01605 6.71574 3.81256 6.80002 3.60039 6.80002C3.38822 6.80002 3.18473 6.71574 3.03471 6.56571C2.88468 6.41568 2.80039 6.2122 2.80039 6.00002C2.80039 5.78785 2.88468 5.58437 3.03471 5.43434C3.18473 5.28431 3.38822 5.20002 3.60039 5.20002C3.81256 5.20002 4.01605 5.28431 4.16608 5.43434C4.31611 5.58437 4.40039 5.78785 4.40039 6.00002ZM3.60039 9.20003C3.38822 9.20003 3.18473 9.11574 3.03471 8.96571C2.88468 8.81568 2.80039 8.6122 2.80039 8.40003C2.80039 8.18785 2.88468 7.98437 3.03471 7.83434C3.18473 7.68431 3.38822 7.60003 3.60039 7.60003C3.81256 7.60003 4.01605 7.68431 4.16608 7.83434C4.31611 7.98437 4.40039 8.18785 4.40039 8.40003C4.40039 8.6122 4.31611 8.81568 4.16608 8.96571C4.01605 9.11574 3.81256 9.20003 3.60039 9.20003ZM6.80039 6.00002C6.80039 6.2122 6.71611 6.41568 6.56608 6.56571C6.41605 6.71574 6.21256 6.80002 6.00039 6.80002C5.78822 6.80002 5.58473 6.71574 5.43471 6.56571C5.28468 6.41568 5.20039 6.2122 5.20039 6.00002C5.20039 5.78785 5.28468 5.58437 5.43471 5.43434C5.58473 5.28431 5.78822 5.20002 6.00039 5.20002C6.21256 5.20002 6.41605 5.28431 6.56608 5.43434C6.71611 5.58437 6.80039 5.78785 6.80039 6.00002ZM6.00039 9.20003C5.78822 9.20003 5.58473 9.11574 5.43471 8.96571C5.28468 8.81568 5.20039 8.6122 5.20039 8.40003C5.20039 8.18785 5.28468 7.98437 5.43471 7.83434C5.58473 7.68431 5.78822 7.60003 6.00039 7.60003C6.21256 7.60003 6.41605 7.68431 6.56608 7.83434C6.71611 7.98437 6.80039 8.18785 6.80039 8.40003C6.80039 8.6122 6.71611 8.81568 6.56608 8.96571C6.41605 9.11574 6.21256 9.20003 6.00039 9.20003ZM9.20039 6.00002C9.20039 6.2122 9.11611 6.41568 8.96608 6.56571C8.81605 6.71574 8.61256 6.80002 8.40039 6.80002C8.18822 6.80002 7.98474 6.71574 7.83471 6.56571C7.68468 6.41568 7.60039 6.2122 7.60039 6.00002C7.60039 5.78785 7.68468 5.58437 7.83471 5.43434C7.98474 5.28431 8.18822 5.20002 8.40039 5.20002C8.61256 5.20002 8.81605 5.28431 8.96608 5.43434C9.11611 5.58437 9.20039 5.78785 9.20039 6.00002Z" fill="#9497A1"/>
</svg>
