<svg width="16" height="16" viewBox="0 0 16 16" fill="none" xmlns="http://www.w3.org/2000/svg">
<path d="M9.90279 4.56638V2.86238C9.90279 2.47838 10.3268 2.27198 10.6148 2.48638L10.6644 2.52957L14.262 6.06557C14.43 6.23117 14.4452 6.49678 14.3076 6.67998L14.262 6.73198L10.6644 10.2704C10.394 10.536 9.95479 10.3656 9.90679 10.0032L9.90279 9.93757V8.26078L9.69639 8.27917C8.25639 8.43357 6.87559 9.09837 5.54679 10.2848C5.23479 10.5632 4.75319 10.3008 4.80439 9.87998C5.20279 6.60798 6.87239 4.80398 9.72279 4.57838L9.90279 4.56638ZM4.40039 3.19998C3.86996 3.19998 3.36125 3.41069 2.98618 3.78576C2.6111 4.16083 2.40039 4.66954 2.40039 5.19998V11.6C2.40039 12.1304 2.6111 12.6391 2.98618 13.0142C3.36125 13.3893 3.86996 13.6 4.40039 13.6H10.8004C11.3308 13.6 11.8395 13.3893 12.2146 13.0142C12.5897 12.6391 12.8004 12.1304 12.8004 11.6V10.8C12.8004 10.6939 12.7582 10.5921 12.6832 10.5171C12.6082 10.4421 12.5065 10.4 12.4004 10.4C12.2943 10.4 12.1926 10.4421 12.1175 10.5171C12.0425 10.5921 12.0004 10.6939 12.0004 10.8V11.6C12.0004 11.9182 11.874 12.2235 11.6489 12.4485C11.4239 12.6735 11.1186 12.8 10.8004 12.8H4.40039C4.08213 12.8 3.77691 12.6735 3.55186 12.4485C3.32682 12.2235 3.20039 11.9182 3.20039 11.6V5.19998C3.20039 4.88172 3.32682 4.57649 3.55186 4.35145C3.77691 4.1264 4.08213 3.99998 4.40039 3.99998H6.80039C6.90648 3.99998 7.00822 3.95783 7.08323 3.88282C7.15825 3.8078 7.20039 3.70606 7.20039 3.59997C7.20039 3.49389 7.15825 3.39215 7.08323 3.31713C7.00822 3.24212 6.90648 3.19998 6.80039 3.19998H4.40039Z" fill="#9497A1"/>
</svg>
