<svg width="16" height="16" viewBox="0 0 16 16" fill="none" xmlns="http://www.w3.org/2000/svg">
<path d="M14.4045 3.22639C14.4039 2.80439 14.2366 2.39973 13.939 2.1005C13.6414 1.80128 13.2377 1.63174 12.8157 1.62879L8.90373 1.60319C8.69213 1.60175 8.48234 1.64231 8.28652 1.72251C8.0907 1.8027 7.91274 1.92094 7.76293 2.07039L2.41732 7.40159C2.26846 7.55008 2.15032 7.72646 2.06966 7.92064C1.98901 8.11482 1.94741 8.32299 1.94727 8.53325C1.94712 8.74352 1.98841 8.95175 2.0688 9.14605C2.14918 9.34034 2.26707 9.51688 2.41572 9.66559L6.37493 13.6256C6.67497 13.9255 7.08186 14.094 7.50613 14.094C7.93039 14.094 8.33728 13.9255 8.63733 13.6256L13.9421 8.31999C14.091 8.17116 14.209 7.99442 14.2895 7.7999C14.3699 7.60537 14.4112 7.39689 14.4109 7.18639L14.4045 3.22639ZM11.1997 5.59999C10.9876 5.59999 10.7841 5.5157 10.634 5.36567C10.484 5.21564 10.3997 5.01216 10.3997 4.79999C10.3997 4.58781 10.484 4.38433 10.634 4.2343C10.7841 4.08427 10.9876 3.99999 11.1997 3.99999C11.4119 3.99999 11.6154 4.08427 11.7654 4.2343C11.9154 4.38433 11.9997 4.58781 11.9997 4.79999C11.9997 5.01216 11.9154 5.21564 11.7654 5.36567C11.6154 5.5157 11.4119 5.59999 11.1997 5.59999Z" fill="#9497A1"/>
</svg>
