<svg width="12" height="14" viewBox="0 0 12 14" fill="none" xmlns="http://www.w3.org/2000/svg">
<path d="M6.00039 0.599976C5.1517 0.599976 4.33777 0.937118 3.73765 1.53723C3.13753 2.13735 2.80039 2.95128 2.80039 3.79998C2.80039 4.64867 3.13753 5.4626 3.73765 6.06272C4.33777 6.66283 5.1517 6.99998 6.00039 6.99998C6.84908 6.99998 7.66302 6.66283 8.26313 6.06272C8.86325 5.4626 9.20039 4.64867 9.20039 3.79998C9.20039 2.95128 8.86325 2.13735 8.26313 1.53723C7.66302 0.937118 6.84908 0.599976 6.00039 0.599976ZM2.00759 7.79998C1.7969 7.79913 1.58812 7.83989 1.39321 7.91991C1.19831 7.99993 1.02111 8.11764 0.871798 8.26629C0.722482 8.41493 0.603978 8.5916 0.523084 8.78614C0.442189 8.98068 0.400494 9.18928 0.400391 9.39997C0.400391 10.7528 1.06679 11.7728 2.10839 12.4376C3.13399 13.0912 4.51639 13.4 6.00039 13.4C7.48439 13.4 8.86679 13.0912 9.89239 12.4376C10.934 11.7736 11.6004 10.752 11.6004 9.39997C11.6004 8.97563 11.4318 8.56866 11.1318 8.2686C10.8317 7.96855 10.4247 7.79998 10.0004 7.79998H2.00759Z" fill="#9497A1"/>
</svg>
