<svg width="16" height="16" viewBox="0 0 16 16" fill="none" xmlns="http://www.w3.org/2000/svg">
<path d="M14.3993 4.39999C14.3994 4.72794 14.3188 5.05087 14.1647 5.34035C14.0106 5.62984 13.7877 5.87698 13.5156 6.06002C13.2435 6.24306 12.9305 6.35638 12.6043 6.39C12.2781 6.42361 11.9486 6.37649 11.6449 6.25279L10.6193 7.79119C10.8143 7.98822 10.9662 8.22364 11.0654 8.4825C11.1646 8.74136 11.2089 9.01802 11.1955 9.29492C11.1821 9.57181 11.1113 9.8429 10.9875 10.091C10.8638 10.339 10.6898 10.5587 10.4766 10.7359C10.2635 10.9132 10.0158 11.0442 9.74936 11.1206C9.48289 11.197 9.20344 11.2173 8.92874 11.18C8.65404 11.1427 8.3901 11.0487 8.15366 10.9039C7.91722 10.7592 7.71346 10.5669 7.5553 10.3392L5.5585 11.1952C5.65847 11.6806 5.57465 12.1859 5.32329 12.613C5.07193 13.0401 4.67093 13.3587 4.19803 13.507C3.72514 13.6553 3.21403 13.6227 2.76378 13.4156C2.31353 13.2085 1.95622 12.8416 1.76111 12.386C1.56601 11.9304 1.547 11.4186 1.70778 10.9498C1.86855 10.481 2.19766 10.0886 2.63131 9.84865C3.06495 9.6087 3.57224 9.53831 4.05483 9.65111C4.53743 9.76392 4.96095 10.0519 5.2433 10.4592L7.2401 9.60399C7.16656 9.24895 7.19092 8.88059 7.31058 8.53832C7.43023 8.19606 7.64068 7.89275 7.91941 7.66086C8.19814 7.42897 8.53467 7.27721 8.89299 7.22182C9.25132 7.16643 9.61796 7.20949 9.9537 7.34639L10.9793 5.80879C10.7479 5.57553 10.5776 5.28887 10.4834 4.97414C10.3891 4.65941 10.3738 4.32631 10.4389 4.00428C10.504 3.68225 10.6474 3.38121 10.8564 3.12776C11.0655 2.87432 11.3338 2.67628 11.6375 2.55114C11.9413 2.42601 12.2712 2.37764 12.5981 2.4103C12.9251 2.44297 13.2389 2.55566 13.5119 2.73843C13.7849 2.92119 14.0087 3.1684 14.1635 3.4582C14.3182 3.74799 14.3992 4.07146 14.3993 4.39999Z" fill="#9497A1"/>
</svg>
