<svg width="132" height="132" viewBox="0 0 132 132" fill="none" xmlns="http://www.w3.org/2000/svg">
<path d="M112.066 31.4473C111.915 31.314 111.753 31.1923 111.583 31.0833L68.9135 3.82038C68.3193 3.4407 67.6292 3.23812 66.924 3.23634C66.2189 3.23456 65.5278 3.43365 64.9316 3.81033L21.7841 31.0732C21.6217 31.1758 21.4745 31.2877 21.336 31.4045C20.2378 31.7118 19.4313 32.7176 19.4313 33.9138V126.487C19.4313 127.927 20.599 129.095 22.0394 129.095H111.225C112.665 129.095 113.833 127.927 113.833 126.487V33.9138C113.832 32.7683 113.093 31.7977 112.066 31.4473Z" fill="#D1CFC3"/>
<path d="M118.05 130.047C117.588 130.047 117.145 129.863 116.818 129.537C116.491 129.21 116.307 128.766 116.307 128.304V79.1359C116.307 78.6735 116.491 78.2301 116.818 77.9032C117.145 77.5762 117.588 77.3926 118.05 77.3926C118.513 77.3926 118.956 77.5762 119.283 77.9032C119.61 78.2301 119.794 78.6735 119.794 79.1359V128.304C119.794 128.766 119.61 129.21 119.283 129.536C118.956 129.863 118.513 130.047 118.05 130.047ZM15.7529 128.737V117.515C15.7568 117.284 15.7147 117.054 15.6289 116.839C15.5431 116.624 15.4153 116.428 15.2531 116.263C15.0908 116.098 14.8973 115.967 14.6839 115.877C14.4704 115.788 14.2413 115.742 14.0098 115.742C13.7783 115.742 13.5492 115.788 13.3357 115.877C13.1223 115.967 12.9288 116.098 12.7665 116.263C12.6043 116.428 12.4765 116.624 12.3907 116.839C12.3049 117.054 12.2627 117.284 12.2667 117.515V128.737C12.2627 128.969 12.3049 129.199 12.3907 129.414C12.4765 129.629 12.6043 129.824 12.7665 129.99C12.9288 130.155 13.1223 130.286 13.3357 130.375C13.5492 130.465 13.7783 130.511 14.0098 130.511C14.2413 130.511 14.4704 130.465 14.6839 130.375C14.8973 130.286 15.0908 130.155 15.2531 129.99C15.4153 129.824 15.5431 129.629 15.6289 129.414C15.7147 129.199 15.7568 128.969 15.7529 128.737Z" fill="#8E6049"/>
<path d="M131.063 103.82C131.063 111.007 125.237 116.833 118.05 116.833C110.863 116.833 105.037 111.007 105.037 103.82C105.037 96.6325 110.863 90.8062 118.05 90.8062C125.237 90.8062 131.063 96.6325 131.063 103.82ZM118.05 69.0469C113.207 69.0469 109.281 72.9728 109.281 77.8159C109.281 82.6589 113.207 86.5848 118.05 86.5848C122.893 86.5848 126.819 82.6589 126.819 77.8159C126.819 72.9728 122.893 69.0469 118.05 69.0469ZM14.6334 74.4089C14.3863 74.3269 14.1255 74.2945 13.8659 74.3134C13.6062 74.3322 13.3529 74.4021 13.1202 74.5189C12.8876 74.6357 12.6802 74.7972 12.51 74.9941C12.3397 75.1911 12.2099 75.4196 12.128 75.6667C12.128 75.6667 11.9238 76.2824 11.5869 77.36C11.4128 77.8989 11.2213 78.5529 10.9924 79.3034L10.6306 80.4986L10.2473 81.8238C9.98379 82.7473 9.68369 83.7479 9.39288 84.8062L8.47739 88.1348C8.15358 89.2893 7.85116 90.4822 7.52632 91.6944L6.58427 95.3695C6.27851 96.6008 5.96269 97.8324 5.67265 99.0446C5.37977 100.257 5.08432 101.45 4.81671 102.604C4.5473 103.759 4.27711 104.875 4.03863 105.933L3.35904 108.915C3.14016 109.839 3.00919 110.685 2.95324 111.436C2.89678 112.186 2.90632 112.84 2.95788 113.379C3.00506 113.918 3.0873 114.341 3.16001 114.63C3.23168 114.918 3.29536 115.073 3.29536 115.073C4.43463 117.8 6.6232 120.125 9.56923 121.346C15.4865 123.799 22.2711 120.99 24.7234 115.073C24.7234 115.073 24.7871 114.919 24.8588 114.63C24.9315 114.341 25.0137 113.918 25.0609 113.379C25.1125 112.84 25.1223 112.186 25.0656 111.436C25.0096 110.685 24.8786 109.839 24.6598 108.915L23.9802 105.933C23.7417 104.875 23.4715 103.759 23.2021 102.604C22.9345 101.45 22.639 100.257 22.3462 99.0446C22.0561 97.8324 21.7406 96.6011 21.4345 95.3695L20.4925 91.6944C20.1676 90.4822 19.8652 89.2893 19.5414 88.1348L18.6259 84.8062C18.3354 83.7479 18.0353 82.7473 17.7715 81.8238L17.3882 80.4986L17.0265 79.3034C16.7975 78.5529 16.6062 77.8989 16.4319 77.36C16.0947 76.2826 15.8905 75.6667 15.8905 75.6667C15.6987 75.0977 15.2475 74.6123 14.6334 74.4089Z" fill="#29A53B"/>
<path d="M54.2198 95.3711H79.8368V129.094H54.2198V95.3711Z" fill="#2B3B47"/>
<path d="M15.668 38.3105H20.0032C20.363 38.3105 20.7158 38.2107 21.0223 38.0222L66.5551 10.0148C66.8652 9.82394 67.2227 9.72402 67.5868 9.72639C67.951 9.72876 68.3071 9.83332 68.6147 10.0282L112.801 38.0088C113.112 38.206 113.473 38.3107 113.841 38.3107H117.748C119.681 38.3107 120.43 35.7963 118.812 34.7379L68.6583 1.92873C68.3462 1.72447 67.9819 1.61431 67.6089 1.61139C67.2358 1.60846 66.8699 1.7129 66.5546 1.91223L14.6291 34.7212C12.9814 35.7622 13.719 38.3105 15.668 38.3105Z" fill="#FF473E"/>
<path d="M44.945 111.462H36.1618C35.6695 111.462 35.1974 111.266 34.8492 110.918C34.5011 110.57 34.3056 110.098 34.3056 109.606V106.249C34.3056 105.757 34.5011 105.284 34.8492 104.936C35.1974 104.588 35.6695 104.393 36.1618 104.393H44.945C45.4373 104.393 45.9094 104.588 46.2575 104.936C46.6056 105.284 46.8012 105.757 46.8012 106.249V109.606C46.8012 110.098 46.6056 110.57 46.2575 110.918C45.9094 111.266 45.4373 111.462 44.945 111.462ZM75.95 111.46C74.7754 111.46 73.8231 112.412 73.8231 113.587C73.8231 114.762 74.7752 115.714 75.95 115.714C77.1249 115.714 78.077 114.762 78.077 113.587C78.077 112.412 77.1246 111.46 75.95 111.46Z" fill="#E2A042"/>
<path d="M51.9492 44.1492V65.2197C51.9492 65.712 51.7537 66.1842 51.4055 66.5323C51.0574 66.8804 50.5853 67.076 50.093 67.076H39.7849C39.2925 67.076 38.8204 66.8804 38.4723 66.5323C38.1242 66.1842 37.9286 65.712 37.9286 65.2197V44.1492C37.9286 43.6569 38.1242 43.1848 38.4723 42.8367C38.8204 42.4885 39.2925 42.293 39.7849 42.293H50.093C50.5853 42.293 51.0574 42.4885 51.4055 42.8367C51.7537 43.1848 51.9492 43.6569 51.9492 44.1492ZM94.1614 42.293H83.8533C83.361 42.293 82.8888 42.4885 82.5407 42.8367C82.1926 43.1848 81.997 43.6569 81.997 44.1492V65.2197C81.997 65.712 82.1926 66.1842 82.5407 66.5323C82.8888 66.8804 83.361 67.076 83.8533 67.076H94.1614C94.6537 67.076 95.1258 66.8804 95.4739 66.5323C95.8221 66.1842 96.0176 65.712 96.0176 65.2197V44.1492C96.0176 43.6569 95.8221 43.1848 95.4739 42.8367C95.1258 42.4885 94.6537 42.293 94.1614 42.293Z" fill="#464A4C"/>
<path d="M52.6796 70.4005H37.1985C36.7062 70.4005 36.234 70.2049 35.8859 69.8568C35.5378 69.5087 35.3422 69.0365 35.3422 68.5442V67.2098C35.3422 66.7175 35.5378 66.2453 35.8859 65.8972C36.234 65.5491 36.7062 65.3535 37.1985 65.3535H52.6796C53.1719 65.3535 53.644 65.5491 53.9922 65.8972C54.3403 66.2453 54.5358 66.7175 54.5358 67.2098V68.5442C54.5358 69.0365 54.3403 69.5087 53.9922 69.8568C53.644 70.2049 53.1719 70.4005 52.6796 70.4005ZM98.6043 68.5442V67.2098C98.6043 66.7175 98.4087 66.2453 98.0606 65.8972C97.7125 65.5491 97.2403 65.3535 96.748 65.3535H81.2669C80.7746 65.3535 80.3024 65.5491 79.9543 65.8972C79.6062 66.2453 79.4106 66.7175 79.4106 67.2098V68.5442C79.4106 69.0365 79.6062 69.5087 79.9543 69.8568C80.3024 70.2049 80.7746 70.4005 81.2669 70.4005H96.748C97.2403 70.4005 97.7125 70.2049 98.0606 69.8568C98.4087 69.5087 98.6043 69.0365 98.6043 68.5442ZM82.6714 97.6626C84.983 97.6626 86.6351 95.489 86.115 93.237C84.1087 84.55 76.3249 78.074 67.0284 78.074C57.732 78.074 49.9478 84.55 47.9418 93.237C47.4218 95.4892 49.0738 97.6626 51.3854 97.6626H82.6714Z" fill="#8E7B70"/>
</svg>
