<svg width="53" height="53" viewBox="0 0 53 53" fill="none" xmlns="http://www.w3.org/2000/svg">
<path d="M42.8958 10.1042C40.7465 7.93362 38.1896 6.20913 35.3718 5.02976C32.554 3.85039 29.531 3.2394 26.4764 3.23188C23.4217 3.22436 20.3957 3.82047 17.5722 4.98595C14.7486 6.15143 12.1832 7.86332 10.0232 10.0233C7.86329 12.1832 6.1514 14.7487 4.98592 17.5722C3.82044 20.3958 3.22433 23.4218 3.23185 26.4764C3.23937 29.531 3.85036 32.554 5.02973 35.3718C6.2091 38.1896 7.93359 40.7466 10.1042 42.8959C12.2534 45.0664 14.8104 46.7909 17.6282 47.9703C20.446 49.1497 23.469 49.7606 26.5236 49.7682C29.5783 49.7757 32.6043 49.1796 35.4278 48.0141C38.2514 46.8486 40.8168 45.1367 42.9767 42.9768C45.1367 40.8168 46.8486 38.2514 48.0141 35.4278C49.1795 32.6043 49.7756 29.5783 49.7681 26.5237C49.7606 23.469 49.1496 20.446 47.9703 17.6282C46.7909 14.8105 45.0664 12.2535 42.8958 10.1042ZM19.0469 21.5313C19.5382 21.5313 20.0186 21.677 20.4271 21.95C20.8357 22.2229 21.1541 22.611 21.3421 23.0649C21.5302 23.5189 21.5794 24.0184 21.4835 24.5003C21.3876 24.9822 21.151 25.4249 20.8036 25.7724C20.4561 26.1198 20.0135 26.3564 19.5315 26.4523C19.0496 26.5481 18.5501 26.4989 18.0961 26.3109C17.6422 26.1229 17.2542 25.8044 16.9812 25.3959C16.7082 24.9873 16.5625 24.507 16.5625 24.0156C16.5617 23.6892 16.6254 23.3657 16.7499 23.0639C16.8745 22.7622 17.0575 22.488 17.2883 22.2571C17.5192 22.0262 17.7934 21.8433 18.0952 21.7187C18.397 21.5942 18.7204 21.5305 19.0469 21.5313ZM36.4033 32.5215C35.1611 36.6932 31.2068 39.75 26.5052 39.75C21.8035 39.75 17.8492 36.6932 16.5967 32.5215C16.5616 32.3973 16.5561 32.2666 16.5806 32.1399C16.605 32.0131 16.6588 31.8939 16.7375 31.7916C16.8163 31.6893 16.9178 31.6069 17.0341 31.5508C17.1504 31.4948 17.2781 31.4667 17.4072 31.4688H35.5938C35.7228 31.4668 35.8504 31.4951 35.9666 31.5512C36.0827 31.6073 36.1841 31.6898 36.2628 31.792C36.3414 31.8943 36.395 32.0135 36.4194 32.1401C36.4439 32.2668 36.4383 32.3974 36.4033 32.5215ZM33.9531 26.5C33.4618 26.5 32.9814 26.3543 32.5729 26.0813C32.1643 25.8083 31.8459 25.4203 31.6579 24.9664C31.4698 24.5124 31.4206 24.0129 31.5165 23.531C31.6123 23.049 31.849 22.6064 32.1964 22.2589C32.5438 21.9115 32.9865 21.6749 33.4684 21.579C33.9504 21.4831 34.4499 21.5323 34.9038 21.7204C35.3578 21.9084 35.7458 22.2268 36.0188 22.6354C36.2918 23.044 36.4375 23.5243 36.4375 24.0156C36.4383 24.3421 36.3746 24.6656 36.25 24.9673C36.1255 25.2691 35.9425 25.5433 35.7117 25.7742C35.4808 26.005 35.2066 26.188 34.9048 26.3126C34.603 26.4371 34.2796 26.5008 33.9531 26.5Z" fill="#F05537"/>
</svg>
