<svg width="32" height="32" viewBox="0 0 32 32" fill="none" xmlns="http://www.w3.org/2000/svg">
<g clip-path="url(#clip0_26_2314)">
<path d="M30.2222 14.9156C30.5526 14.6695 30.7976 14.3261 30.923 13.9337C31.0484 13.5413 31.0478 13.1195 30.9214 12.7274C30.795 12.3353 30.549 11.9927 30.2179 11.7474C29.8869 11.5022 29.4875 11.3667 29.0755 11.36L21.0755 11.0578C21.0362 11.0551 20.9985 11.0411 20.967 11.0174C20.9354 10.9937 20.9114 10.9615 20.8978 10.9245L18.1333 3.4578C17.9944 3.07792 17.7422 2.7499 17.4107 2.51815C17.0792 2.2864 16.6845 2.16211 16.28 2.16211C15.8755 2.16211 15.4808 2.2864 15.1493 2.51815C14.8178 2.7499 14.5656 3.07792 14.4267 3.4578L11.6711 10.9511C11.6575 10.9881 11.6335 11.0204 11.6019 11.0441C11.5704 11.0677 11.5327 11.0818 11.4933 11.0845L3.49332 11.3867C3.08142 11.3934 2.68195 11.5289 2.35092 11.7741C2.01989 12.0193 1.77391 12.362 1.64747 12.7541C1.52102 13.1462 1.52045 13.568 1.64584 13.9604C1.77123 14.3528 2.01629 14.6961 2.34666 14.9422L8.62221 19.8756C8.65362 19.9003 8.67709 19.9337 8.68973 19.9716C8.70237 20.0095 8.70362 20.0503 8.69332 20.0889L6.53332 27.7422C6.42139 28.132 6.43224 28.5467 6.56438 28.9301C6.69652 29.3134 6.94355 29.6467 7.27186 29.8847C7.60016 30.1227 7.99381 30.2537 8.39924 30.2601C8.80467 30.2664 9.20221 30.1476 9.53777 29.92L16.1689 25.4756C16.2015 25.453 16.2403 25.4409 16.28 25.4409C16.3197 25.4409 16.3584 25.453 16.3911 25.4756L23.0222 29.92C23.3532 30.1554 23.7493 30.2819 24.1555 30.2819C24.5617 30.2819 24.9579 30.1554 25.2889 29.92C25.6173 29.6843 25.8645 29.3526 25.9967 28.9706C26.1288 28.5885 26.1393 28.1749 26.0267 27.7867L23.8489 20.1067C23.8373 20.0681 23.838 20.027 23.8507 19.9888C23.8634 19.9506 23.8876 19.9173 23.92 19.8934L30.2222 14.9156Z" fill="#F05537"/>
</g>
<defs>
<clipPath id="clip0_26_2314">
<rect width="32" height="32" fill="white"/>
</clipPath>
</defs>
</svg>
