<svg width="249" height="247" viewBox="0 0 249 247" fill="none" xmlns="http://www.w3.org/2000/svg">
<g clip-path="url(#clip0_335_4240)">
<path d="M27.6049 34.3047C20.2837 34.3047 13.2622 37.1961 8.0853 42.343C2.90837 47.4898 0 54.4704 0 61.7491L0 185.249C0 192.528 2.90837 199.508 8.0853 204.655C13.2622 209.802 20.2837 212.694 27.6049 212.694H220.84C228.161 212.694 235.182 209.802 240.359 204.655C245.536 199.508 248.444 192.528 248.444 185.249V61.7491C248.444 61.7491 248.444 34.3047 220.84 34.3047H27.6049Z" fill="#FFAC33"/>
<path d="M0 68.6113H248.444V102.917H0V68.6113Z" fill="#292F33"/>
<path d="M27.6049 130.361H220.839V171.528H27.6049V130.361Z" fill="#F4F7F9"/>
<path d="M131.123 164.667C119.371 164.667 114.968 156.365 114.084 152.31C110.309 152.592 106.631 154.389 101.628 157.552C96.3481 160.887 90.3648 164.667 82.8148 164.667C74.5541 164.667 69.5369 160.036 69.0124 150.945C68.9917 150.561 69.2746 149.655 69.1573 149.655C56.3348 149.655 47.0595 161.737 46.9698 161.861C46.4356 162.589 45.762 163.205 44.9877 163.673C44.2134 164.142 43.3535 164.453 42.4577 164.591C41.5618 164.728 40.6475 164.687 39.7673 164.472C38.8872 164.257 38.0584 163.871 37.3288 163.336C36.5978 162.803 35.9795 162.132 35.5093 161.362C35.039 160.591 34.7261 159.736 34.5883 158.846C34.4505 157.955 34.4906 157.046 34.7062 156.171C34.9218 155.295 35.3088 154.471 35.845 153.744C36.3764 153.024 49.0678 137.223 69.0124 137.223C82.3801 137.223 83.1461 146.657 83.3531 150.176L83.4014 150.924C86.7554 150.691 90.2406 148.495 94.2364 145.964C100.868 141.778 109.095 136.557 120.116 139.363C126.127 140.893 127.066 146.437 127.424 148.53C127.514 149.051 127.645 149.833 127.763 150.08C127.811 150.08 128.77 150.705 131.745 150.972C137.404 151.487 143.622 149.058 150.205 146.492C157.024 143.83 164.077 141.085 171.675 141.085C195.063 141.085 204.573 152.303 205.581 153.58C206.16 154.287 206.592 155.102 206.851 155.978C207.11 156.853 207.19 157.771 207.088 158.678C206.986 159.584 206.703 160.462 206.255 161.258C205.808 162.055 205.205 162.754 204.482 163.317C203.759 163.879 202.931 164.292 202.045 164.532C201.16 164.772 200.235 164.834 199.325 164.714C198.416 164.595 197.539 164.296 196.747 163.835C195.954 163.375 195.263 162.762 194.711 162.032C194.546 161.847 188.293 154.801 171.682 154.801C166.692 154.801 161.137 156.962 155.25 159.254C148.287 161.971 138.453 164.667 131.123 164.667Z" fill="#8899A6"/>
</g>
<defs>
<clipPath id="clip0_335_4240">
<rect width="248.444" height="247" fill="white"/>
</clipPath>
</defs>
</svg>
